SplineFontDB: 3.0
FontName: Bungee-Hairline
FullName: Bungee Hairline
FamilyName: Bungee
Weight: Medium
Copyright: Copyright 2008 The Bungee Project Authors david@djr.com
Version: 1.0
ItalicAngle: 0
UnderlinePosition: 0
UnderlineWidth: 0
Ascent: 860
Descent: 140
InvalidEm: 0
sfntRevision: 0x00010000
LayerCount: 2
Layer: 0 0 "Back" 1
Layer: 1 0 "Fore" 0
XUID: [1021 54 2135015912 7287270]
StyleMap: 0x0000
FSType: 1
OS2Version: 3
OS2_WeightWidthSlopeOnly: 0
OS2_UseTypoMetrics: 0
CreationTime: 1465333265
ModificationTime: 1465333265
PfmFamily: 81
TTFWeight: 500
TTFWidth: 5
LineGap: 200
VLineGap: 0
Panose: 0 0 0 0 0 0 0 0 0 0
OS2TypoAscent: 860
OS2TypoAOffset: 0
OS2TypoDescent: -140
OS2TypoDOffset: 0
OS2TypoLinegap: 200
OS2WinAscent: 1614
OS2WinAOffset: 0
OS2WinDescent: 894
OS2WinDOffset: 0
HheadAscent: 860
HheadAOffset: 0
HheadDescent: -140
HheadDOffset: 0
OS2SubXSize: 650
OS2SubYSize: 600
OS2SubXOff: 0
OS2SubYOff: 75
OS2SupXSize: 650
OS2SupYSize: 600
OS2SupXOff: 0
OS2SupYOff: 350
OS2StrikeYSize: 0
OS2StrikeYPos: 300
OS2CapHeight: 720
OS2XHeight: 500
OS2Vendor: 'djr '
OS2CodePages: 20000193.00000000
OS2UnicodeRanges: 20000007.00000001.00000000.00000000
Lookup: 1 0 0 "'locl' Localized Forms in Latin lookup 0" { "'locl' Localized Forms in Latin lookup 0 subtable"  } ['locl' ('latn' <'ROM ' > ) ]
Lookup: 6 0 0 "'locl' Localized Forms in Latin lookup 1" { "'locl' Localized Forms in Latin lookup 1 contextual 0"  "'locl' Localized Forms in Latin lookup 1 contextual 1"  } ['locl' ('latn' <'CAT ' > ) ]
Lookup: 6 0 0 "'ordn' Ordinals in Latin lookup 2" { "'ordn' Ordinals in Latin lookup 2 contextual 0"  "'ordn' Ordinals in Latin lookup 2 contextual 1"  } ['ordn' ('DFLT' <'dflt' > 'latn' <'CAT ' 'ROM ' 'dflt' > ) ]
Lookup: 1 0 0 "'sups' Superscript in Latin lookup 3" { "'sups' Superscript in Latin lookup 3 subtable" ("superior") } ['sups' ('DFLT' <'dflt' > 'latn' <'CAT ' 'ROM ' 'dflt' > ) ]

StartChar: .notdef
Encoding: 65536 -1 0
Width: 1000
Flags: MW
HStem: -20 10<130 870 130 880> 730 10<130 870 130 130>
VStem: 120 10<-10 730 -10 740> 870 10<-10 730 730 730>
LayerCount: 2
Fore
SplineSet
120 -20 m 1
 120 740 l 1
 880 740 l 1
 880 -20 l 1
 120 -20 l 1
870 -10 m 1
 870 730 l 1
 130 730 l 1
 130 -10 l 1
 870 -10 l 1
EndSplineSet
Position2: "'ss11' Style Set 11 in Latin lookup 1 per glyph data 19" dx=140 dy=0 dh=280 dv=0
EndChar

StartChar: A
Encoding: 65 65 2
Width: 730
Flags: MW
HStem: 262 10<170 560 170 560> 620 10<294 412 314 412>
VStem: 160 10<90 262 272 303> 560 10<90 262 262 262 272 303 90 321>
LayerCount: 2
Fore
SplineSet
170 303 m 2
 170 272 l 1
 560 272 l 1
 560 303 l 2
 560 339 554 369 544 396 c 2
 475 559 l 2
 460 594 449 620 412 620 c 2
 314 620 l 2
 274 620 263 594 250 560 c 2
 186 396 l 2
 176 369 170 339 170 303 c 2
560 90 m 1
 560 262 l 1
 170 262 l 1
 170 90 l 1
 160 90 l 1
 160 303 l 2
 160 340 166 371 177 400 c 2
 241 564 l 2
 256 601 268 630 314 630 c 2
 412 630 l 2
 456 630 468 602 484 563 c 2
 553 400 l 2
 564 371 570 340 570 303 c 2
 570 90 l 1
 560 90 l 1
EndSplineSet
Substitution2: "'ss12' Style Set 12 in Latin lookup 25 subtable" A.v
Substitution2: "'ss01' Style Set 1 in Latin lookup 21 subtable" A.v
Substitution2: "'vert' Vertical Alternates (obs) in Latin lookup 20 subtable" A.v
Substitution2: "'ss02' Style Set 2 in Latin lookup 5 subtable" A.salt
Position2: "'ss11' Style Set 11 in Latin lookup 1 per glyph data 44" dx=275 dy=0 dh=550 dv=0
EndChar

StartChar: Agrave
Encoding: 192 192 3
Width: 730
Flags: MW
HStem: 262 10<170 560 170 560> 620 10<294 412 314 412>
VStem: 160 10<90 262 272 303> 560 10<90 262 262 262 272 303 90 321>
LayerCount: 2
Fore
SplineSet
170 303 m 2
 170 272 l 1
 560 272 l 1
 560 303 l 2
 560 339 554 369 544 396 c 2
 475 559 l 2
 460 594 449 620 412 620 c 2
 314 620 l 2
 274 620 263 594 250 560 c 2
 186 396 l 2
 176 369 170 339 170 303 c 2
560 90 m 1
 560 262 l 1
 170 262 l 1
 170 90 l 1
 160 90 l 1
 160 303 l 2
 160 340 166 371 177 400 c 2
 241 564 l 2
 256 601 268 630 314 630 c 2
 412 630 l 2
 456 630 468 602 484 563 c 2
 553 400 l 2
 564 371 570 340 570 303 c 2
 570 90 l 1
 560 90 l 1
245 867 m 1
 245 877 l 1
 484 847 l 1
 484 837 l 1
 245 867 l 1
EndSplineSet
Substitution2: "'ss12' Style Set 12 in Latin lookup 25 subtable" Agrave.v
Substitution2: "'ss01' Style Set 1 in Latin lookup 21 subtable" Agrave.v
Substitution2: "'vert' Vertical Alternates (obs) in Latin lookup 20 subtable" Agrave.v
Substitution2: "'ss02' Style Set 2 in Latin lookup 5 subtable" Agrave.salt
Position2: "'ss11' Style Set 11 in Latin lookup 1 per glyph data 44" dx=275 dy=0 dh=550 dv=0
EndChar

StartChar: Aacute
Encoding: 193 193 4
Width: 730
Flags: MW
HStem: 262 10<170 560 170 560> 620 10<294 412 314 412>
VStem: 160 10<90 262 272 303> 560 10<90 262 262 262 272 303 90 321>
LayerCount: 2
Fore
SplineSet
170 303 m 2
 170 272 l 1
 560 272 l 1
 560 303 l 2
 560 339 554 369 544 396 c 2
 475 559 l 2
 460 594 449 620 412 620 c 2
 314 620 l 2
 274 620 263 594 250 560 c 2
 186 396 l 2
 176 369 170 339 170 303 c 2
560 90 m 1
 560 262 l 1
 170 262 l 1
 170 90 l 1
 160 90 l 1
 160 303 l 2
 160 340 166 371 177 400 c 2
 241 564 l 2
 256 601 268 630 314 630 c 2
 412 630 l 2
 456 630 468 602 484 563 c 2
 553 400 l 2
 564 371 570 340 570 303 c 2
 570 90 l 1
 560 90 l 1
245 847 m 1
 484 877 l 1
 484 867 l 1
 245 837 l 1
 245 847 l 1
EndSplineSet
Substitution2: "'ss12' Style Set 12 in Latin lookup 25 subtable" Aacute.v
Substitution2: "'ss01' Style Set 1 in Latin lookup 21 subtable" Aacute.v
Substitution2: "'vert' Vertical Alternates (obs) in Latin lookup 20 subtable" Aacute.v
Substitution2: "'ss02' Style Set 2 in Latin lookup 5 subtable" Aacute.salt
Position2: "'ss11' Style Set 11 in Latin lookup 1 per glyph data 44" dx=275 dy=0 dh=550 dv=0
EndChar

StartChar: Acircumflex
Encoding: 194 194 5
Width: 730
Flags: MW
HStem: 262 10<170 560 170 560> 620 10<294 412 314 412> 878 10<328 332>
VStem: 160 10<90 262 272 303> 560 10<90 262 262 262 272 303 90 321>
LayerCount: 2
Fore
SplineSet
170 303 m 2
 170 272 l 1
 560 272 l 1
 560 303 l 2
 560 339 554 369 544 396 c 2
 475 559 l 2
 460 594 449 620 412 620 c 2
 314 620 l 2
 274 620 263 594 250 560 c 2
 186 396 l 2
 176 369 170 339 170 303 c 2
560 90 m 1
 560 262 l 1
 170 262 l 1
 170 90 l 1
 160 90 l 1
 160 303 l 2
 160 340 166 371 177 400 c 2
 241 564 l 2
 256 601 268 630 314 630 c 2
 412 630 l 2
 456 630 468 602 484 563 c 2
 553 400 l 2
 564 371 570 340 570 303 c 2
 570 90 l 1
 560 90 l 1
483 850 m 1
 396 878 l 2
 386 881 377 884 364 884 c 0
 351 884 342 881 332 878 c 2
 245 850 l 1
 245 861 l 1
 328 888 l 2
 340 891 349 894 364 894 c 0
 379 894 388 891 400 888 c 2
 483 861 l 1
 483 850 l 1
EndSplineSet
Substitution2: "'ss12' Style Set 12 in Latin lookup 25 subtable" Acircumflex.v
Substitution2: "'ss01' Style Set 1 in Latin lookup 21 subtable" Acircumflex.v
Substitution2: "'vert' Vertical Alternates (obs) in Latin lookup 20 subtable" Acircumflex.v
Substitution2: "'ss02' Style Set 2 in Latin lookup 5 subtable" Acircumflex.salt
Position2: "'ss11' Style Set 11 in Latin lookup 1 per glyph data 44" dx=275 dy=0 dh=550 dv=0
EndChar

StartChar: Atilde
Encoding: 195 195 6
Width: 730
Flags: MW
HStem: 262 10<170 560 170 560> 620 10<294 412 314 412> 831 10<483 483> 843 10
VStem: 160 10<90 262 272 303> 560 10<90 262 262 262 272 303 90 321>
LayerCount: 2
Fore
SplineSet
170 303 m 2
 170 272 l 1
 560 272 l 1
 560 303 l 2
 560 339 554 369 544 396 c 2
 475 559 l 2
 460 594 449 620 412 620 c 2
 314 620 l 2
 274 620 263 594 250 560 c 2
 186 396 l 2
 176 369 170 339 170 303 c 2
560 90 m 1
 560 262 l 1
 170 262 l 1
 170 90 l 1
 160 90 l 1
 160 303 l 2
 160 340 166 371 177 400 c 2
 241 564 l 2
 256 601 268 630 314 630 c 2
 412 630 l 2
 456 630 468 602 484 563 c 2
 553 400 l 2
 564 371 570 340 570 303 c 2
 570 90 l 1
 560 90 l 1
483 841 m 1
 483 831 l 1
 456 828 430 831 379 839 c 2xec
 363 841 l 1
 335 845 l 2
 291 852 267 853 245 849 c 1
 245 860 l 1
 268 863 292 861 337 855 c 2
 365 851 l 1
 381 849 l 2
 432 841 456 838 483 841 c 1
EndSplineSet
Substitution2: "'ss12' Style Set 12 in Latin lookup 25 subtable" Atilde.v
Substitution2: "'ss01' Style Set 1 in Latin lookup 21 subtable" Atilde.v
Substitution2: "'vert' Vertical Alternates (obs) in Latin lookup 20 subtable" Atilde.v
Substitution2: "'ss02' Style Set 2 in Latin lookup 5 subtable" Atilde.salt
Position2: "'ss11' Style Set 11 in Latin lookup 1 per glyph data 44" dx=275 dy=0 dh=550 dv=0
EndChar

StartChar: Adieresis
Encoding: 196 196 7
Width: 730
Flags: MW
HStem: 262 10<170 560 170 560> 620 10<294 412 314 412> 830 47<229 239 229 239 487 497>
VStem: 160 10<90 262 272 303> 229 10<830 877> 487 10<830 877> 560 10<90 262 262 262 272 303 90 321>
LayerCount: 2
Fore
SplineSet
170 303 m 2
 170 272 l 1
 560 272 l 1
 560 303 l 2
 560 339 554 369 544 396 c 2
 475 559 l 2
 460 594 449 620 412 620 c 2
 314 620 l 2
 274 620 263 594 250 560 c 2
 186 396 l 2
 176 369 170 339 170 303 c 2
560 90 m 1
 560 262 l 1
 170 262 l 1
 170 90 l 1
 160 90 l 1
 160 303 l 2
 160 340 166 371 177 400 c 2
 241 564 l 2
 256 601 268 630 314 630 c 2
 412 630 l 2
 456 630 468 602 484 563 c 2
 553 400 l 2
 564 371 570 340 570 303 c 2
 570 90 l 1
 560 90 l 1
239 830 m 1
 229 830 l 1
 229 877 l 1
 239 877 l 1
 239 830 l 1
497 830 m 1
 487 830 l 1
 487 877 l 1
 497 877 l 1
 497 830 l 1
EndSplineSet
Substitution2: "'ss12' Style Set 12 in Latin lookup 25 subtable" Adieresis.v
Substitution2: "'ss01' Style Set 1 in Latin lookup 21 subtable" Adieresis.v
Substitution2: "'vert' Vertical Alternates (obs) in Latin lookup 20 subtable" Adieresis.v
Substitution2: "'ss02' Style Set 2 in Latin lookup 5 subtable" Adieresis.salt
Position2: "'ss11' Style Set 11 in Latin lookup 1 per glyph data 44" dx=275 dy=0 dh=550 dv=0
EndChar

StartChar: Aring
Encoding: 197 197 8
Width: 730
Flags: MW
HStem: 262 10<170 560 170 560> 620 10<294 412 314 412> 660 10<312.5 419.5 312.5 425.5> 896 10<312.5 419.5>
VStem: 160 10<90 262 272 303> 225 10<760 805> 499 10<760 805> 560 10<90 262 262 262 272 303 90 321>
LayerCount: 2
Fore
SplineSet
225 760 m 2
 225 805 l 2
 225 865 247 906 366 906 c 0
 485 906 509 864 509 805 c 2
 509 760 l 2
 509 700 485 660 366 660 c 0
 247 660 225 700 225 760 c 2
366 896 m 0
 259 896 235 861 235 805 c 2
 235 760 l 2
 235 704 259 670 366 670 c 0
 473 670 499 704 499 760 c 2
 499 805 l 2
 499 860 473 896 366 896 c 0
170 303 m 2
 170 272 l 1
 560 272 l 1
 560 303 l 2
 560 339 554 369 544 396 c 2
 475 559 l 2
 460 594 449 620 412 620 c 2
 314 620 l 2
 274 620 263 594 250 560 c 2xdf
 186 396 l 2
 176 369 170 339 170 303 c 2
560 90 m 1
 560 262 l 1
 170 262 l 1
 170 90 l 1
 160 90 l 1
 160 303 l 2
 160 340 166 371 177 400 c 2
 241 564 l 2
 256 601 268 630 314 630 c 2
 412 630 l 2
 456 630 468 602 484 563 c 2
 553 400 l 2
 564 371 570 340 570 303 c 2
 570 90 l 1
 560 90 l 1
EndSplineSet
Substitution2: "'ss12' Style Set 12 in Latin lookup 25 subtable" Aring.v
Substitution2: "'ss01' Style Set 1 in Latin lookup 21 subtable" Aring.v
Substitution2: "'vert' Vertical Alternates (obs) in Latin lookup 20 subtable" Aring.v
Substitution2: "'ss02' Style Set 2 in Latin lookup 5 subtable" Aring.salt
Position2: "'ss11' Style Set 11 in Latin lookup 1 per glyph data 44" dx=275 dy=0 dh=550 dv=0
EndChar

StartChar: Amacron
Encoding: 256 256 9
Width: 730
Flags: MW
HStem: 262 10<170 560 170 560> 620 10<294 412 314 412> 837 10<245 484 245 484>
VStem: 160 10<90 262 272 303> 560 10<90 262 262 262 272 303 90 321>
LayerCount: 2
Fore
SplineSet
170 303 m 2
 170 272 l 1
 560 272 l 1
 560 303 l 2
 560 339 554 369 544 396 c 2
 475 559 l 2
 460 594 449 620 412 620 c 2
 314 620 l 2
 274 620 263 594 250 560 c 2
 186 396 l 2
 176 369 170 339 170 303 c 2
560 90 m 1
 560 262 l 1
 170 262 l 1
 170 90 l 1
 160 90 l 1
 160 303 l 2
 160 340 166 371 177 400 c 2
 241 564 l 2
 256 601 268 630 314 630 c 2
 412 630 l 2
 456 630 468 602 484 563 c 2
 553 400 l 2
 564 371 570 340 570 303 c 2
 570 90 l 1
 560 90 l 1
245 847 m 1
 484 847 l 1
 484 837 l 1
 245 837 l 1
 245 847 l 1
EndSplineSet
Substitution2: "'ss12' Style Set 12 in Latin lookup 25 subtable" Amacron.v
Substitution2: "'ss01' Style Set 1 in Latin lookup 21 subtable" Amacron.v
Substitution2: "'vert' Vertical Alternates (obs) in Latin lookup 20 subtable" Amacron.v
Substitution2: "'ss02' Style Set 2 in Latin lookup 5 subtable" Amacron.salt
Position2: "'ss11' Style Set 11 in Latin lookup 1 per glyph data 44" dx=275 dy=0 dh=550 dv=0
EndChar

StartChar: Abreve
Encoding: 258 258 10
Width: 730
Flags: MW
HStem: 262 10<170 560 170 560> 620 10<294 412 314 412> 818 10<310 418 310 426>
VStem: 160 10<90 262 272 303> 224 10<898 907 880 907> 499 10<898 907 879 907> 560 10<90 262 262 262 272 303 90 321>
LayerCount: 2
Fore
SplineSet
170 303 m 2
 170 272 l 1
 560 272 l 1
 560 303 l 2
 560 339 554 369 544 396 c 2
 475 559 l 2
 460 594 449 620 412 620 c 2
 314 620 l 2
 274 620 263 594 250 560 c 2
 186 396 l 2
 176 369 170 339 170 303 c 2
560 90 m 1
 560 262 l 1
 170 262 l 1
 170 90 l 1
 160 90 l 1
 160 303 l 2
 160 340 166 371 177 400 c 2
 241 564 l 2
 256 601 268 630 314 630 c 2
 412 630 l 2
 456 630 468 602 484 563 c 2
 553 400 l 2
 564 371 570 340 570 303 c 2
 570 90 l 1
 560 90 l 1
499 907 m 1
 509 907 l 1
 509 898 l 2
 509 860 488 818 364 818 c 0
 240 818 224 860 224 898 c 2
 224 907 l 1
 234 907 l 1
 234 898 l 2
 234 862 256 828 364 828 c 0
 472 828 499 862 499 898 c 2
 499 907 l 1
EndSplineSet
Substitution2: "'ss12' Style Set 12 in Latin lookup 25 subtable" Abreve.v
Substitution2: "'ss01' Style Set 1 in Latin lookup 21 subtable" Abreve.v
Substitution2: "'vert' Vertical Alternates (obs) in Latin lookup 20 subtable" Abreve.v
Substitution2: "'ss02' Style Set 2 in Latin lookup 5 subtable" Abreve.salt
Position2: "'ss11' Style Set 11 in Latin lookup 1 per glyph data 44" dx=275 dy=0 dh=550 dv=0
EndChar

StartChar: Aogonek
Encoding: 260 260 11
Width: 730
Flags: MW
HStem: -116 10<537.5 586 562 586> 90 8<560 566 560 570> 262 10<170 560 170 560> 620 10<294 412 314 412>
VStem: 160 10<90 262 272 303> 511 10<-43 -41> 560 10<98 262 262 262 272 303 90 321>
LayerCount: 2
Fore
SplineSet
586 -106 m 1
 586 -116 l 1
 562 -116 l 2
 513 -116 503 -91 511 -41 c 2
 523 42 l 2
 528 74 532 82 560 98 c 1
 560 262 l 1
 170 262 l 1
 170 90 l 1
 160 90 l 1
 160 303 l 2
 160 340 166 371 177 400 c 2
 241 564 l 2
 256 601 268 630 314 630 c 2
 412 630 l 2
 456 630 468 602 484 563 c 2
 553 400 l 2
 564 371 570 340 570 303 c 2
 570 90 l 1
 566 90 l 1
 541 76 537 71 533 42 c 2
 521 -43 l 2
 516 -83 521 -106 562 -106 c 2
 586 -106 l 1
170 303 m 2
 170 272 l 1
 560 272 l 1
 560 303 l 2
 560 339 554 369 544 396 c 2
 475 559 l 2
 460 594 449 620 412 620 c 2
 314 620 l 2
 274 620 263 594 250 560 c 2
 186 396 l 2
 176 369 170 339 170 303 c 2
EndSplineSet
Substitution2: "'ss12' Style Set 12 in Latin lookup 25 subtable" Aogonek.v
Substitution2: "'ss01' Style Set 1 in Latin lookup 21 subtable" Aogonek.v
Substitution2: "'vert' Vertical Alternates (obs) in Latin lookup 20 subtable" Aogonek.v
Substitution2: "'ss02' Style Set 2 in Latin lookup 5 subtable" Aogonek.salt
Position2: "'ss11' Style Set 11 in Latin lookup 1 per glyph data 44" dx=275 dy=0 dh=550 dv=0
EndChar

StartChar: B
Encoding: 66 66 12
Width: 725
Flags: MW
HStem: 90 10<190 449 190 449> 359 10<190 383 383 438 190 383> 620 10<190 383 190 190>
VStem: 180 10<100 359 369 620> 504 10<460 524> 570 10<190 254>
LayerCount: 2
Fore
SplineSet
449 90 m 2
 180 90 l 1
 180 630 l 1
 383 630 l 2
 494 630 514 582 514 524 c 2
 514 460 l 2
 514 420 507 384 450 369 c 1
 561 369 580 320 580 254 c 2
 580 190 l 2
 580 131 561 90 449 90 c 2
383 620 m 2
 190 620 l 1
 190 369 l 1
 383 369 l 2
 493 369 504 412 504 460 c 2
 504 524 l 2
 504 578 484 620 383 620 c 2
450 359 m 2
 190 359 l 1
 190 100 l 1
 449 100 l 2
 549 100 570 135 570 190 c 2
 570 254 l 2
 570 314 551 359 450 359 c 2
EndSplineSet
Substitution2: "'ss12' Style Set 12 in Latin lookup 25 subtable" B.v
Substitution2: "'ss01' Style Set 1 in Latin lookup 21 subtable" B.v
Substitution2: "'vert' Vertical Alternates (obs) in Latin lookup 20 subtable" B.v
Position2: "'ss11' Style Set 11 in Latin lookup 1 per glyph data 46" dx=278 dy=0 dh=555 dv=0
EndChar

StartChar: C
Encoding: 67 67 13
Width: 628
Flags: MW
HStem: 90 10<261 493 326 493> 620 10<267 493 326 493>
VStem: 166 10<219 499>
LayerCount: 2
Fore
SplineSet
493 100 m 1
 493 90 l 1
 326 90 l 2
 196 90 166 126 166 219 c 2
 166 499 l 2
 166 594 198 630 326 630 c 2
 493 630 l 1
 493 620 l 1
 326 620 l 2
 208 620 176 588 176 499 c 2
 176 219 l 2
 176 132 206 100 326 100 c 2
 493 100 l 1
EndSplineSet
Substitution2: "'ss12' Style Set 12 in Latin lookup 25 subtable" C.v
Substitution2: "'ss01' Style Set 1 in Latin lookup 21 subtable" C.v
Substitution2: "'vert' Vertical Alternates (obs) in Latin lookup 20 subtable" C.v
Position2: "'ss11' Style Set 11 in Latin lookup 1 per glyph data 78" dx=326 dy=0 dh=652 dv=0
EndChar

StartChar: Ccedilla
Encoding: 199 199 14
Width: 628
Flags: MW
HStem: 90 10<261 493 326 394 405 493 405 405> 620 10<267 493 326 493>
VStem: 166 10<219 499>
LayerCount: 2
Fore
SplineSet
493 90 m 1
 405 90 l 1
 359 -36 l 1
 349 -36 l 1
 394 90 l 1
 326 90 l 2
 196 90 166 126 166 219 c 2
 166 499 l 2
 166 594 198 630 326 630 c 2
 493 630 l 1
 493 620 l 1
 326 620 l 2
 208 620 176 588 176 499 c 2
 176 219 l 2
 176 132 206 100 326 100 c 2
 493 100 l 1
 493 90 l 1
EndSplineSet
Substitution2: "'ss12' Style Set 12 in Latin lookup 25 subtable" Ccedilla.v
Substitution2: "'ss01' Style Set 1 in Latin lookup 21 subtable" Ccedilla.v
Substitution2: "'vert' Vertical Alternates (obs) in Latin lookup 20 subtable" Ccedilla.v
Position2: "'ss11' Style Set 11 in Latin lookup 1 per glyph data 78" dx=326 dy=0 dh=652 dv=0
EndChar

StartChar: Cacute
Encoding: 262 262 15
Width: 628
Flags: MW
HStem: 90 10<261 493 326 493> 620 10<267 493 326 493>
VStem: 166 10<219 499>
LayerCount: 2
Fore
SplineSet
493 100 m 1
 493 90 l 1
 326 90 l 2
 196 90 166 126 166 219 c 2
 166 499 l 2
 166 594 198 630 326 630 c 2
 493 630 l 1
 493 620 l 1
 326 620 l 2
 208 620 176 588 176 499 c 2
 176 219 l 2
 176 132 206 100 326 100 c 2
 493 100 l 1
255 847 m 1
 494 877 l 1
 494 867 l 1
 255 837 l 1
 255 847 l 1
EndSplineSet
Substitution2: "'ss12' Style Set 12 in Latin lookup 25 subtable" Cacute.v
Substitution2: "'ss01' Style Set 1 in Latin lookup 21 subtable" Cacute.v
Substitution2: "'vert' Vertical Alternates (obs) in Latin lookup 20 subtable" Cacute.v
Position2: "'ss11' Style Set 11 in Latin lookup 1 per glyph data 78" dx=326 dy=0 dh=652 dv=0
EndChar

StartChar: Ccircumflex
Encoding: 264 264 16
Width: 628
Flags: MW
HStem: 90 10<261 493 326 493> 620 10<267 493 326 493> 878 10<308 312>
VStem: 166 10<219 499>
LayerCount: 2
Fore
SplineSet
493 100 m 1
 493 90 l 1
 326 90 l 2
 196 90 166 126 166 219 c 2
 166 499 l 2
 166 594 198 630 326 630 c 2
 493 630 l 1
 493 620 l 1
 326 620 l 2
 208 620 176 588 176 499 c 2
 176 219 l 2
 176 132 206 100 326 100 c 2
 493 100 l 1
463 850 m 1
 376 878 l 2
 366 881 357 884 344 884 c 0
 331 884 322 881 312 878 c 2
 225 850 l 1
 225 861 l 1
 308 888 l 2
 320 891 329 894 344 894 c 0
 359 894 368 891 380 888 c 2
 463 861 l 1
 463 850 l 1
EndSplineSet
Substitution2: "'ss12' Style Set 12 in Latin lookup 25 subtable" Ccircumflex.v
Substitution2: "'ss01' Style Set 1 in Latin lookup 21 subtable" Ccircumflex.v
Substitution2: "'vert' Vertical Alternates (obs) in Latin lookup 20 subtable" Ccircumflex.v
Position2: "'ss11' Style Set 11 in Latin lookup 1 per glyph data 78" dx=326 dy=0 dh=652 dv=0
EndChar

StartChar: Cdotaccent
Encoding: 266 266 17
Width: 628
Flags: MW
HStem: 90 10<261 493 326 493> 620 10<267 493 326 493> 830 59<351 361 351 361>
VStem: 166 10<219 499> 351 10<830 889>
LayerCount: 2
Fore
SplineSet
493 100 m 1
 493 90 l 1
 326 90 l 2
 196 90 166 126 166 219 c 2
 166 499 l 2
 166 594 198 630 326 630 c 2
 493 630 l 1
 493 620 l 1
 326 620 l 2
 208 620 176 588 176 499 c 2
 176 219 l 2
 176 132 206 100 326 100 c 2
 493 100 l 1
361 830 m 1
 351 830 l 1
 351 889 l 1
 361 889 l 1
 361 830 l 1
EndSplineSet
Substitution2: "'ss12' Style Set 12 in Latin lookup 25 subtable" Cdotaccent.v
Substitution2: "'ss01' Style Set 1 in Latin lookup 21 subtable" Cdotaccent.v
Substitution2: "'vert' Vertical Alternates (obs) in Latin lookup 20 subtable" Cdotaccent.v
Position2: "'ss11' Style Set 11 in Latin lookup 1 per glyph data 78" dx=326 dy=0 dh=652 dv=0
EndChar

StartChar: Ccaron
Encoding: 268 268 18
Width: 628
Flags: MW
HStem: 90 10<261 493 326 493> 620 10<267 493 326 493> 841 10<308 312>
VStem: 166 10<219 499>
LayerCount: 2
Fore
SplineSet
493 100 m 1
 493 90 l 1
 326 90 l 2
 196 90 166 126 166 219 c 2
 166 499 l 2
 166 594 198 630 326 630 c 2
 493 630 l 1
 493 620 l 1
 326 620 l 2
 208 620 176 588 176 499 c 2
 176 219 l 2
 176 132 206 100 326 100 c 2
 493 100 l 1
225 879 m 1
 312 851 l 2
 322 848 331 845 344 845 c 0
 357 845 366 848 376 851 c 2
 463 879 l 1
 463 868 l 1
 380 841 l 2
 368 838 359 835 344 835 c 0
 329 835 320 838 308 841 c 2
 225 868 l 1
 225 879 l 1
EndSplineSet
Substitution2: "'ss12' Style Set 12 in Latin lookup 25 subtable" Ccaron.v
Substitution2: "'ss01' Style Set 1 in Latin lookup 21 subtable" Ccaron.v
Substitution2: "'vert' Vertical Alternates (obs) in Latin lookup 20 subtable" Ccaron.v
Position2: "'ss11' Style Set 11 in Latin lookup 1 per glyph data 78" dx=326 dy=0 dh=652 dv=0
EndChar

StartChar: D
Encoding: 68 68 19
Width: 746
Flags: MW
HStem: 90 10<188 420 188 420> 620 10<188 420 188 188>
VStem: 178 10<100 620 100 630> 570 10<226 491>
LayerCount: 2
Fore
SplineSet
178 90 m 1
 178 630 l 1
 420 630 l 2
 556 630 580 568 580 491 c 2
 580 226 l 2
 580 149 558 90 420 90 c 2
 178 90 l 1
420 620 m 2
 188 620 l 1
 188 100 l 1
 420 100 l 2
 548 100 570 153 570 226 c 2
 570 491 l 2
 570 564 546 620 420 620 c 2
EndSplineSet
Substitution2: "'ss12' Style Set 12 in Latin lookup 25 subtable" D.v
Substitution2: "'ss01' Style Set 1 in Latin lookup 21 subtable" D.v
Substitution2: "'vert' Vertical Alternates (obs) in Latin lookup 20 subtable" D.v
Position2: "'ss11' Style Set 11 in Latin lookup 1 per glyph data 36" dx=267 dy=0 dh=534 dv=0
EndChar

StartChar: Dcaron
Encoding: 270 270 20
Width: 746
Flags: MW
HStem: 90 10<188 420 188 420> 620 10<188 420 188 188> 841 10<336 340>
VStem: 178 10<100 620 100 630> 570 10<226 491>
LayerCount: 2
Fore
SplineSet
178 90 m 1
 178 630 l 1
 420 630 l 2
 556 630 580 568 580 491 c 2
 580 226 l 2
 580 149 558 90 420 90 c 2
 178 90 l 1
420 620 m 2
 188 620 l 1
 188 100 l 1
 420 100 l 2
 548 100 570 153 570 226 c 2
 570 491 l 2
 570 564 546 620 420 620 c 2
253 879 m 1
 340 851 l 2
 350 848 359 845 372 845 c 0
 385 845 394 848 404 851 c 2
 491 879 l 1
 491 868 l 1
 408 841 l 2
 396 838 387 835 372 835 c 0
 357 835 348 838 336 841 c 2
 253 868 l 1
 253 879 l 1
EndSplineSet
Substitution2: "'ss12' Style Set 12 in Latin lookup 25 subtable" Dcaron.v
Substitution2: "'ss01' Style Set 1 in Latin lookup 21 subtable" Dcaron.v
Substitution2: "'vert' Vertical Alternates (obs) in Latin lookup 20 subtable" Dcaron.v
Position2: "'ss11' Style Set 11 in Latin lookup 1 per glyph data 36" dx=267 dy=0 dh=534 dv=0
EndChar

StartChar: E
Encoding: 69 69 21
Width: 654
Flags: MW
HStem: 90 10<188 515 188 515> 359 10<188 434 188 434> 620 10<188 515 188 188>
VStem: 178 10<100 359 369 620>
LayerCount: 2
Fore
SplineSet
515 100 m 1
 515 90 l 1
 178 90 l 1
 178 630 l 1
 515 630 l 1
 515 620 l 1
 188 620 l 1
 188 369 l 1
 434 369 l 1
 434 359 l 1
 188 359 l 1
 188 100 l 1
 515 100 l 1
EndSplineSet
Substitution2: "'ss12' Style Set 12 in Latin lookup 25 subtable" E.v
Substitution2: "'ss01' Style Set 1 in Latin lookup 21 subtable" E.v
Substitution2: "'vert' Vertical Alternates (obs) in Latin lookup 20 subtable" E.v
Substitution2: "'ss03' Style Set 3 in Latin lookup 11 subtable" E.salt
Position2: "'ss11' Style Set 11 in Latin lookup 1 per glyph data 68" dx=313 dy=0 dh=626 dv=0
EndChar

StartChar: Egrave
Encoding: 200 200 22
Width: 654
Flags: MW
HStem: 90 10<188 515 188 515> 359 10<188 434 188 434> 620 10<188 515 188 188>
VStem: 178 10<100 359 369 620>
LayerCount: 2
Fore
SplineSet
515 100 m 1
 515 90 l 1
 178 90 l 1
 178 630 l 1
 515 630 l 1
 515 620 l 1
 188 620 l 1
 188 369 l 1
 434 369 l 1
 434 359 l 1
 188 359 l 1
 188 100 l 1
 515 100 l 1
207 867 m 1
 207 877 l 1
 446 847 l 1
 446 837 l 1
 207 867 l 1
EndSplineSet
Substitution2: "'ss12' Style Set 12 in Latin lookup 25 subtable" Egrave.v
Substitution2: "'ss01' Style Set 1 in Latin lookup 21 subtable" Egrave.v
Substitution2: "'vert' Vertical Alternates (obs) in Latin lookup 20 subtable" Egrave.v
Substitution2: "'ss03' Style Set 3 in Latin lookup 11 subtable" Egrave.salt
Position2: "'ss11' Style Set 11 in Latin lookup 1 per glyph data 68" dx=313 dy=0 dh=626 dv=0
EndChar

StartChar: Eacute
Encoding: 201 201 23
Width: 654
Flags: MW
HStem: 90 10<188 515 188 515> 359 10<188 434 188 434> 620 10<188 515 188 188>
VStem: 178 10<100 359 369 620>
LayerCount: 2
Fore
SplineSet
515 100 m 1
 515 90 l 1
 178 90 l 1
 178 630 l 1
 515 630 l 1
 515 620 l 1
 188 620 l 1
 188 369 l 1
 434 369 l 1
 434 359 l 1
 188 359 l 1
 188 100 l 1
 515 100 l 1
237 847 m 1
 476 877 l 1
 476 867 l 1
 237 837 l 1
 237 847 l 1
EndSplineSet
Substitution2: "'ss12' Style Set 12 in Latin lookup 25 subtable" Eacute.v
Substitution2: "'ss01' Style Set 1 in Latin lookup 21 subtable" Eacute.v
Substitution2: "'vert' Vertical Alternates (obs) in Latin lookup 20 subtable" Eacute.v
Substitution2: "'ss03' Style Set 3 in Latin lookup 11 subtable" Eacute.salt
Position2: "'ss11' Style Set 11 in Latin lookup 1 per glyph data 68" dx=313 dy=0 dh=626 dv=0
EndChar

StartChar: Ecircumflex
Encoding: 202 202 24
Width: 654
Flags: MW
HStem: 90 10<188 515 188 515> 359 10<188 434 188 434> 620 10<188 515 188 188> 878 10<300 304>
VStem: 178 10<100 359 369 620>
LayerCount: 2
Fore
SplineSet
515 100 m 1
 515 90 l 1
 178 90 l 1
 178 630 l 1
 515 630 l 1
 515 620 l 1
 188 620 l 1
 188 369 l 1
 434 369 l 1
 434 359 l 1
 188 359 l 1
 188 100 l 1
 515 100 l 1
455 850 m 1
 368 878 l 2
 358 881 349 884 336 884 c 0
 323 884 314 881 304 878 c 2
 217 850 l 1
 217 861 l 1
 300 888 l 2
 312 891 321 894 336 894 c 0
 351 894 360 891 372 888 c 2
 455 861 l 1
 455 850 l 1
EndSplineSet
Substitution2: "'ss12' Style Set 12 in Latin lookup 25 subtable" Ecircumflex.v
Substitution2: "'ss01' Style Set 1 in Latin lookup 21 subtable" Ecircumflex.v
Substitution2: "'vert' Vertical Alternates (obs) in Latin lookup 20 subtable" Ecircumflex.v
Substitution2: "'ss03' Style Set 3 in Latin lookup 11 subtable" Ecircumflex.salt
Position2: "'ss11' Style Set 11 in Latin lookup 1 per glyph data 68" dx=313 dy=0 dh=626 dv=0
EndChar

StartChar: Edieresis
Encoding: 203 203 25
Width: 654
Flags: MW
HStem: 90 10<188 515 188 515> 359 10<188 434 188 434> 620 10<188 515 188 188> 830 47<211 221 211 221 469 479>
VStem: 178 10<100 359 369 620> 211 10<830 877> 469 10<830 877>
LayerCount: 2
Fore
SplineSet
515 100 m 1
 515 90 l 1
 178 90 l 1
 178 630 l 1
 515 630 l 1
 515 620 l 1
 188 620 l 1
 188 369 l 1
 434 369 l 1
 434 359 l 1
 188 359 l 1
 188 100 l 1
 515 100 l 1
221 830 m 1xfe
 211 830 l 1
 211 877 l 1
 221 877 l 1
 221 830 l 1xfe
479 830 m 1
 469 830 l 1
 469 877 l 1
 479 877 l 1
 479 830 l 1
EndSplineSet
Substitution2: "'ss12' Style Set 12 in Latin lookup 25 subtable" Edieresis.v
Substitution2: "'ss01' Style Set 1 in Latin lookup 21 subtable" Edieresis.v
Substitution2: "'vert' Vertical Alternates (obs) in Latin lookup 20 subtable" Edieresis.v
Substitution2: "'ss03' Style Set 3 in Latin lookup 11 subtable" Edieresis.salt
Position2: "'ss11' Style Set 11 in Latin lookup 1 per glyph data 68" dx=313 dy=0 dh=626 dv=0
EndChar

StartChar: Emacron
Encoding: 274 274 26
Width: 654
Flags: MW
HStem: 90 10<188 515 188 515> 359 10<188 434 188 434> 620 10<188 515 188 188> 837 10<217 456 217 456>
VStem: 178 10<100 359 369 620>
LayerCount: 2
Fore
SplineSet
515 100 m 1
 515 90 l 1
 178 90 l 1
 178 630 l 1
 515 630 l 1
 515 620 l 1
 188 620 l 1
 188 369 l 1
 434 369 l 1
 434 359 l 1
 188 359 l 1
 188 100 l 1
 515 100 l 1
217 847 m 1
 456 847 l 1
 456 837 l 1
 217 837 l 1
 217 847 l 1
EndSplineSet
Substitution2: "'ss12' Style Set 12 in Latin lookup 25 subtable" Emacron.v
Substitution2: "'ss01' Style Set 1 in Latin lookup 21 subtable" Emacron.v
Substitution2: "'vert' Vertical Alternates (obs) in Latin lookup 20 subtable" Emacron.v
Substitution2: "'ss03' Style Set 3 in Latin lookup 11 subtable" Emacron.salt
Position2: "'ss11' Style Set 11 in Latin lookup 1 per glyph data 68" dx=313 dy=0 dh=626 dv=0
EndChar

StartChar: Ebreve
Encoding: 276 276 27
Width: 654
Flags: MW
HStem: 90 10<188 515 188 515> 359 10<188 434 188 434> 620 10<188 515 188 188> 818 10<292 400 292 408>
VStem: 178 10<100 359 369 620> 206 10<898 907 880 907> 481 10<898 907 879 907>
LayerCount: 2
Fore
SplineSet
515 100 m 1
 515 90 l 1
 178 90 l 1
 178 630 l 1
 515 630 l 1
 515 620 l 1
 188 620 l 1
 188 369 l 1
 434 369 l 1
 434 359 l 1
 188 359 l 1
 188 100 l 1
 515 100 l 1
481 907 m 1
 491 907 l 1
 491 898 l 2
 491 860 470 818 346 818 c 0
 222 818 206 860 206 898 c 2
 206 907 l 1
 216 907 l 1
 216 898 l 2xfe
 216 862 238 828 346 828 c 0
 454 828 481 862 481 898 c 2
 481 907 l 1
EndSplineSet
Substitution2: "'ss12' Style Set 12 in Latin lookup 25 subtable" Ebreve.v
Substitution2: "'ss01' Style Set 1 in Latin lookup 21 subtable" Ebreve.v
Substitution2: "'vert' Vertical Alternates (obs) in Latin lookup 20 subtable" Ebreve.v
Substitution2: "'ss03' Style Set 3 in Latin lookup 11 subtable" Ebreve.salt
Position2: "'ss11' Style Set 11 in Latin lookup 1 per glyph data 68" dx=313 dy=0 dh=626 dv=0
EndChar

StartChar: Edotaccent
Encoding: 278 278 28
Width: 654
Flags: MW
HStem: 90 10<188 515 188 515> 359 10<188 434 188 434> 620 10<188 515 188 188> 830 59<321 331 321 331>
VStem: 178 10<100 359 369 620> 321 10<830 889>
LayerCount: 2
Fore
SplineSet
515 100 m 1
 515 90 l 1
 178 90 l 1
 178 630 l 1
 515 630 l 1
 515 620 l 1
 188 620 l 1
 188 369 l 1
 434 369 l 1
 434 359 l 1
 188 359 l 1
 188 100 l 1
 515 100 l 1
331 830 m 1
 321 830 l 1
 321 889 l 1
 331 889 l 1
 331 830 l 1
EndSplineSet
Substitution2: "'ss12' Style Set 12 in Latin lookup 25 subtable" Edotaccent.v
Substitution2: "'ss01' Style Set 1 in Latin lookup 21 subtable" Edotaccent.v
Substitution2: "'vert' Vertical Alternates (obs) in Latin lookup 20 subtable" Edotaccent.v
Substitution2: "'ss03' Style Set 3 in Latin lookup 11 subtable" Edotaccent.salt
Position2: "'ss11' Style Set 11 in Latin lookup 1 per glyph data 68" dx=313 dy=0 dh=626 dv=0
EndChar

StartChar: Eogonek
Encoding: 280 280 29
Width: 654
Flags: MW
HStem: -116 10<466.5 515 491 515> 90 10<188 476 495 495 495 515> 359 10<188 434 188 434> 620 10<188 515 188 188>
VStem: 178 10<100 359 369 620> 440 10<-43 -41>
LayerCount: 2
Fore
SplineSet
515 -106 m 1
 515 -116 l 1
 491 -116 l 2
 442 -116 432 -91 440 -41 c 2
 452 42 l 2
 456 68 460 78 476 90 c 1
 178 90 l 1
 178 630 l 1
 515 630 l 1
 515 620 l 1
 188 620 l 1
 188 369 l 1
 434 369 l 1
 434 359 l 1
 188 359 l 1
 188 100 l 1
 515 100 l 1
 515 90 l 1
 495 90 l 1
 470 76 466 71 462 42 c 2
 450 -43 l 2
 445 -83 450 -106 491 -106 c 2
 515 -106 l 1
EndSplineSet
Substitution2: "'ss12' Style Set 12 in Latin lookup 25 subtable" Eogonek.v
Substitution2: "'ss01' Style Set 1 in Latin lookup 21 subtable" Eogonek.v
Substitution2: "'vert' Vertical Alternates (obs) in Latin lookup 20 subtable" Eogonek.v
Substitution2: "'ss03' Style Set 3 in Latin lookup 11 subtable" Eogonek.salt
Position2: "'ss11' Style Set 11 in Latin lookup 1 per glyph data 68" dx=313 dy=0 dh=626 dv=0
EndChar

StartChar: Ecaron
Encoding: 282 282 30
Width: 654
Flags: MW
HStem: 90 10<188 515 188 515> 359 10<188 434 188 434> 620 10<188 515 188 188> 841 10<307 311>
VStem: 178 10<100 359 369 620>
LayerCount: 2
Fore
SplineSet
515 100 m 1
 515 90 l 1
 178 90 l 1
 178 630 l 1
 515 630 l 1
 515 620 l 1
 188 620 l 1
 188 369 l 1
 434 369 l 1
 434 359 l 1
 188 359 l 1
 188 100 l 1
 515 100 l 1
224 879 m 1
 311 851 l 2
 321 848 330 845 343 845 c 0
 356 845 365 848 375 851 c 2
 462 879 l 1
 462 868 l 1
 379 841 l 2
 367 838 358 835 343 835 c 0
 328 835 319 838 307 841 c 2
 224 868 l 1
 224 879 l 1
EndSplineSet
Substitution2: "'ss12' Style Set 12 in Latin lookup 25 subtable" Ecaron.v
Substitution2: "'ss01' Style Set 1 in Latin lookup 21 subtable" Ecaron.v
Substitution2: "'vert' Vertical Alternates (obs) in Latin lookup 20 subtable" Ecaron.v
Substitution2: "'ss03' Style Set 3 in Latin lookup 11 subtable" Ecaron.salt
Position2: "'ss11' Style Set 11 in Latin lookup 1 per glyph data 68" dx=313 dy=0 dh=626 dv=0
EndChar

StartChar: F
Encoding: 70 70 31
Width: 618
Flags: MW
HStem: 324 10<188 416 188 416> 620 10<188 497 188 188>
VStem: 178 10<90 324 334 620>
LayerCount: 2
Fore
SplineSet
178 90 m 1
 178 630 l 1
 497 630 l 1
 497 620 l 1
 188 620 l 1
 188 334 l 1
 416 334 l 1
 416 324 l 1
 188 324 l 1
 188 90 l 1
 178 90 l 1
EndSplineSet
Substitution2: "'ss12' Style Set 12 in Latin lookup 25 subtable" F.v
Substitution2: "'ss01' Style Set 1 in Latin lookup 21 subtable" F.v
Substitution2: "'vert' Vertical Alternates (obs) in Latin lookup 20 subtable" F.v
Position2: "'ss11' Style Set 11 in Latin lookup 1 per glyph data 81" dx=331 dy=0 dh=662 dv=0
EndChar

StartChar: G
Encoding: 71 71 32
Width: 708
Flags: MW
HStem: 90 10<273.5 536 347 536 347 546> 620 10<268 500 327 500>
VStem: 167 10<219 499> 536 10<100 291 90 291>
LayerCount: 2
Fore
SplineSet
347 90 m 2
 200 90 167 126 167 219 c 2
 167 499 l 2
 167 594 199 630 327 630 c 2
 500 630 l 1
 500 620 l 1
 327 620 l 2
 209 620 177 588 177 499 c 2
 177 219 l 2
 177 132 212 100 347 100 c 2
 536 100 l 1
 536 291 l 1
 546 291 l 1
 546 90 l 1
 347 90 l 2
EndSplineSet
Substitution2: "'ss12' Style Set 12 in Latin lookup 25 subtable" G.v
Substitution2: "'ss01' Style Set 1 in Latin lookup 21 subtable" G.v
Substitution2: "'vert' Vertical Alternates (obs) in Latin lookup 20 subtable" G.v
Position2: "'ss11' Style Set 11 in Latin lookup 1 per glyph data 55" dx=286 dy=0 dh=572 dv=0
EndChar

StartChar: Gcircumflex
Encoding: 284 284 33
Width: 708
Flags: MW
HStem: 90 10<273.5 536 347 536 347 546> 620 10<268 500 327 500> 878 10<344 348>
VStem: 167 10<219 499> 536 10<100 291 90 291>
LayerCount: 2
Fore
SplineSet
347 90 m 2
 200 90 167 126 167 219 c 2
 167 499 l 2
 167 594 199 630 327 630 c 2
 500 630 l 1
 500 620 l 1
 327 620 l 2
 209 620 177 588 177 499 c 2
 177 219 l 2
 177 132 212 100 347 100 c 2
 536 100 l 1
 536 291 l 1
 546 291 l 1
 546 90 l 1
 347 90 l 2
499 850 m 1
 412 878 l 2
 402 881 393 884 380 884 c 0
 367 884 358 881 348 878 c 2
 261 850 l 1
 261 861 l 1
 344 888 l 2
 356 891 365 894 380 894 c 0
 395 894 404 891 416 888 c 2
 499 861 l 1
 499 850 l 1
EndSplineSet
Substitution2: "'ss12' Style Set 12 in Latin lookup 25 subtable" Gcircumflex.v
Substitution2: "'ss01' Style Set 1 in Latin lookup 21 subtable" Gcircumflex.v
Substitution2: "'vert' Vertical Alternates (obs) in Latin lookup 20 subtable" Gcircumflex.v
Position2: "'ss11' Style Set 11 in Latin lookup 1 per glyph data 55" dx=286 dy=0 dh=572 dv=0
EndChar

StartChar: Gbreve
Encoding: 286 286 34
Width: 708
Flags: MW
HStem: 90 10<273.5 536 347 536 347 546> 620 10<268 500 327 500> 818 10<319 427 319 435>
VStem: 167 10<219 499> 233 10<898 907 880 907> 508 10<898 907 879 907> 536 10<100 291 90 291>
LayerCount: 2
Fore
SplineSet
347 90 m 2
 200 90 167 126 167 219 c 2
 167 499 l 2
 167 594 199 630 327 630 c 2
 500 630 l 1
 500 620 l 1
 327 620 l 2
 209 620 177 588 177 499 c 2
 177 219 l 2
 177 132 212 100 347 100 c 2
 536 100 l 1
 536 291 l 1
 546 291 l 1
 546 90 l 1
 347 90 l 2
508 907 m 1xfe
 518 907 l 1
 518 898 l 2
 518 860 497 818 373 818 c 0
 249 818 233 860 233 898 c 2
 233 907 l 1
 243 907 l 1
 243 898 l 2
 243 862 265 828 373 828 c 0
 481 828 508 862 508 898 c 2
 508 907 l 1xfe
EndSplineSet
Substitution2: "'ss12' Style Set 12 in Latin lookup 25 subtable" Gbreve.v
Substitution2: "'ss01' Style Set 1 in Latin lookup 21 subtable" Gbreve.v
Substitution2: "'vert' Vertical Alternates (obs) in Latin lookup 20 subtable" Gbreve.v
Position2: "'ss11' Style Set 11 in Latin lookup 1 per glyph data 55" dx=286 dy=0 dh=572 dv=0
EndChar

StartChar: Gdotaccent
Encoding: 288 288 35
Width: 708
Flags: MW
HStem: 90 10<273.5 536 347 536 347 546> 620 10<268 500 327 500> 830 59<370 380 370 380>
VStem: 167 10<219 499> 370 10<830 889> 536 10<100 291 90 291>
LayerCount: 2
Fore
SplineSet
347 90 m 2
 200 90 167 126 167 219 c 2
 167 499 l 2
 167 594 199 630 327 630 c 2
 500 630 l 1
 500 620 l 1
 327 620 l 2
 209 620 177 588 177 499 c 2
 177 219 l 2
 177 132 212 100 347 100 c 2
 536 100 l 1
 536 291 l 1
 546 291 l 1
 546 90 l 1
 347 90 l 2
380 830 m 1
 370 830 l 1
 370 889 l 1
 380 889 l 1
 380 830 l 1
EndSplineSet
Substitution2: "'ss12' Style Set 12 in Latin lookup 25 subtable" Gdotaccent.v
Substitution2: "'ss01' Style Set 1 in Latin lookup 21 subtable" Gdotaccent.v
Substitution2: "'vert' Vertical Alternates (obs) in Latin lookup 20 subtable" Gdotaccent.v
Position2: "'ss11' Style Set 11 in Latin lookup 1 per glyph data 55" dx=286 dy=0 dh=572 dv=0
EndChar

StartChar: Gcommaaccent
Encoding: 290 290 36
Width: 708
Flags: MW
HStem: -315 10<315 350 315 350> -142 10<315 423 315 433> 90 10<273.5 536 347 536 347 546> 620 10<268 500 327 500>
VStem: 167 10<219 499> 423 10<-229 -142 -142 -142> 536 10<100 291 90 291>
LayerCount: 2
Fore
SplineSet
347 90 m 2
 200 90 167 126 167 219 c 2
 167 499 l 2
 167 594 199 630 327 630 c 2
 500 630 l 1
 500 620 l 1
 327 620 l 2
 209 620 177 588 177 499 c 2
 177 219 l 2
 177 132 212 100 347 100 c 2
 536 100 l 1
 536 291 l 1
 546 291 l 1
 546 90 l 1
 347 90 l 2
433 -132 m 1
 433 -229 l 2
 433 -290 404 -315 350 -315 c 2
 315 -315 l 1
 315 -305 l 1
 350 -305 l 2
 398 -305 423 -283 423 -229 c 2
 423 -142 l 1
 315 -142 l 1
 315 -132 l 1
 433 -132 l 1
EndSplineSet
Substitution2: "'ss12' Style Set 12 in Latin lookup 25 subtable" Gcommaaccent.v
Substitution2: "'ss01' Style Set 1 in Latin lookup 21 subtable" Gcommaaccent.v
Substitution2: "'vert' Vertical Alternates (obs) in Latin lookup 20 subtable" Gcommaaccent.v
Position2: "'ss11' Style Set 11 in Latin lookup 1 per glyph data 55" dx=286 dy=0 dh=572 dv=0
EndChar

StartChar: H
Encoding: 72 72 37
Width: 759
Flags: MW
HStem: 355 10<187 571 187 571>
VStem: 177 10<90 355 365 630> 571 10<90 355 355 355 365 630 90 630>
LayerCount: 2
Fore
SplineSet
177 90 m 1
 177 630 l 1
 187 630 l 1
 187 365 l 1
 571 365 l 1
 571 630 l 1
 581 630 l 1
 581 90 l 1
 571 90 l 1
 571 355 l 1
 187 355 l 1
 187 90 l 1
 177 90 l 1
EndSplineSet
Substitution2: "'ss12' Style Set 12 in Latin lookup 25 subtable" H.v
Substitution2: "'ss01' Style Set 1 in Latin lookup 21 subtable" H.v
Substitution2: "'vert' Vertical Alternates (obs) in Latin lookup 20 subtable" H.v
Position2: "'ss11' Style Set 11 in Latin lookup 1 per glyph data 31" dx=261 dy=0 dh=521 dv=0
EndChar

StartChar: Hcircumflex
Encoding: 292 292 38
Width: 759
Flags: MW
HStem: 355 10<187 571 187 571> 878 10<342 346>
VStem: 177 10<90 355 365 630> 571 10<90 355 355 355 365 630 90 630>
LayerCount: 2
Fore
SplineSet
177 90 m 1
 177 630 l 1
 187 630 l 1
 187 365 l 1
 571 365 l 1
 571 630 l 1
 581 630 l 1
 581 90 l 1
 571 90 l 1
 571 355 l 1
 187 355 l 1
 187 90 l 1
 177 90 l 1
497 850 m 1
 410 878 l 2
 400 881 391 884 378 884 c 0
 365 884 356 881 346 878 c 2
 259 850 l 1
 259 861 l 1
 342 888 l 2
 354 891 363 894 378 894 c 0
 393 894 402 891 414 888 c 2
 497 861 l 1
 497 850 l 1
EndSplineSet
Substitution2: "'ss12' Style Set 12 in Latin lookup 25 subtable" Hcircumflex.v
Substitution2: "'ss01' Style Set 1 in Latin lookup 21 subtable" Hcircumflex.v
Substitution2: "'vert' Vertical Alternates (obs) in Latin lookup 20 subtable" Hcircumflex.v
Position2: "'ss11' Style Set 11 in Latin lookup 1 per glyph data 31" dx=261 dy=0 dh=521 dv=0
EndChar

StartChar: I
Encoding: 73 73 39
Width: 605
Flags: MW
HStem: 90 10<143 298 308 461 143 298> 620 10<143 298 143 461 308 308 308 461>
VStem: 298 10<100 620 100 620>
LayerCount: 2
Fore
SplineSet
461 90 m 1
 143 90 l 1
 143 100 l 1
 298 100 l 1
 298 620 l 1
 143 620 l 1
 143 630 l 1
 461 630 l 1
 461 620 l 1
 308 620 l 1
 308 100 l 1
 461 100 l 1
 461 90 l 1
EndSplineSet
Substitution2: "'ss12' Style Set 12 in Latin lookup 25 subtable" I.v
Substitution2: "'ss01' Style Set 1 in Latin lookup 21 subtable" I.v
Substitution2: "'vert' Vertical Alternates (obs) in Latin lookup 20 subtable" I.v
Substitution2: "'ss04' Style Set 4 in Latin lookup 12 subtable" I.salt
Position2: "'ss11' Style Set 11 in Latin lookup 1 per glyph data 84" dx=338 dy=0 dh=675 dv=0
EndChar

StartChar: Igrave
Encoding: 204 204 40
Width: 605
Flags: MW
HStem: 90 10<143 298 308 461 143 298> 620 10<143 298 143 461 308 308 308 461>
VStem: 298 10<100 620 100 620>
LayerCount: 2
Fore
SplineSet
461 90 m 1
 143 90 l 1
 143 100 l 1
 298 100 l 1
 298 620 l 1
 143 620 l 1
 143 630 l 1
 461 630 l 1
 461 620 l 1
 308 620 l 1
 308 100 l 1
 461 100 l 1
 461 90 l 1
182 867 m 1
 182 877 l 1
 421 847 l 1
 421 837 l 1
 182 867 l 1
EndSplineSet
Substitution2: "'ss12' Style Set 12 in Latin lookup 25 subtable" Igrave.v
Substitution2: "'ss01' Style Set 1 in Latin lookup 21 subtable" Igrave.v
Substitution2: "'vert' Vertical Alternates (obs) in Latin lookup 20 subtable" Igrave.v
Substitution2: "'ss04' Style Set 4 in Latin lookup 12 subtable" Igrave.salt
Position2: "'ss11' Style Set 11 in Latin lookup 1 per glyph data 84" dx=338 dy=0 dh=675 dv=0
EndChar

StartChar: Iacute
Encoding: 205 205 41
Width: 605
Flags: MW
HStem: 90 10<143 298 308 461 143 298> 620 10<143 298 143 461 308 308 308 461>
VStem: 298 10<100 620 100 620>
LayerCount: 2
Fore
SplineSet
461 90 m 1
 143 90 l 1
 143 100 l 1
 298 100 l 1
 298 620 l 1
 143 620 l 1
 143 630 l 1
 461 630 l 1
 461 620 l 1
 308 620 l 1
 308 100 l 1
 461 100 l 1
 461 90 l 1
182 847 m 1
 421 877 l 1
 421 867 l 1
 182 837 l 1
 182 847 l 1
EndSplineSet
Substitution2: "'ss12' Style Set 12 in Latin lookup 25 subtable" Iacute.v
Substitution2: "'ss01' Style Set 1 in Latin lookup 21 subtable" Iacute.v
Substitution2: "'vert' Vertical Alternates (obs) in Latin lookup 20 subtable" Iacute.v
Substitution2: "'ss04' Style Set 4 in Latin lookup 12 subtable" Iacute.salt
Position2: "'ss11' Style Set 11 in Latin lookup 1 per glyph data 84" dx=338 dy=0 dh=675 dv=0
EndChar

StartChar: Icircumflex
Encoding: 206 206 42
Width: 605
Flags: MW
HStem: 90 10<143 298 308 461 143 298> 620 10<143 298 143 461 308 308 308 461> 878 10<265 269>
VStem: 298 10<100 620 100 620>
LayerCount: 2
Fore
SplineSet
461 90 m 1
 143 90 l 1
 143 100 l 1
 298 100 l 1
 298 620 l 1
 143 620 l 1
 143 630 l 1
 461 630 l 1
 461 620 l 1
 308 620 l 1
 308 100 l 1
 461 100 l 1
 461 90 l 1
420 850 m 1
 333 878 l 2
 323 881 314 884 301 884 c 0
 288 884 279 881 269 878 c 2
 182 850 l 1
 182 861 l 1
 265 888 l 2
 277 891 286 894 301 894 c 0
 316 894 325 891 337 888 c 2
 420 861 l 1
 420 850 l 1
EndSplineSet
Substitution2: "'ss12' Style Set 12 in Latin lookup 25 subtable" Icircumflex.v
Substitution2: "'ss01' Style Set 1 in Latin lookup 21 subtable" Icircumflex.v
Substitution2: "'vert' Vertical Alternates (obs) in Latin lookup 20 subtable" Icircumflex.v
Substitution2: "'ss04' Style Set 4 in Latin lookup 12 subtable" Icircumflex.salt
Position2: "'ss11' Style Set 11 in Latin lookup 1 per glyph data 84" dx=338 dy=0 dh=675 dv=0
EndChar

StartChar: Idieresis
Encoding: 207 207 43
Width: 605
Flags: MW
HStem: 90 10<143 298 308 461 143 298> 620 10<143 298 143 461 308 308 308 461> 830 47<166 176 166 176 424 434>
VStem: 166 10<830 877> 298 10<100 620 100 620> 424 10<830 877>
LayerCount: 2
Fore
SplineSet
461 90 m 1
 143 90 l 1
 143 100 l 1
 298 100 l 1
 298 620 l 1
 143 620 l 1
 143 630 l 1
 461 630 l 1
 461 620 l 1
 308 620 l 1
 308 100 l 1
 461 100 l 1
 461 90 l 1
176 830 m 1
 166 830 l 1
 166 877 l 1
 176 877 l 1
 176 830 l 1
434 830 m 1
 424 830 l 1
 424 877 l 1
 434 877 l 1
 434 830 l 1
EndSplineSet
Substitution2: "'ss12' Style Set 12 in Latin lookup 25 subtable" Idieresis.v
Substitution2: "'ss01' Style Set 1 in Latin lookup 21 subtable" Idieresis.v
Substitution2: "'vert' Vertical Alternates (obs) in Latin lookup 20 subtable" Idieresis.v
Substitution2: "'ss04' Style Set 4 in Latin lookup 12 subtable" Idieresis.salt
Position2: "'ss11' Style Set 11 in Latin lookup 1 per glyph data 84" dx=338 dy=0 dh=675 dv=0
EndChar

StartChar: Itilde
Encoding: 296 296 44
Width: 605
Flags: MW
HStem: 90 10<143 298 308 461 143 298> 620 10<143 298 143 461 308 308 308 461> 831 10<420 420> 843 10
VStem: 298 10<100 620 100 620>
LayerCount: 2
Fore
SplineSet
461 90 m 1
 143 90 l 1
 143 100 l 1
 298 100 l 1
 298 620 l 1
 143 620 l 1
 143 630 l 1
 461 630 l 1
 461 620 l 1
 308 620 l 1
 308 100 l 1
 461 100 l 1
 461 90 l 1
420 841 m 1
 420 831 l 1
 393 828 367 831 316 839 c 2xe8
 300 841 l 1
 272 845 l 2
 228 852 204 853 182 849 c 1
 182 860 l 1
 205 863 229 861 274 855 c 2
 302 851 l 1
 318 849 l 2
 369 841 393 838 420 841 c 1
EndSplineSet
Substitution2: "'ss12' Style Set 12 in Latin lookup 25 subtable" Itilde.v
Substitution2: "'ss01' Style Set 1 in Latin lookup 21 subtable" Itilde.v
Substitution2: "'vert' Vertical Alternates (obs) in Latin lookup 20 subtable" Itilde.v
Substitution2: "'ss04' Style Set 4 in Latin lookup 12 subtable" Itilde.salt
Position2: "'ss11' Style Set 11 in Latin lookup 1 per glyph data 84" dx=338 dy=0 dh=675 dv=0
EndChar

StartChar: Imacron
Encoding: 298 298 45
Width: 605
Flags: MW
HStem: 90 10<143 298 308 461 143 298> 620 10<143 298 143 461 308 308 308 461> 837 10<182 421 182 421>
VStem: 298 10<100 620 100 620>
LayerCount: 2
Fore
SplineSet
461 90 m 1
 143 90 l 1
 143 100 l 1
 298 100 l 1
 298 620 l 1
 143 620 l 1
 143 630 l 1
 461 630 l 1
 461 620 l 1
 308 620 l 1
 308 100 l 1
 461 100 l 1
 461 90 l 1
182 847 m 1
 421 847 l 1
 421 837 l 1
 182 837 l 1
 182 847 l 1
EndSplineSet
Substitution2: "'ss12' Style Set 12 in Latin lookup 25 subtable" Imacron.v
Substitution2: "'ss01' Style Set 1 in Latin lookup 21 subtable" Imacron.v
Substitution2: "'vert' Vertical Alternates (obs) in Latin lookup 20 subtable" Imacron.v
Substitution2: "'ss04' Style Set 4 in Latin lookup 12 subtable" Imacron.salt
Position2: "'ss11' Style Set 11 in Latin lookup 1 per glyph data 84" dx=338 dy=0 dh=675 dv=0
EndChar

StartChar: Ibreve
Encoding: 300 300 46
Width: 605
Flags: MW
HStem: 90 10<143 298 308 461 143 298> 620 10<143 298 143 461 308 308 308 461> 818 10<247 355 247 363>
VStem: 161 10<898 907 880 907> 298 10<100 620 100 620> 436 10<898 907 879 907>
LayerCount: 2
Fore
SplineSet
461 90 m 1
 143 90 l 1
 143 100 l 1
 298 100 l 1
 298 620 l 1
 143 620 l 1
 143 630 l 1
 461 630 l 1
 461 620 l 1
 308 620 l 1
 308 100 l 1
 461 100 l 1
 461 90 l 1
436 907 m 1
 446 907 l 1
 446 898 l 2
 446 860 425 818 301 818 c 0
 177 818 161 860 161 898 c 2
 161 907 l 1
 171 907 l 1
 171 898 l 2
 171 862 193 828 301 828 c 0
 409 828 436 862 436 898 c 2
 436 907 l 1
EndSplineSet
Substitution2: "'ss12' Style Set 12 in Latin lookup 25 subtable" Ibreve.v
Substitution2: "'ss01' Style Set 1 in Latin lookup 21 subtable" Ibreve.v
Substitution2: "'vert' Vertical Alternates (obs) in Latin lookup 20 subtable" Ibreve.v
Substitution2: "'ss04' Style Set 4 in Latin lookup 12 subtable" Ibreve.salt
Position2: "'ss11' Style Set 11 in Latin lookup 1 per glyph data 84" dx=338 dy=0 dh=675 dv=0
EndChar

StartChar: Iogonek
Encoding: 302 302 47
Width: 605
Flags: MW
HStem: -116 10<412.5 461 437 461> 90 10<143 298 308 422 143 298 441 441 441 461> 620 10<143 298 143 461 308 308 308 461>
VStem: 298 10<100 620 100 620> 386 10<-43 -41>
LayerCount: 2
Fore
SplineSet
461 -106 m 1
 461 -116 l 1
 437 -116 l 2
 388 -116 378 -91 386 -41 c 2
 398 42 l 2
 402 68 406 78 422 90 c 1
 143 90 l 1
 143 100 l 1
 298 100 l 1
 298 620 l 1
 143 620 l 1
 143 630 l 1
 461 630 l 1
 461 620 l 1
 308 620 l 1
 308 100 l 1
 461 100 l 1
 461 90 l 1
 441 90 l 1
 416 76 412 71 408 42 c 2
 396 -43 l 2
 391 -83 396 -106 437 -106 c 2
 461 -106 l 1
EndSplineSet
Substitution2: "'ss12' Style Set 12 in Latin lookup 25 subtable" Iogonek.v
Substitution2: "'ss01' Style Set 1 in Latin lookup 21 subtable" Iogonek.v
Substitution2: "'vert' Vertical Alternates (obs) in Latin lookup 20 subtable" Iogonek.v
Substitution2: "'ss04' Style Set 4 in Latin lookup 12 subtable" Iogonek.salt
Position2: "'ss11' Style Set 11 in Latin lookup 1 per glyph data 84" dx=338 dy=0 dh=675 dv=0
EndChar

StartChar: Idotaccent
Encoding: 304 304 48
Width: 605
Flags: MW
HStem: 90 10<143 298 308 461 143 298> 620 10<143 298 143 461 308 308 308 461> 830 59<298 308 298 308>
VStem: 298 10<100 620 100 620 830 889>
LayerCount: 2
Fore
SplineSet
461 90 m 1
 143 90 l 1
 143 100 l 1
 298 100 l 1
 298 620 l 1
 143 620 l 1
 143 630 l 1
 461 630 l 1
 461 620 l 1
 308 620 l 1
 308 100 l 1
 461 100 l 1
 461 90 l 1
308 830 m 1
 298 830 l 1
 298 889 l 1
 308 889 l 1
 308 830 l 1
EndSplineSet
Substitution2: "'ss12' Style Set 12 in Latin lookup 25 subtable" Idotaccent.v
Substitution2: "'ss01' Style Set 1 in Latin lookup 21 subtable" Idotaccent.v
Substitution2: "'vert' Vertical Alternates (obs) in Latin lookup 20 subtable" Idotaccent.v
Substitution2: "'ss04' Style Set 4 in Latin lookup 12 subtable" Idotaccent.salt
Position2: "'ss11' Style Set 11 in Latin lookup 1 per glyph data 84" dx=338 dy=0 dh=675 dv=0
EndChar

StartChar: J
Encoding: 74 74 49
Width: 688
Flags: MW
HStem: 78 10<264 399 264 404>
VStem: 145 10<213 292> 504 10<213 630>
LayerCount: 2
Fore
SplineSet
504 630 m 1
 514 630 l 1
 514 213 l 2
 514 134 475 78 333 78 c 0
 183 78 145 133 145 213 c 2
 145 292 l 1
 155 292 l 1
 155 213 l 2
 155 137 195 88 333 88 c 0
 465 88 504 138 504 213 c 2
 504 630 l 1
EndSplineSet
Substitution2: "'ss12' Style Set 12 in Latin lookup 25 subtable" J.v
Substitution2: "'ss01' Style Set 1 in Latin lookup 21 subtable" J.v
Substitution2: "'vert' Vertical Alternates (obs) in Latin lookup 20 subtable" J.v
Position2: "'ss11' Style Set 11 in Latin lookup 1 per glyph data 62" dx=296 dy=0 dh=592 dv=0
EndChar

StartChar: Jcircumflex
Encoding: 308 308 50
Width: 688
Flags: MW
HStem: 78 10<264 399 264 404> 878 10<465 469>
VStem: 145 10<213 292> 504 10<213 630>
LayerCount: 2
Fore
SplineSet
504 630 m 1
 514 630 l 1
 514 213 l 2
 514 134 475 78 333 78 c 0
 183 78 145 133 145 213 c 2
 145 292 l 1
 155 292 l 1
 155 213 l 2
 155 137 195 88 333 88 c 0
 465 88 504 138 504 213 c 2
 504 630 l 1
620 850 m 1
 533 878 l 2
 523 881 514 884 501 884 c 0
 488 884 479 881 469 878 c 2
 382 850 l 1
 382 861 l 1
 465 888 l 2
 477 891 486 894 501 894 c 0
 516 894 525 891 537 888 c 2
 620 861 l 1
 620 850 l 1
EndSplineSet
Substitution2: "'ss12' Style Set 12 in Latin lookup 25 subtable" Jcircumflex.v
Substitution2: "'ss01' Style Set 1 in Latin lookup 21 subtable" Jcircumflex.v
Substitution2: "'vert' Vertical Alternates (obs) in Latin lookup 20 subtable" Jcircumflex.v
Position2: "'ss11' Style Set 11 in Latin lookup 1 per glyph data 62" dx=296 dy=0 dh=592 dv=0
EndChar

StartChar: K
Encoding: 75 75 51
Width: 746
Flags: MW
HStem: 354 10<188 405 416 457 188 405>
VStem: 178 10<90 354 364 630> 568 10<90 266 90 298>
LayerCount: 2
Fore
SplineSet
188 90 m 1
 178 90 l 1
 178 630 l 1
 188 630 l 1
 188 364 l 1
 405 364 l 1
 520 630 l 1
 531 630 l 1
 416 364 l 1
 457 364 l 2
 539 364 578 336 578 266 c 2
 578 90 l 1
 568 90 l 1
 568 266 l 2
 568 330 531 354 457 354 c 2
 188 354 l 1
 188 90 l 1
EndSplineSet
Substitution2: "'ss12' Style Set 12 in Latin lookup 25 subtable" K.v
Substitution2: "'ss01' Style Set 1 in Latin lookup 21 subtable" K.v
Substitution2: "'vert' Vertical Alternates (obs) in Latin lookup 20 subtable" K.v
Position2: "'ss11' Style Set 11 in Latin lookup 1 per glyph data 36" dx=267 dy=0 dh=534 dv=0
EndChar

StartChar: Kcommaaccent
Encoding: 310 310 52
Width: 746
Flags: MW
HStem: -315 10<314 349 314 349> -142 10<314 422 314 432> 354 10<188 405 416 457 188 405>
VStem: 178 10<90 354 364 630> 422 10<-229 -142 -142 -142> 568 10<90 266 90 298>
LayerCount: 2
Fore
SplineSet
188 90 m 1
 178 90 l 1
 178 630 l 1
 188 630 l 1
 188 364 l 1
 405 364 l 1
 520 630 l 1
 531 630 l 1
 416 364 l 1
 457 364 l 2
 539 364 578 336 578 266 c 2
 578 90 l 1
 568 90 l 1
 568 266 l 2
 568 330 531 354 457 354 c 2
 188 354 l 1
 188 90 l 1
432 -132 m 1
 432 -229 l 2
 432 -290 403 -315 349 -315 c 2
 314 -315 l 1
 314 -305 l 1
 349 -305 l 2
 397 -305 422 -283 422 -229 c 2
 422 -142 l 1
 314 -142 l 1
 314 -132 l 1
 432 -132 l 1
EndSplineSet
Substitution2: "'ss12' Style Set 12 in Latin lookup 25 subtable" Kcommaaccent.v
Substitution2: "'ss01' Style Set 1 in Latin lookup 21 subtable" Kcommaaccent.v
Substitution2: "'vert' Vertical Alternates (obs) in Latin lookup 20 subtable" Kcommaaccent.v
Position2: "'ss11' Style Set 11 in Latin lookup 1 per glyph data 36" dx=267 dy=0 dh=534 dv=0
EndChar

StartChar: L
Encoding: 76 76 53
Width: 695
Flags: MW
HStem: 90 10<188 536 188 546>
VStem: 178 10<100 630 100 630 100 630> 536 10<100 297 90 297>
LayerCount: 2
Fore
SplineSet
178 90 m 1
 178 630 l 1
 188 630 l 1
 188 100 l 1
 536 100 l 1
 536 297 l 1
 546 297 l 1
 546 90 l 1
 178 90 l 1
EndSplineSet
Substitution2: "Single Substitution lookup 26 subtable" Ldot
Substitution2: "'ss12' Style Set 12 in Latin lookup 25 subtable" L.v
Substitution2: "'ss01' Style Set 1 in Latin lookup 21 subtable" L.v
Substitution2: "'vert' Vertical Alternates (obs) in Latin lookup 20 subtable" L.v
Substitution2: "'ss05' Style Set 5 in Latin lookup 13 subtable" L.salt
Position2: "'ss11' Style Set 11 in Latin lookup 1 per glyph data 59" dx=293 dy=0 dh=585 dv=0
EndChar

StartChar: Lacute
Encoding: 313 313 54
Width: 695
Flags: MW
HStem: 90 10<188 536 188 546>
VStem: 178 10<100 630 100 630 100 630> 536 10<100 297 90 297>
LayerCount: 2
Fore
SplineSet
178 90 m 1
 178 630 l 1
 188 630 l 1
 188 100 l 1
 536 100 l 1
 536 297 l 1
 546 297 l 1
 546 90 l 1
 178 90 l 1
159 847 m 1
 398 877 l 1
 398 867 l 1
 159 837 l 1
 159 847 l 1
EndSplineSet
Substitution2: "'ss12' Style Set 12 in Latin lookup 25 subtable" Lacute.v
Substitution2: "'ss01' Style Set 1 in Latin lookup 21 subtable" Lacute.v
Substitution2: "'vert' Vertical Alternates (obs) in Latin lookup 20 subtable" Lacute.v
Substitution2: "'ss05' Style Set 5 in Latin lookup 13 subtable" Lacute.salt
Position2: "'ss11' Style Set 11 in Latin lookup 1 per glyph data 59" dx=293 dy=0 dh=585 dv=0
EndChar

StartChar: Lcommaaccent
Encoding: 315 315 55
Width: 695
Flags: MW
HStem: -315 10<305 340 305 340> -142 10<305 413 305 423> 90 10<188 536 188 546>
VStem: 178 10<100 630 100 630 100 630> 413 10<-229 -142 -142 -142> 536 10<100 297 90 297>
LayerCount: 2
Fore
SplineSet
178 90 m 1
 178 630 l 1
 188 630 l 1
 188 100 l 1
 536 100 l 1
 536 297 l 1
 546 297 l 1
 546 90 l 1
 178 90 l 1
423 -132 m 1
 423 -229 l 2
 423 -290 394 -315 340 -315 c 2
 305 -315 l 1
 305 -305 l 1
 340 -305 l 2
 388 -305 413 -283 413 -229 c 2
 413 -142 l 1
 305 -142 l 1
 305 -132 l 1
 423 -132 l 1
EndSplineSet
Substitution2: "'ss12' Style Set 12 in Latin lookup 25 subtable" Lcommaaccent.v
Substitution2: "'ss01' Style Set 1 in Latin lookup 21 subtable" Lcommaaccent.v
Substitution2: "'vert' Vertical Alternates (obs) in Latin lookup 20 subtable" Lcommaaccent.v
Substitution2: "'ss05' Style Set 5 in Latin lookup 13 subtable" Lcommaaccent.salt
Position2: "'ss11' Style Set 11 in Latin lookup 1 per glyph data 59" dx=293 dy=0 dh=585 dv=0
EndChar

StartChar: Lcaron
Encoding: 317 317 56
Width: 695
Flags: MW
HStem: 90 10<188 536 188 546> 537 93
VStem: 178 10<100 630 100 630 100 630> 536 10<100 297 90 297>
LayerCount: 2
Fore
SplineSet
178 90 m 1
 178 630 l 1
 188 630 l 1
 188 100 l 1
 536 100 l 1
 536 297 l 1
 546 297 l 1
 546 90 l 1
 178 90 l 1
514 537 m 1
 503 537 l 1
 521 630 l 1
 532 630 l 1
 514 537 l 1
EndSplineSet
Substitution2: "'ss12' Style Set 12 in Latin lookup 25 subtable" Lcaron.v
Substitution2: "'ss01' Style Set 1 in Latin lookup 21 subtable" Lcaron.v
Substitution2: "'vert' Vertical Alternates (obs) in Latin lookup 20 subtable" Lcaron.v
Substitution2: "'ss05' Style Set 5 in Latin lookup 13 subtable" Lcaron.salt
Position2: "'ss11' Style Set 11 in Latin lookup 1 per glyph data 59" dx=293 dy=0 dh=585 dv=0
EndChar

StartChar: M
Encoding: 77 77 57
Width: 849
Flags: MW
HStem: 375 10<409 433 409 435.5> 620 10<194 218 201 216 623 625 625 640>
VStem: 175 10<90 599 90 610> 657 10<90 599 90 604.5>
LayerCount: 2
Fore
SplineSet
421 385 m 0
 445 385 449 392 472 427 c 2
 594 613 l 2
 602 626 612 630 623 630 c 2
 640 630 l 2
 659 630 667 621 667 599 c 2
 667 90 l 1
 657 90 l 1
 657 599 l 2
 657 610 654 620 640 620 c 2
 625 620 l 2
 616 620 610 619 602 606 c 2
 480 422 l 2
 456 386 450 375 421 375 c 0
 392 375 386 386 362 422 c 2
 240 606 l 2
 232 619 225 620 216 620 c 2
 201 620 l 2
 187 620 185 610 185 599 c 2
 185 90 l 1
 175 90 l 1
 175 599 l 2
 175 621 183 630 201 630 c 2
 218 630 l 2
 229 630 240 626 248 613 c 2
 370 427 l 2
 393 392 397 385 421 385 c 0
EndSplineSet
Substitution2: "'ss12' Style Set 12 in Latin lookup 25 subtable" M.v
Substitution2: "'ss01' Style Set 1 in Latin lookup 21 subtable" M.v
Substitution2: "'vert' Vertical Alternates (obs) in Latin lookup 20 subtable" M.v
Substitution2: "'ss02' Style Set 2 in Latin lookup 6 subtable" M.salt
Position2: "'ss11' Style Set 11 in Latin lookup 1 per glyph data 24" dx=216 dy=0 dh=431 dv=0
EndChar

StartChar: N
Encoding: 78 78 58
Width: 753
Flags: MW
HStem: 617 14<184 184 183 191>
VStem: 174 10<90 617 90 619 90 623> 569 10<90 193 193 193 208 630 90 630>
LayerCount: 2
Fore
SplineSet
201 622 m 2
 569 208 l 1
 569 630 l 1
 579 630 l 1
 579 90 l 1
 569 90 l 1
 569 193 l 1
 191 617 l 2
 189 619 188 620 186 620 c 0
 184 620 184 618 184 617 c 2
 184 90 l 1
 174 90 l 1
 174 619 l 2
 174 627 180 631 186 631 c 0
 192 631 194 629 201 622 c 2
EndSplineSet
Substitution2: "'ss12' Style Set 12 in Latin lookup 25 subtable" N.v
Substitution2: "'ss01' Style Set 1 in Latin lookup 21 subtable" N.v
Substitution2: "'vert' Vertical Alternates (obs) in Latin lookup 20 subtable" N.v
Substitution2: "'ss02' Style Set 2 in Latin lookup 7 subtable" N.salt
Position2: "'ss11' Style Set 11 in Latin lookup 1 per glyph data 33" dx=264 dy=0 dh=527 dv=0
EndChar

StartChar: Ntilde
Encoding: 209 209 59
Width: 753
Flags: MW
HStem: 617 14<184 184 183 191> 831 10<494 494> 843 10
VStem: 174 10<90 617 90 619 90 623> 569 10<90 193 193 193 208 630 90 630>
LayerCount: 2
Fore
SplineSet
201 622 m 2
 569 208 l 1
 569 630 l 1
 579 630 l 1
 579 90 l 1
 569 90 l 1
 569 193 l 1
 191 617 l 2
 189 619 188 620 186 620 c 0
 184 620 184 618 184 617 c 2
 184 90 l 1
 174 90 l 1
 174 619 l 2
 174 627 180 631 186 631 c 0
 192 631 194 629 201 622 c 2
494 841 m 1
 494 831 l 1
 467 828 441 831 390 839 c 2xd8
 374 841 l 1
 346 845 l 2
 302 852 278 853 256 849 c 1
 256 860 l 1
 279 863 303 861 348 855 c 2
 376 851 l 1
 392 849 l 2
 443 841 467 838 494 841 c 1
EndSplineSet
Substitution2: "'ss12' Style Set 12 in Latin lookup 25 subtable" Ntilde.v
Substitution2: "'ss01' Style Set 1 in Latin lookup 21 subtable" Ntilde.v
Substitution2: "'vert' Vertical Alternates (obs) in Latin lookup 20 subtable" Ntilde.v
Substitution2: "'ss02' Style Set 2 in Latin lookup 7 subtable" Ntilde.salt
Position2: "'ss11' Style Set 11 in Latin lookup 1 per glyph data 33" dx=264 dy=0 dh=527 dv=0
EndChar

StartChar: Nacute
Encoding: 323 323 60
Width: 753
Flags: MW
HStem: 617 14<184 184 183 191>
VStem: 174 10<90 617 90 619 90 623> 569 10<90 193 193 193 208 630 90 630>
LayerCount: 2
Fore
SplineSet
201 622 m 2
 569 208 l 1
 569 630 l 1
 579 630 l 1
 579 90 l 1
 569 90 l 1
 569 193 l 1
 191 617 l 2
 189 619 188 620 186 620 c 0
 184 620 184 618 184 617 c 2
 184 90 l 1
 174 90 l 1
 174 619 l 2
 174 627 180 631 186 631 c 0
 192 631 194 629 201 622 c 2
266 847 m 1
 505 877 l 1
 505 867 l 1
 266 837 l 1
 266 847 l 1
EndSplineSet
Substitution2: "'ss12' Style Set 12 in Latin lookup 25 subtable" Nacute.v
Substitution2: "'ss01' Style Set 1 in Latin lookup 21 subtable" Nacute.v
Substitution2: "'vert' Vertical Alternates (obs) in Latin lookup 20 subtable" Nacute.v
Substitution2: "'ss02' Style Set 2 in Latin lookup 7 subtable" Nacute.salt
Position2: "'ss11' Style Set 11 in Latin lookup 1 per glyph data 33" dx=264 dy=0 dh=527 dv=0
EndChar

StartChar: Ncommaaccent
Encoding: 325 325 61
Width: 753
Flags: MW
HStem: -315 10<317 352 317 352> -142 10<317 425 317 435> 617 14<184 184 183 191>
VStem: 174 10<90 617 90 619 90 623> 425 10<-229 -142 -142 -142> 569 10<90 193 193 193 208 630 90 630>
LayerCount: 2
Fore
SplineSet
201 622 m 2
 569 208 l 1
 569 630 l 1
 579 630 l 1
 579 90 l 1
 569 90 l 1
 569 193 l 1
 191 617 l 2
 189 619 188 620 186 620 c 0
 184 620 184 618 184 617 c 2
 184 90 l 1
 174 90 l 1
 174 619 l 2
 174 627 180 631 186 631 c 0
 192 631 194 629 201 622 c 2
435 -132 m 1
 435 -229 l 2
 435 -290 406 -315 352 -315 c 2
 317 -315 l 1
 317 -305 l 1
 352 -305 l 2
 400 -305 425 -283 425 -229 c 2
 425 -142 l 1
 317 -142 l 1
 317 -132 l 1
 435 -132 l 1
EndSplineSet
Substitution2: "'ss12' Style Set 12 in Latin lookup 25 subtable" Ncommaaccent.v
Substitution2: "'ss01' Style Set 1 in Latin lookup 21 subtable" Ncommaaccent.v
Substitution2: "'vert' Vertical Alternates (obs) in Latin lookup 20 subtable" Ncommaaccent.v
Substitution2: "'ss02' Style Set 2 in Latin lookup 7 subtable" Ncommaaccent.salt
Position2: "'ss11' Style Set 11 in Latin lookup 1 per glyph data 33" dx=264 dy=0 dh=527 dv=0
EndChar

StartChar: Ncaron
Encoding: 327 327 62
Width: 753
Flags: MW
HStem: 617 14<184 184 183 191> 841 10<329 333>
VStem: 174 10<90 617 90 619 90 623> 569 10<90 193 193 193 208 630 90 630>
LayerCount: 2
Fore
SplineSet
201 622 m 2
 569 208 l 1
 569 630 l 1
 579 630 l 1
 579 90 l 1
 569 90 l 1
 569 193 l 1
 191 617 l 2
 189 619 188 620 186 620 c 0
 184 620 184 618 184 617 c 2
 184 90 l 1
 174 90 l 1
 174 619 l 2
 174 627 180 631 186 631 c 0
 192 631 194 629 201 622 c 2
246 879 m 1
 333 851 l 2
 343 848 352 845 365 845 c 0
 378 845 387 848 397 851 c 2
 484 879 l 1
 484 868 l 1
 401 841 l 2
 389 838 380 835 365 835 c 0
 350 835 341 838 329 841 c 2
 246 868 l 1
 246 879 l 1
EndSplineSet
Substitution2: "'ss12' Style Set 12 in Latin lookup 25 subtable" Ncaron.v
Substitution2: "'ss01' Style Set 1 in Latin lookup 21 subtable" Ncaron.v
Substitution2: "'vert' Vertical Alternates (obs) in Latin lookup 20 subtable" Ncaron.v
Substitution2: "'ss02' Style Set 2 in Latin lookup 7 subtable" Ncaron.salt
Position2: "'ss11' Style Set 11 in Latin lookup 1 per glyph data 33" dx=264 dy=0 dh=527 dv=0
EndChar

StartChar: O
Encoding: 79 79 63
Width: 737
Flags: MW
HStem: 77 10<292.5 441.5 292.5 445.5> 632 10<292.5 441.5>
VStem: 166 10<212 507> 560 10<212 507>
LayerCount: 2
Fore
SplineSet
570 212 m 2
 570 131 524 77 367 77 c 0
 210 77 166 131 166 212 c 2
 166 507 l 2
 166 588 210 642 367 642 c 0
 524 642 570 588 570 507 c 2
 570 212 l 2
176 212 m 2
 176 137 218 87 367 87 c 0
 516 87 560 137 560 212 c 2
 560 507 l 2
 560 582 516 632 367 632 c 0
 218 632 176 582 176 507 c 2
 176 212 l 2
EndSplineSet
Substitution2: "'ss12' Style Set 12 in Latin lookup 25 subtable" O.v
Substitution2: "'ss01' Style Set 1 in Latin lookup 21 subtable" O.v
Substitution2: "'vert' Vertical Alternates (obs) in Latin lookup 20 subtable" O.v
Position2: "'ss11' Style Set 11 in Latin lookup 1 per glyph data 40" dx=272 dy=0 dh=543 dv=0
EndChar

StartChar: Ograve
Encoding: 210 210 64
Width: 737
Flags: MW
HStem: 77 10<292.5 441.5 292.5 445.5> 632 10<292.5 441.5>
VStem: 166 10<212 507> 560 10<212 507>
LayerCount: 2
Fore
SplineSet
570 212 m 2
 570 131 524 77 367 77 c 0
 210 77 166 131 166 212 c 2
 166 507 l 2
 166 588 210 642 367 642 c 0
 524 642 570 588 570 507 c 2
 570 212 l 2
176 212 m 2
 176 137 218 87 367 87 c 0
 516 87 560 137 560 212 c 2
 560 507 l 2
 560 582 516 632 367 632 c 0
 218 632 176 582 176 507 c 2
 176 212 l 2
248 867 m 1
 248 877 l 1
 487 847 l 1
 487 837 l 1
 248 867 l 1
EndSplineSet
Substitution2: "'ss12' Style Set 12 in Latin lookup 25 subtable" Ograve.v
Substitution2: "'ss01' Style Set 1 in Latin lookup 21 subtable" Ograve.v
Substitution2: "'vert' Vertical Alternates (obs) in Latin lookup 20 subtable" Ograve.v
Position2: "'ss11' Style Set 11 in Latin lookup 1 per glyph data 40" dx=272 dy=0 dh=543 dv=0
EndChar

StartChar: Oacute
Encoding: 211 211 65
Width: 737
Flags: MW
HStem: 77 10<292.5 441.5 292.5 445.5> 632 10<292.5 441.5>
VStem: 166 10<212 507> 560 10<212 507>
LayerCount: 2
Fore
SplineSet
570 212 m 2
 570 131 524 77 367 77 c 0
 210 77 166 131 166 212 c 2
 166 507 l 2
 166 588 210 642 367 642 c 0
 524 642 570 588 570 507 c 2
 570 212 l 2
176 212 m 2
 176 137 218 87 367 87 c 0
 516 87 560 137 560 212 c 2
 560 507 l 2
 560 582 516 632 367 632 c 0
 218 632 176 582 176 507 c 2
 176 212 l 2
248 847 m 1
 487 877 l 1
 487 867 l 1
 248 837 l 1
 248 847 l 1
EndSplineSet
Substitution2: "'ss12' Style Set 12 in Latin lookup 25 subtable" Oacute.v
Substitution2: "'ss01' Style Set 1 in Latin lookup 21 subtable" Oacute.v
Substitution2: "'vert' Vertical Alternates (obs) in Latin lookup 20 subtable" Oacute.v
Position2: "'ss11' Style Set 11 in Latin lookup 1 per glyph data 40" dx=272 dy=0 dh=543 dv=0
EndChar

StartChar: Ocircumflex
Encoding: 212 212 66
Width: 737
Flags: MW
HStem: 77 10<292.5 441.5 292.5 445.5> 632 10<292.5 441.5> 878 10<331 335>
VStem: 166 10<212 507> 560 10<212 507>
LayerCount: 2
Fore
SplineSet
570 212 m 2
 570 131 524 77 367 77 c 0
 210 77 166 131 166 212 c 2
 166 507 l 2
 166 588 210 642 367 642 c 0
 524 642 570 588 570 507 c 2
 570 212 l 2
176 212 m 2
 176 137 218 87 367 87 c 0
 516 87 560 137 560 212 c 2
 560 507 l 2
 560 582 516 632 367 632 c 0
 218 632 176 582 176 507 c 2
 176 212 l 2
486 850 m 1
 399 878 l 2
 389 881 380 884 367 884 c 0
 354 884 345 881 335 878 c 2
 248 850 l 1
 248 861 l 1
 331 888 l 2
 343 891 352 894 367 894 c 0
 382 894 391 891 403 888 c 2
 486 861 l 1
 486 850 l 1
EndSplineSet
Substitution2: "'ss12' Style Set 12 in Latin lookup 25 subtable" Ocircumflex.v
Substitution2: "'ss01' Style Set 1 in Latin lookup 21 subtable" Ocircumflex.v
Substitution2: "'vert' Vertical Alternates (obs) in Latin lookup 20 subtable" Ocircumflex.v
Position2: "'ss11' Style Set 11 in Latin lookup 1 per glyph data 40" dx=272 dy=0 dh=543 dv=0
EndChar

StartChar: Otilde
Encoding: 213 213 67
Width: 737
Flags: MW
HStem: 77 10<292.5 441.5 292.5 445.5> 632 10<292.5 441.5> 831 10<486 486> 843 10
VStem: 166 10<212 507> 560 10<212 507>
LayerCount: 2
Fore
SplineSet
570 212 m 2
 570 131 524 77 367 77 c 0
 210 77 166 131 166 212 c 2
 166 507 l 2
 166 588 210 642 367 642 c 0
 524 642 570 588 570 507 c 2
 570 212 l 2
176 212 m 2
 176 137 218 87 367 87 c 0
 516 87 560 137 560 212 c 2
 560 507 l 2
 560 582 516 632 367 632 c 0
 218 632 176 582 176 507 c 2
 176 212 l 2
486 841 m 1
 486 831 l 1
 459 828 433 831 382 839 c 2xec
 366 841 l 1
 338 845 l 2
 294 852 270 853 248 849 c 1
 248 860 l 1
 271 863 295 861 340 855 c 2
 368 851 l 1
 384 849 l 2
 435 841 459 838 486 841 c 1
EndSplineSet
Substitution2: "'ss12' Style Set 12 in Latin lookup 25 subtable" Otilde.v
Substitution2: "'ss01' Style Set 1 in Latin lookup 21 subtable" Otilde.v
Substitution2: "'vert' Vertical Alternates (obs) in Latin lookup 20 subtable" Otilde.v
Position2: "'ss11' Style Set 11 in Latin lookup 1 per glyph data 40" dx=272 dy=0 dh=543 dv=0
EndChar

StartChar: Odieresis
Encoding: 214 214 68
Width: 737
Flags: MW
HStem: 77 10<292.5 441.5 292.5 445.5> 632 10<292.5 441.5> 830 47<232 242 232 242 490 500>
VStem: 166 10<212 507> 232 10<830 877> 490 10<830 877> 560 10<212 507>
LayerCount: 2
Fore
SplineSet
570 212 m 2
 570 131 524 77 367 77 c 0
 210 77 166 131 166 212 c 2
 166 507 l 2
 166 588 210 642 367 642 c 0
 524 642 570 588 570 507 c 2
 570 212 l 2
176 212 m 2
 176 137 218 87 367 87 c 0
 516 87 560 137 560 212 c 2
 560 507 l 2
 560 582 516 632 367 632 c 0
 218 632 176 582 176 507 c 2
 176 212 l 2
242 830 m 1
 232 830 l 1
 232 877 l 1
 242 877 l 1
 242 830 l 1
500 830 m 1
 490 830 l 1
 490 877 l 1
 500 877 l 1
 500 830 l 1
EndSplineSet
Substitution2: "'ss12' Style Set 12 in Latin lookup 25 subtable" Odieresis.v
Substitution2: "'ss01' Style Set 1 in Latin lookup 21 subtable" Odieresis.v
Substitution2: "'vert' Vertical Alternates (obs) in Latin lookup 20 subtable" Odieresis.v
Position2: "'ss11' Style Set 11 in Latin lookup 1 per glyph data 40" dx=272 dy=0 dh=543 dv=0
EndChar

StartChar: Omacron
Encoding: 332 332 69
Width: 737
Flags: MW
HStem: 77 10<292.5 441.5 292.5 445.5> 632 10<292.5 441.5> 837 10<248 487 248 487>
VStem: 166 10<212 507> 560 10<212 507>
LayerCount: 2
Fore
SplineSet
570 212 m 2
 570 131 524 77 367 77 c 0
 210 77 166 131 166 212 c 2
 166 507 l 2
 166 588 210 642 367 642 c 0
 524 642 570 588 570 507 c 2
 570 212 l 2
176 212 m 2
 176 137 218 87 367 87 c 0
 516 87 560 137 560 212 c 2
 560 507 l 2
 560 582 516 632 367 632 c 0
 218 632 176 582 176 507 c 2
 176 212 l 2
248 847 m 1
 487 847 l 1
 487 837 l 1
 248 837 l 1
 248 847 l 1
EndSplineSet
Substitution2: "'ss12' Style Set 12 in Latin lookup 25 subtable" Omacron.v
Substitution2: "'ss01' Style Set 1 in Latin lookup 21 subtable" Omacron.v
Substitution2: "'vert' Vertical Alternates (obs) in Latin lookup 20 subtable" Omacron.v
Position2: "'ss11' Style Set 11 in Latin lookup 1 per glyph data 40" dx=272 dy=0 dh=543 dv=0
EndChar

StartChar: Obreve
Encoding: 334 334 70
Width: 737
Flags: MW
HStem: 77 10<292.5 441.5 292.5 445.5> 632 10<292.5 441.5> 818 10<313 421 313 429>
VStem: 166 10<212 507> 227 10<898 907 880 907> 502 10<898 907 879 907> 560 10<212 507>
LayerCount: 2
Fore
SplineSet
570 212 m 2
 570 131 524 77 367 77 c 0
 210 77 166 131 166 212 c 2
 166 507 l 2
 166 588 210 642 367 642 c 0
 524 642 570 588 570 507 c 2
 570 212 l 2
176 212 m 2
 176 137 218 87 367 87 c 0
 516 87 560 137 560 212 c 2
 560 507 l 2
 560 582 516 632 367 632 c 0
 218 632 176 582 176 507 c 2
 176 212 l 2
502 907 m 1
 512 907 l 1
 512 898 l 2
 512 860 491 818 367 818 c 0
 243 818 227 860 227 898 c 2
 227 907 l 1
 237 907 l 1
 237 898 l 2
 237 862 259 828 367 828 c 0
 475 828 502 862 502 898 c 2
 502 907 l 1
EndSplineSet
Substitution2: "'ss12' Style Set 12 in Latin lookup 25 subtable" Obreve.v
Substitution2: "'ss01' Style Set 1 in Latin lookup 21 subtable" Obreve.v
Substitution2: "'vert' Vertical Alternates (obs) in Latin lookup 20 subtable" Obreve.v
Position2: "'ss11' Style Set 11 in Latin lookup 1 per glyph data 40" dx=272 dy=0 dh=543 dv=0
EndChar

StartChar: Ohungarumlaut
Encoding: 336 336 71
Width: 737
Flags: MW
HStem: 77 10<292.5 441.5 292.5 445.5> 632 10<292.5 441.5> 850 97<244 280 244 280>
VStem: 166 10<212 507> 560 10<212 507>
LayerCount: 2
Fore
SplineSet
570 212 m 2
 570 131 524 77 367 77 c 0
 210 77 166 131 166 212 c 2
 166 507 l 2
 166 588 210 642 367 642 c 0
 524 642 570 588 570 507 c 2
 570 212 l 2
176 212 m 2
 176 137 218 87 367 87 c 0
 516 87 560 137 560 212 c 2
 560 507 l 2
 560 582 516 632 367 632 c 0
 218 632 176 582 176 507 c 2
 176 212 l 2
515 850 m 1
 504 850 l 1
 529 947 l 1
 540 947 l 1
 515 850 l 1
255 850 m 1
 244 850 l 1
 269 947 l 1
 280 947 l 1
 255 850 l 1
EndSplineSet
Substitution2: "'ss12' Style Set 12 in Latin lookup 25 subtable" Ohungarumlaut.v
Substitution2: "'ss01' Style Set 1 in Latin lookup 21 subtable" Ohungarumlaut.v
Substitution2: "'vert' Vertical Alternates (obs) in Latin lookup 20 subtable" Ohungarumlaut.v
Position2: "'ss11' Style Set 11 in Latin lookup 1 per glyph data 40" dx=272 dy=0 dh=543 dv=0
EndChar

StartChar: P
Encoding: 80 80 72
Width: 682
Flags: MW
HStem: 287 10<191 397 191 397> 620 10<191 397 191 191>
VStem: 181 10<90 287 297 620> 537 10<420 494>
LayerCount: 2
Fore
SplineSet
397 287 m 2
 191 287 l 1
 191 90 l 1
 181 90 l 1
 181 630 l 1
 397 630 l 2
 523 630 547 572 547 494 c 2
 547 420 l 2
 547 342 523 287 397 287 c 2
191 297 m 1
 397 297 l 2
 515 297 537 348 537 420 c 2
 537 494 l 2
 537 566 515 620 397 620 c 2
 191 620 l 1
 191 297 l 1
EndSplineSet
Substitution2: "'ss12' Style Set 12 in Latin lookup 25 subtable" P.v
Substitution2: "'ss01' Style Set 1 in Latin lookup 21 subtable" P.v
Substitution2: "'vert' Vertical Alternates (obs) in Latin lookup 20 subtable" P.v
Position2: "'ss11' Style Set 11 in Latin lookup 1 per glyph data 64" dx=299 dy=0 dh=598 dv=0
EndChar

StartChar: Q
Encoding: 81 81 73
Width: 737
Flags: MW
HStem: 0 87<362 362 362 372> 77 10<362 362 372 372> 632 10<292.5 441.5>
VStem: 166 10<212 507> 362 10<0 77 0 77> 560 10<212 507>
LayerCount: 2
Fore
SplineSet
362 0 m 1xbc
 362 77 l 1
 209 78 166 132 166 212 c 2
 166 507 l 2
 166 588 210 642 367 642 c 0
 524 642 570 588 570 507 c 2
 570 212 l 2
 570 132 525 78 372 77 c 1x7c
 372 0 l 1
 362 0 l 1xbc
176 212 m 2
 176 137 218 87 367 87 c 0
 516 87 560 137 560 212 c 2
 560 507 l 2
 560 582 516 632 367 632 c 0
 218 632 176 582 176 507 c 2
 176 212 l 2
EndSplineSet
Substitution2: "'ss12' Style Set 12 in Latin lookup 25 subtable" Q.v
Substitution2: "'ss01' Style Set 1 in Latin lookup 21 subtable" Q.v
Substitution2: "'vert' Vertical Alternates (obs) in Latin lookup 20 subtable" Q.v
Position2: "'ss11' Style Set 11 in Latin lookup 1 per glyph data 40" dx=272 dy=0 dh=543 dv=0
EndChar

StartChar: R
Encoding: 82 82 74
Width: 743
Flags: MW
HStem: 322 9<187 405 405 446.5 459 470 187 405> 620 10<187 405 187 187>
VStem: 177 10<90 322 331 620> 509 10<446 447 447 516> 581 10<90 224 90 257>
LayerCount: 2
Fore
SplineSet
405 620 m 2
 187 620 l 1
 187 331 l 1
 405 331 l 2
 488 331 509 372 509 446 c 2
 509 516 l 2
 509 578 476 620 405 620 c 2
187 90 m 1
 177 90 l 1
 177 630 l 1
 405 630 l 2
 483 630 519 582 519 516 c 2
 519 447 l 2
 519 386 507 346 459 331 c 1
 470 331 l 2
 552 331 591 294 591 224 c 2
 591 90 l 1
 581 90 l 1
 581 224 l 2
 581 290 546 322 470 322 c 2
 187 322 l 1
 187 90 l 1
EndSplineSet
Substitution2: "'ss12' Style Set 12 in Latin lookup 25 subtable" R.v
Substitution2: "'ss01' Style Set 1 in Latin lookup 21 subtable" R.v
Substitution2: "'vert' Vertical Alternates (obs) in Latin lookup 20 subtable" R.v
Position2: "'ss11' Style Set 11 in Latin lookup 1 per glyph data 38" dx=269 dy=0 dh=537 dv=0
EndChar

StartChar: Racute
Encoding: 340 340 75
Width: 743
Flags: MW
HStem: 322 9<187 405 405 446.5 459 470 187 405> 620 10<187 405 187 187>
VStem: 177 10<90 322 331 620> 509 10<446 447 447 516> 581 10<90 224 90 257>
LayerCount: 2
Fore
SplineSet
405 620 m 2
 187 620 l 1
 187 331 l 1
 405 331 l 2
 488 331 509 372 509 446 c 2
 509 516 l 2
 509 578 476 620 405 620 c 2
187 90 m 1
 177 90 l 1
 177 630 l 1
 405 630 l 2
 483 630 519 582 519 516 c 2
 519 447 l 2
 519 386 507 346 459 331 c 1
 470 331 l 2
 552 331 591 294 591 224 c 2
 591 90 l 1
 581 90 l 1
 581 224 l 2
 581 290 546 322 470 322 c 2
 187 322 l 1
 187 90 l 1
241 847 m 1
 480 877 l 1
 480 867 l 1
 241 837 l 1
 241 847 l 1
EndSplineSet
Substitution2: "'ss12' Style Set 12 in Latin lookup 25 subtable" Racute.v
Substitution2: "'ss01' Style Set 1 in Latin lookup 21 subtable" Racute.v
Substitution2: "'vert' Vertical Alternates (obs) in Latin lookup 20 subtable" Racute.v
Position2: "'ss11' Style Set 11 in Latin lookup 1 per glyph data 38" dx=269 dy=0 dh=537 dv=0
EndChar

StartChar: Rcommaaccent
Encoding: 342 342 76
Width: 743
Flags: MW
HStem: -315 10<322 357 322 357> -142 10<322 430 322 440> 322 9<187 405 405 446.5 459 470 187 405> 620 10<187 405 187 187>
VStem: 177 10<90 322 331 620> 430 10<-229 -142 -142 -142> 509 10<446 447 447 516> 581 10<90 224 90 257>
LayerCount: 2
Fore
SplineSet
405 620 m 2
 187 620 l 1
 187 331 l 1
 405 331 l 2
 488 331 509 372 509 446 c 2
 509 516 l 2
 509 578 476 620 405 620 c 2
187 90 m 1
 177 90 l 1
 177 630 l 1
 405 630 l 2
 483 630 519 582 519 516 c 2
 519 447 l 2
 519 386 507 346 459 331 c 1
 470 331 l 2
 552 331 591 294 591 224 c 2
 591 90 l 1
 581 90 l 1
 581 224 l 2
 581 290 546 322 470 322 c 2
 187 322 l 1
 187 90 l 1
440 -132 m 1
 440 -229 l 2
 440 -290 411 -315 357 -315 c 2
 322 -315 l 1
 322 -305 l 1
 357 -305 l 2
 405 -305 430 -283 430 -229 c 2
 430 -142 l 1
 322 -142 l 1
 322 -132 l 1
 440 -132 l 1
EndSplineSet
Substitution2: "'ss12' Style Set 12 in Latin lookup 25 subtable" Rcommaaccent.v
Substitution2: "'ss01' Style Set 1 in Latin lookup 21 subtable" Rcommaaccent.v
Substitution2: "'vert' Vertical Alternates (obs) in Latin lookup 20 subtable" Rcommaaccent.v
Position2: "'ss11' Style Set 11 in Latin lookup 1 per glyph data 38" dx=269 dy=0 dh=537 dv=0
EndChar

StartChar: Rcaron
Encoding: 344 344 77
Width: 743
Flags: MW
HStem: 322 9<187 405 405 446.5 459 470 187 405> 620 10<187 405 187 187> 841 10<334 338>
VStem: 177 10<90 322 331 620> 509 10<446 447 447 516> 581 10<90 224 90 257>
LayerCount: 2
Fore
SplineSet
405 620 m 2
 187 620 l 1
 187 331 l 1
 405 331 l 2
 488 331 509 372 509 446 c 2
 509 516 l 2
 509 578 476 620 405 620 c 2
187 90 m 1
 177 90 l 1
 177 630 l 1
 405 630 l 2
 483 630 519 582 519 516 c 2
 519 447 l 2
 519 386 507 346 459 331 c 1
 470 331 l 2
 552 331 591 294 591 224 c 2
 591 90 l 1
 581 90 l 1
 581 224 l 2
 581 290 546 322 470 322 c 2
 187 322 l 1
 187 90 l 1
251 879 m 1
 338 851 l 2
 348 848 357 845 370 845 c 0
 383 845 392 848 402 851 c 2
 489 879 l 1
 489 868 l 1
 406 841 l 2
 394 838 385 835 370 835 c 0
 355 835 346 838 334 841 c 2
 251 868 l 1
 251 879 l 1
EndSplineSet
Substitution2: "'ss12' Style Set 12 in Latin lookup 25 subtable" Rcaron.v
Substitution2: "'ss01' Style Set 1 in Latin lookup 21 subtable" Rcaron.v
Substitution2: "'vert' Vertical Alternates (obs) in Latin lookup 20 subtable" Rcaron.v
Position2: "'ss11' Style Set 11 in Latin lookup 1 per glyph data 38" dx=269 dy=0 dh=537 dv=0
EndChar

StartChar: S
Encoding: 83 83 78
Width: 650
Flags: MW
HStem: 90 10<141 390 141 390> 620 10<234 484 262 484>
VStem: 160 10<457 539> 491 10<191 249>
LayerCount: 2
Fore
SplineSet
484 630 m 1
 484 620 l 1
 262 620 l 2
 206 620 170 586 170 539 c 2
 170 457 l 2
 170 410 190 396 221 390 c 2
 432 347 l 2
 472 339 501 319 501 249 c 2
 501 191 l 2
 501 132 458 90 390 90 c 2
 141 90 l 1
 141 100 l 1
 390 100 l 2
 452 100 491 138 491 191 c 2
 491 249 l 2
 491 312 467 329 430 337 c 2
 219 380 l 2
 184 387 160 402 160 457 c 2
 160 539 l 2
 160 592 200 630 262 630 c 2
 484 630 l 1
EndSplineSet
Substitution2: "'ss12' Style Set 12 in Latin lookup 25 subtable" S.v
Substitution2: "'ss01' Style Set 1 in Latin lookup 21 subtable" S.v
Substitution2: "'vert' Vertical Alternates (obs) in Latin lookup 20 subtable" S.v
Position2: "'ss11' Style Set 11 in Latin lookup 1 per glyph data 69" dx=315 dy=0 dh=630 dv=0
EndChar

StartChar: Sacute
Encoding: 346 346 79
Width: 650
Flags: MW
HStem: 90 10<141 390 141 390> 620 10<234 484 262 484>
VStem: 160 10<457 539> 491 10<191 249>
LayerCount: 2
Fore
SplineSet
484 630 m 1
 484 620 l 1
 262 620 l 2
 206 620 170 586 170 539 c 2
 170 457 l 2
 170 410 190 396 221 390 c 2
 432 347 l 2
 472 339 501 319 501 249 c 2
 501 191 l 2
 501 132 458 90 390 90 c 2
 141 90 l 1
 141 100 l 1
 390 100 l 2
 452 100 491 138 491 191 c 2
 491 249 l 2
 491 312 467 329 430 337 c 2
 219 380 l 2
 184 387 160 402 160 457 c 2
 160 539 l 2
 160 592 200 630 262 630 c 2
 484 630 l 1
215 847 m 1
 454 877 l 1
 454 867 l 1
 215 837 l 1
 215 847 l 1
EndSplineSet
Substitution2: "'ss12' Style Set 12 in Latin lookup 25 subtable" Sacute.v
Substitution2: "'ss01' Style Set 1 in Latin lookup 21 subtable" Sacute.v
Substitution2: "'vert' Vertical Alternates (obs) in Latin lookup 20 subtable" Sacute.v
Position2: "'ss11' Style Set 11 in Latin lookup 1 per glyph data 69" dx=315 dy=0 dh=630 dv=0
EndChar

StartChar: Scircumflex
Encoding: 348 348 80
Width: 650
Flags: MW
HStem: 90 10<141 390 141 390> 620 10<234 484 262 484> 878 10<288 292>
VStem: 160 10<457 539> 491 10<191 249>
LayerCount: 2
Fore
SplineSet
484 630 m 1
 484 620 l 1
 262 620 l 2
 206 620 170 586 170 539 c 2
 170 457 l 2
 170 410 190 396 221 390 c 2
 432 347 l 2
 472 339 501 319 501 249 c 2
 501 191 l 2
 501 132 458 90 390 90 c 2
 141 90 l 1
 141 100 l 1
 390 100 l 2
 452 100 491 138 491 191 c 2
 491 249 l 2
 491 312 467 329 430 337 c 2
 219 380 l 2
 184 387 160 402 160 457 c 2
 160 539 l 2
 160 592 200 630 262 630 c 2
 484 630 l 1
443 850 m 1
 356 878 l 2
 346 881 337 884 324 884 c 0
 311 884 302 881 292 878 c 2
 205 850 l 1
 205 861 l 1
 288 888 l 2
 300 891 309 894 324 894 c 0
 339 894 348 891 360 888 c 2
 443 861 l 1
 443 850 l 1
EndSplineSet
Substitution2: "'ss12' Style Set 12 in Latin lookup 25 subtable" Scircumflex.v
Substitution2: "'ss01' Style Set 1 in Latin lookup 21 subtable" Scircumflex.v
Substitution2: "'vert' Vertical Alternates (obs) in Latin lookup 20 subtable" Scircumflex.v
Position2: "'ss11' Style Set 11 in Latin lookup 1 per glyph data 69" dx=315 dy=0 dh=630 dv=0
EndChar

StartChar: Scedilla
Encoding: 350 350 81
Width: 650
Flags: MW
HStem: 90 10<141 344 141 390 355 390 355 355> 620 10<234 484 262 484>
VStem: 160 10<457 539> 491 10<191 249>
LayerCount: 2
Fore
SplineSet
390 90 m 2
 355 90 l 1
 309 -36 l 1
 299 -36 l 1
 344 90 l 1
 141 90 l 1
 141 100 l 1
 390 100 l 2
 452 100 491 138 491 191 c 2
 491 249 l 2
 491 312 467 329 430 337 c 2
 219 380 l 2
 184 387 160 402 160 457 c 2
 160 539 l 2
 160 592 200 630 262 630 c 2
 484 630 l 1
 484 620 l 1
 262 620 l 2
 206 620 170 586 170 539 c 2
 170 457 l 2
 170 410 190 396 221 390 c 2
 432 347 l 2
 472 339 501 319 501 249 c 2
 501 191 l 2
 501 132 458 90 390 90 c 2
EndSplineSet
Substitution2: "'ss12' Style Set 12 in Latin lookup 25 subtable" Scedilla.v
Substitution2: "'ss01' Style Set 1 in Latin lookup 21 subtable" Scedilla.v
Substitution2: "'vert' Vertical Alternates (obs) in Latin lookup 20 subtable" Scedilla.v
Substitution2: "'locl' Localized Forms in Latin lookup 0 subtable" Scommaaccent
Position2: "'ss11' Style Set 11 in Latin lookup 1 per glyph data 69" dx=315 dy=0 dh=630 dv=0
EndChar

StartChar: Scaron
Encoding: 352 352 82
Width: 650
Flags: MW
HStem: 90 10<141 390 141 390> 620 10<234 484 262 484> 841 10<298 302>
VStem: 160 10<457 539> 491 10<191 249>
LayerCount: 2
Fore
SplineSet
484 630 m 1
 484 620 l 1
 262 620 l 2
 206 620 170 586 170 539 c 2
 170 457 l 2
 170 410 190 396 221 390 c 2
 432 347 l 2
 472 339 501 319 501 249 c 2
 501 191 l 2
 501 132 458 90 390 90 c 2
 141 90 l 1
 141 100 l 1
 390 100 l 2
 452 100 491 138 491 191 c 2
 491 249 l 2
 491 312 467 329 430 337 c 2
 219 380 l 2
 184 387 160 402 160 457 c 2
 160 539 l 2
 160 592 200 630 262 630 c 2
 484 630 l 1
215 879 m 1
 302 851 l 2
 312 848 321 845 334 845 c 0
 347 845 356 848 366 851 c 2
 453 879 l 1
 453 868 l 1
 370 841 l 2
 358 838 349 835 334 835 c 0
 319 835 310 838 298 841 c 2
 215 868 l 1
 215 879 l 1
EndSplineSet
Substitution2: "'ss12' Style Set 12 in Latin lookup 25 subtable" Scaron.v
Substitution2: "'ss01' Style Set 1 in Latin lookup 21 subtable" Scaron.v
Substitution2: "'vert' Vertical Alternates (obs) in Latin lookup 20 subtable" Scaron.v
Position2: "'ss11' Style Set 11 in Latin lookup 1 per glyph data 69" dx=315 dy=0 dh=630 dv=0
EndChar

StartChar: Scommaaccent
Encoding: 536 536 83
Width: 650
Flags: MW
HStem: -315 10<276 311 276 311> -142 10<276 384 276 394> 90 10<141 390 141 390> 620 10<234 484 262 484>
VStem: 160 10<457 539> 384 10<-229 -142 -142 -142> 491 10<191 249>
LayerCount: 2
Fore
SplineSet
484 630 m 1
 484 620 l 1
 262 620 l 2
 206 620 170 586 170 539 c 2
 170 457 l 2
 170 410 190 396 221 390 c 2
 432 347 l 2
 472 339 501 319 501 249 c 2
 501 191 l 2
 501 132 458 90 390 90 c 2
 141 90 l 1
 141 100 l 1
 390 100 l 2
 452 100 491 138 491 191 c 2
 491 249 l 2
 491 312 467 329 430 337 c 2
 219 380 l 2
 184 387 160 402 160 457 c 2
 160 539 l 2
 160 592 200 630 262 630 c 2
 484 630 l 1
394 -132 m 1
 394 -229 l 2
 394 -290 365 -315 311 -315 c 2
 276 -315 l 1
 276 -305 l 1
 311 -305 l 2
 359 -305 384 -283 384 -229 c 2
 384 -142 l 1
 276 -142 l 1
 276 -132 l 1
 394 -132 l 1
EndSplineSet
Substitution2: "'ss12' Style Set 12 in Latin lookup 25 subtable" Scommaaccent.v
Substitution2: "'ss01' Style Set 1 in Latin lookup 21 subtable" Scommaaccent.v
Substitution2: "'vert' Vertical Alternates (obs) in Latin lookup 20 subtable" Scommaaccent.v
Position2: "'ss11' Style Set 11 in Latin lookup 1 per glyph data 69" dx=315 dy=0 dh=630 dv=0
EndChar

StartChar: T
Encoding: 84 84 84
Width: 656
Flags: MW
HStem: 620 10<118 323 118 538 333 333 333 538>
VStem: 323 10<90 620 90 620>
LayerCount: 2
Fore
SplineSet
323 90 m 1
 323 620 l 1
 118 620 l 1
 118 630 l 1
 538 630 l 1
 538 620 l 1
 333 620 l 1
 333 90 l 1
 323 90 l 1
EndSplineSet
Substitution2: "'ss12' Style Set 12 in Latin lookup 25 subtable" T.v
Substitution2: "'ss01' Style Set 1 in Latin lookup 21 subtable" T.v
Substitution2: "'vert' Vertical Alternates (obs) in Latin lookup 20 subtable" T.v
Position2: "'ss11' Style Set 11 in Latin lookup 1 per glyph data 67" dx=312 dy=0 dh=624 dv=0
EndChar

StartChar: Tcommaaccent
Encoding: 354 354 85
Width: 656
Flags: MW
HStem: -315 10<269 304 269 304> -142 10<269 377 269 387> 620 10<118 323 118 538 333 333 333 538>
VStem: 323 10<90 620 90 620> 377 10<-229 -142 -142 -142>
LayerCount: 2
Fore
SplineSet
323 90 m 1
 323 620 l 1
 118 620 l 1
 118 630 l 1
 538 630 l 1
 538 620 l 1
 333 620 l 1
 333 90 l 1
 323 90 l 1
387 -132 m 1
 387 -229 l 2
 387 -290 358 -315 304 -315 c 2
 269 -315 l 1
 269 -305 l 1
 304 -305 l 2
 352 -305 377 -283 377 -229 c 2
 377 -142 l 1
 269 -142 l 1
 269 -132 l 1
 387 -132 l 1
EndSplineSet
Substitution2: "'ss12' Style Set 12 in Latin lookup 25 subtable" Tcommaaccent.v
Substitution2: "'ss01' Style Set 1 in Latin lookup 21 subtable" Tcommaaccent.v
Substitution2: "'vert' Vertical Alternates (obs) in Latin lookup 20 subtable" Tcommaaccent.v
Position2: "'ss11' Style Set 11 in Latin lookup 1 per glyph data 67" dx=312 dy=0 dh=624 dv=0
EndChar

StartChar: Tcaron
Encoding: 356 356 86
Width: 656
Flags: MW
HStem: 620 10<118 323 118 538 333 333 333 538> 841 10<291 295>
VStem: 323 10<90 620 90 620>
LayerCount: 2
Fore
SplineSet
323 90 m 1
 323 620 l 1
 118 620 l 1
 118 630 l 1
 538 630 l 1
 538 620 l 1
 333 620 l 1
 333 90 l 1
 323 90 l 1
208 879 m 1
 295 851 l 2
 305 848 314 845 327 845 c 0
 340 845 349 848 359 851 c 2
 446 879 l 1
 446 868 l 1
 363 841 l 2
 351 838 342 835 327 835 c 0
 312 835 303 838 291 841 c 2
 208 868 l 1
 208 879 l 1
EndSplineSet
Substitution2: "'ss12' Style Set 12 in Latin lookup 25 subtable" Tcaron.v
Substitution2: "'ss01' Style Set 1 in Latin lookup 21 subtable" Tcaron.v
Substitution2: "'vert' Vertical Alternates (obs) in Latin lookup 20 subtable" Tcaron.v
Position2: "'ss11' Style Set 11 in Latin lookup 1 per glyph data 67" dx=312 dy=0 dh=624 dv=0
EndChar

StartChar: U
Encoding: 85 85 87
Width: 746
Flags: MW
HStem: 78 10<299.5 448.5 299.5 452.5>
VStem: 174 10<213 630> 565 10<213 630>
LayerCount: 2
Fore
SplineSet
174 630 m 1
 184 630 l 1
 184 213 l 2
 184 138 225 88 374 88 c 0
 523 88 565 138 565 213 c 2
 565 630 l 1
 575 630 l 1
 575 213 l 2
 575 132 531 78 374 78 c 0
 217 78 174 132 174 213 c 2
 174 630 l 1
EndSplineSet
Substitution2: "'ss12' Style Set 12 in Latin lookup 25 subtable" U.v
Substitution2: "'ss01' Style Set 1 in Latin lookup 21 subtable" U.v
Substitution2: "'vert' Vertical Alternates (obs) in Latin lookup 20 subtable" U.v
Position2: "'ss11' Style Set 11 in Latin lookup 1 per glyph data 36" dx=267 dy=0 dh=534 dv=0
EndChar

StartChar: Ugrave
Encoding: 217 217 88
Width: 746
Flags: MW
HStem: 78 10<299.5 448.5 299.5 452.5>
VStem: 174 10<213 630> 565 10<213 630>
LayerCount: 2
Fore
SplineSet
174 630 m 1
 184 630 l 1
 184 213 l 2
 184 138 225 88 374 88 c 0
 523 88 565 138 565 213 c 2
 565 630 l 1
 575 630 l 1
 575 213 l 2
 575 132 531 78 374 78 c 0
 217 78 174 132 174 213 c 2
 174 630 l 1
243 867 m 1
 243 877 l 1
 482 847 l 1
 482 837 l 1
 243 867 l 1
EndSplineSet
Substitution2: "'ss12' Style Set 12 in Latin lookup 25 subtable" Ugrave.v
Substitution2: "'ss01' Style Set 1 in Latin lookup 21 subtable" Ugrave.v
Substitution2: "'vert' Vertical Alternates (obs) in Latin lookup 20 subtable" Ugrave.v
Position2: "'ss11' Style Set 11 in Latin lookup 1 per glyph data 36" dx=267 dy=0 dh=534 dv=0
EndChar

StartChar: Uacute
Encoding: 218 218 89
Width: 746
Flags: MW
HStem: 78 10<299.5 448.5 299.5 452.5>
VStem: 174 10<213 630> 565 10<213 630>
LayerCount: 2
Fore
SplineSet
174 630 m 1
 184 630 l 1
 184 213 l 2
 184 138 225 88 374 88 c 0
 523 88 565 138 565 213 c 2
 565 630 l 1
 575 630 l 1
 575 213 l 2
 575 132 531 78 374 78 c 0
 217 78 174 132 174 213 c 2
 174 630 l 1
263 847 m 1
 502 877 l 1
 502 867 l 1
 263 837 l 1
 263 847 l 1
EndSplineSet
Substitution2: "'ss12' Style Set 12 in Latin lookup 25 subtable" Uacute.v
Substitution2: "'ss01' Style Set 1 in Latin lookup 21 subtable" Uacute.v
Substitution2: "'vert' Vertical Alternates (obs) in Latin lookup 20 subtable" Uacute.v
Position2: "'ss11' Style Set 11 in Latin lookup 1 per glyph data 36" dx=267 dy=0 dh=534 dv=0
EndChar

StartChar: Ucircumflex
Encoding: 219 219 90
Width: 746
Flags: MW
HStem: 78 10<299.5 448.5 299.5 452.5> 878 10<336 340>
VStem: 174 10<213 630> 565 10<213 630>
LayerCount: 2
Fore
SplineSet
174 630 m 1
 184 630 l 1
 184 213 l 2
 184 138 225 88 374 88 c 0
 523 88 565 138 565 213 c 2
 565 630 l 1
 575 630 l 1
 575 213 l 2
 575 132 531 78 374 78 c 0
 217 78 174 132 174 213 c 2
 174 630 l 1
491 850 m 1
 404 878 l 2
 394 881 385 884 372 884 c 0
 359 884 350 881 340 878 c 2
 253 850 l 1
 253 861 l 1
 336 888 l 2
 348 891 357 894 372 894 c 0
 387 894 396 891 408 888 c 2
 491 861 l 1
 491 850 l 1
EndSplineSet
Substitution2: "'ss12' Style Set 12 in Latin lookup 25 subtable" Ucircumflex.v
Substitution2: "'ss01' Style Set 1 in Latin lookup 21 subtable" Ucircumflex.v
Substitution2: "'vert' Vertical Alternates (obs) in Latin lookup 20 subtable" Ucircumflex.v
Position2: "'ss11' Style Set 11 in Latin lookup 1 per glyph data 36" dx=267 dy=0 dh=534 dv=0
EndChar

StartChar: Udieresis
Encoding: 220 220 91
Width: 746
Flags: MW
HStem: 78 10<299.5 448.5 299.5 452.5> 830 47<237 247 237 247 495 505>
VStem: 174 10<213 630> 237 10<830 877> 495 10<830 877> 565 10<213 630>
LayerCount: 2
Fore
SplineSet
174 630 m 1
 184 630 l 1
 184 213 l 2
 184 138 225 88 374 88 c 0
 523 88 565 138 565 213 c 2
 565 630 l 1
 575 630 l 1
 575 213 l 2
 575 132 531 78 374 78 c 0
 217 78 174 132 174 213 c 2
 174 630 l 1
247 830 m 1
 237 830 l 1
 237 877 l 1
 247 877 l 1
 247 830 l 1
505 830 m 1
 495 830 l 1
 495 877 l 1
 505 877 l 1
 505 830 l 1
EndSplineSet
Substitution2: "'ss12' Style Set 12 in Latin lookup 25 subtable" Udieresis.v
Substitution2: "'ss01' Style Set 1 in Latin lookup 21 subtable" Udieresis.v
Substitution2: "'vert' Vertical Alternates (obs) in Latin lookup 20 subtable" Udieresis.v
Position2: "'ss11' Style Set 11 in Latin lookup 1 per glyph data 36" dx=267 dy=0 dh=534 dv=0
EndChar

StartChar: Utilde
Encoding: 360 360 92
Width: 746
Flags: MW
HStem: 78 10<299.5 448.5 299.5 452.5> 831 10<491 491> 843 10
VStem: 174 10<213 630> 565 10<213 630>
LayerCount: 2
Fore
SplineSet
174 630 m 1
 184 630 l 1
 184 213 l 2
 184 138 225 88 374 88 c 0
 523 88 565 138 565 213 c 2
 565 630 l 1
 575 630 l 1
 575 213 l 2
 575 132 531 78 374 78 c 0
 217 78 174 132 174 213 c 2
 174 630 l 1
491 841 m 1
 491 831 l 1
 464 828 438 831 387 839 c 2xd8
 371 841 l 1
 343 845 l 2
 299 852 275 853 253 849 c 1
 253 860 l 1
 276 863 300 861 345 855 c 2
 373 851 l 1
 389 849 l 2
 440 841 464 838 491 841 c 1
EndSplineSet
Substitution2: "'ss12' Style Set 12 in Latin lookup 25 subtable" Utilde.v
Substitution2: "'ss01' Style Set 1 in Latin lookup 21 subtable" Utilde.v
Substitution2: "'vert' Vertical Alternates (obs) in Latin lookup 20 subtable" Utilde.v
Position2: "'ss11' Style Set 11 in Latin lookup 1 per glyph data 36" dx=267 dy=0 dh=534 dv=0
EndChar

StartChar: Umacron
Encoding: 362 362 93
Width: 746
Flags: MW
HStem: 78 10<299.5 448.5 299.5 452.5> 837 10<253 492 253 492>
VStem: 174 10<213 630> 565 10<213 630>
LayerCount: 2
Fore
SplineSet
174 630 m 1
 184 630 l 1
 184 213 l 2
 184 138 225 88 374 88 c 0
 523 88 565 138 565 213 c 2
 565 630 l 1
 575 630 l 1
 575 213 l 2
 575 132 531 78 374 78 c 0
 217 78 174 132 174 213 c 2
 174 630 l 1
253 847 m 1
 492 847 l 1
 492 837 l 1
 253 837 l 1
 253 847 l 1
EndSplineSet
Substitution2: "'ss12' Style Set 12 in Latin lookup 25 subtable" Umacron.v
Substitution2: "'ss01' Style Set 1 in Latin lookup 21 subtable" Umacron.v
Substitution2: "'vert' Vertical Alternates (obs) in Latin lookup 20 subtable" Umacron.v
Position2: "'ss11' Style Set 11 in Latin lookup 1 per glyph data 36" dx=267 dy=0 dh=534 dv=0
EndChar

StartChar: Ubreve
Encoding: 364 364 94
Width: 746
Flags: MW
HStem: 78 10<299.5 448.5 299.5 452.5> 818 10<318 426 318 434>
VStem: 174 10<213 630> 232 10<898 907 880 907> 507 10<898 907 879 907> 565 10<213 630>
LayerCount: 2
Fore
SplineSet
174 630 m 1
 184 630 l 1
 184 213 l 2
 184 138 225 88 374 88 c 0
 523 88 565 138 565 213 c 2
 565 630 l 1
 575 630 l 1
 575 213 l 2
 575 132 531 78 374 78 c 0
 217 78 174 132 174 213 c 2
 174 630 l 1
507 907 m 1
 517 907 l 1
 517 898 l 2
 517 860 496 818 372 818 c 0
 248 818 232 860 232 898 c 2
 232 907 l 1
 242 907 l 1
 242 898 l 2
 242 862 264 828 372 828 c 0
 480 828 507 862 507 898 c 2
 507 907 l 1
EndSplineSet
Substitution2: "'ss12' Style Set 12 in Latin lookup 25 subtable" Ubreve.v
Substitution2: "'ss01' Style Set 1 in Latin lookup 21 subtable" Ubreve.v
Substitution2: "'vert' Vertical Alternates (obs) in Latin lookup 20 subtable" Ubreve.v
Position2: "'ss11' Style Set 11 in Latin lookup 1 per glyph data 36" dx=267 dy=0 dh=534 dv=0
EndChar

StartChar: Uring
Encoding: 366 366 95
Width: 746
Flags: MW
HStem: 78 10<299.5 448.5 299.5 452.5> 820 10<319.5 426.5 319.5 432.5> 1066 10<319.5 426.5>
VStem: 174 10<213 630> 232 10<920 975> 506 10<920 975> 565 10<213 630>
LayerCount: 2
Fore
SplineSet
174 630 m 1
 184 630 l 1
 184 213 l 2
 184 138 225 88 374 88 c 0
 523 88 565 138 565 213 c 2
 565 630 l 1
 575 630 l 1
 575 213 l 2
 575 132 531 78 374 78 c 0
 217 78 174 132 174 213 c 2
 174 630 l 1
232 920 m 2
 232 975 l 2
 232 1035 254 1076 373 1076 c 0
 492 1076 516 1034 516 975 c 2
 516 920 l 2
 516 860 492 820 373 820 c 0
 254 820 232 860 232 920 c 2
373 1066 m 0
 266 1066 242 1031 242 975 c 2
 242 920 l 2
 242 864 266 830 373 830 c 0
 480 830 506 864 506 920 c 2
 506 975 l 2
 506 1030 480 1066 373 1066 c 0
EndSplineSet
Substitution2: "'ss12' Style Set 12 in Latin lookup 25 subtable" Uring.v
Substitution2: "'ss01' Style Set 1 in Latin lookup 21 subtable" Uring.v
Substitution2: "'vert' Vertical Alternates (obs) in Latin lookup 20 subtable" Uring.v
Position2: "'ss11' Style Set 11 in Latin lookup 1 per glyph data 36" dx=267 dy=0 dh=534 dv=0
EndChar

StartChar: Uhungarumlaut
Encoding: 368 368 96
Width: 746
Flags: MW
HStem: 78 10<299.5 448.5 299.5 452.5> 850 97<253 289 253 289>
VStem: 174 10<213 630> 565 10<213 630>
LayerCount: 2
Fore
SplineSet
174 630 m 1
 184 630 l 1
 184 213 l 2
 184 138 225 88 374 88 c 0
 523 88 565 138 565 213 c 2
 565 630 l 1
 575 630 l 1
 575 213 l 2
 575 132 531 78 374 78 c 0
 217 78 174 132 174 213 c 2
 174 630 l 1
524 850 m 1
 513 850 l 1
 538 947 l 1
 549 947 l 1
 524 850 l 1
264 850 m 1
 253 850 l 1
 278 947 l 1
 289 947 l 1
 264 850 l 1
EndSplineSet
Substitution2: "'ss12' Style Set 12 in Latin lookup 25 subtable" Uhungarumlaut.v
Substitution2: "'ss01' Style Set 1 in Latin lookup 21 subtable" Uhungarumlaut.v
Substitution2: "'vert' Vertical Alternates (obs) in Latin lookup 20 subtable" Uhungarumlaut.v
Position2: "'ss11' Style Set 11 in Latin lookup 1 per glyph data 36" dx=267 dy=0 dh=534 dv=0
EndChar

StartChar: Uogonek
Encoding: 370 370 97
Width: 746
Flags: MW
HStem: -126 10<382.5 431 407 431> 78 10<299.5 374 374 390>
VStem: 174 10<213 630> 356 10<-53 -51> 565 10<213 630>
LayerCount: 2
Fore
SplineSet
431 -126 m 1
 407 -126 l 2
 358 -126 348 -101 356 -51 c 2
 368 32 l 2
 372 57 375 67 390 78 c 1
 374 78 l 2
 217 78 174 132 174 213 c 2
 174 630 l 1
 184 630 l 1
 184 213 l 2
 184 138 225 88 374 88 c 0
 523 88 565 138 565 213 c 2
 565 630 l 1
 575 630 l 1
 575 213 l 2
 575 138 538 87 409 79 c 1
 386 66 382 60 378 32 c 2
 366 -53 l 2
 361 -93 366 -116 407 -116 c 2
 431 -116 l 1
 431 -126 l 1
EndSplineSet
Substitution2: "'ss12' Style Set 12 in Latin lookup 25 subtable" Uogonek.v
Substitution2: "'ss01' Style Set 1 in Latin lookup 21 subtable" Uogonek.v
Substitution2: "'vert' Vertical Alternates (obs) in Latin lookup 20 subtable" Uogonek.v
Position2: "'ss11' Style Set 11 in Latin lookup 1 per glyph data 36" dx=267 dy=0 dh=534 dv=0
EndChar

StartChar: V
Encoding: 86 86 98
Width: 730
Flags: MW
HStem: 90 10<301 410 322 410>
VStem: 167 10<414 630> 555 10<414 630>
LayerCount: 2
Fore
SplineSet
167 630 m 1
 177 630 l 1
 177 414 l 2
 177 379 182 348 193 321 c 2
 259 161 l 2
 273 126 284 100 322 100 c 2
 410 100 l 2
 448 100 459 126 473 161 c 2
 539 321 l 2
 550 348 555 379 555 414 c 2
 555 630 l 1
 565 630 l 1
 565 414 l 2
 565 377 561 346 549 317 c 2
 483 157 l 2
 467 118 452 90 410 90 c 2
 322 90 l 2
 280 90 265 118 249 157 c 2
 183 317 l 2
 171 346 167 377 167 414 c 2
 167 630 l 1
EndSplineSet
Substitution2: "'ss12' Style Set 12 in Latin lookup 25 subtable" V.v
Substitution2: "'ss01' Style Set 1 in Latin lookup 21 subtable" V.v
Substitution2: "'vert' Vertical Alternates (obs) in Latin lookup 20 subtable" V.v
Position2: "'ss11' Style Set 11 in Latin lookup 1 per glyph data 44" dx=275 dy=0 dh=550 dv=0
EndChar

StartChar: W
Encoding: 87 87 99
Width: 831
Flags: MW
HStem: 90 10<223 236 231 236 236 238 597 602> 335 10<386 439 394 439>
VStem: 168 10<335 336 336 630> 655 10<336 630>
LayerCount: 2
Fore
SplineSet
439 345 m 2
 460 345 471 336 488 298 c 2
 570 114 l 2
 576 100 587 100 597 100 c 2
 602 100 l 2
 613 100 623 110 625 121 c 2
 650 235 l 2
 655 260 655 306 655 336 c 2
 655 630 l 1
 665 630 l 1
 665 335 l 2
 665 305 665 259 660 234 c 2
 635 121 l 2
 630 99 618 90 602 90 c 2
 595 90 l 2
 583 90 568 93 562 107 c 2
 480 293 l 2
 464 329 455 335 439 335 c 2
 394 335 l 2
 378 335 369 329 353 293 c 2
 271 107 l 2
 265 93 250 90 238 90 c 2
 231 90 l 2
 215 90 203 99 198 121 c 2
 173 234 l 2
 168 259 168 305 168 335 c 2
 168 630 l 1
 178 630 l 1
 178 336 l 2
 178 306 178 260 183 235 c 2
 208 121 l 2
 210 110 220 100 231 100 c 2
 236 100 l 2
 246 100 257 100 263 114 c 2
 345 298 l 2
 362 336 373 345 394 345 c 2
 439 345 l 2
EndSplineSet
Substitution2: "'ss12' Style Set 12 in Latin lookup 25 subtable" W.v
Substitution2: "'ss01' Style Set 1 in Latin lookup 21 subtable" W.v
Substitution2: "'vert' Vertical Alternates (obs) in Latin lookup 20 subtable" W.v
Substitution2: "'ss02' Style Set 2 in Latin lookup 8 subtable" W.salt
Position2: "'ss11' Style Set 11 in Latin lookup 1 per glyph data 25" dx=225 dy=0 dh=449 dv=0
EndChar

StartChar: Wcircumflex
Encoding: 372 372 100
Width: 831
Flags: MW
HStem: 90 10<223 236 231 236 236 238 597 602> 335 10<386 439 394 439> 878 10<378 382>
VStem: 168 10<335 336 336 630> 655 10<336 630>
LayerCount: 2
Fore
SplineSet
439 345 m 2
 460 345 471 336 488 298 c 2
 570 114 l 2
 576 100 587 100 597 100 c 2
 602 100 l 2
 613 100 623 110 625 121 c 2
 650 235 l 2
 655 260 655 306 655 336 c 2
 655 630 l 1
 665 630 l 1
 665 335 l 2
 665 305 665 259 660 234 c 2
 635 121 l 2
 630 99 618 90 602 90 c 2
 595 90 l 2
 583 90 568 93 562 107 c 2
 480 293 l 2
 464 329 455 335 439 335 c 2
 394 335 l 2
 378 335 369 329 353 293 c 2
 271 107 l 2
 265 93 250 90 238 90 c 2
 231 90 l 2
 215 90 203 99 198 121 c 2
 173 234 l 2
 168 259 168 305 168 335 c 2
 168 630 l 1
 178 630 l 1
 178 336 l 2
 178 306 178 260 183 235 c 2
 208 121 l 2
 210 110 220 100 231 100 c 2
 236 100 l 2
 246 100 257 100 263 114 c 2
 345 298 l 2
 362 336 373 345 394 345 c 2
 439 345 l 2
533 850 m 1
 446 878 l 2
 436 881 427 884 414 884 c 0
 401 884 392 881 382 878 c 2
 295 850 l 1
 295 861 l 1
 378 888 l 2
 390 891 399 894 414 894 c 0
 429 894 438 891 450 888 c 2
 533 861 l 1
 533 850 l 1
EndSplineSet
Substitution2: "'ss12' Style Set 12 in Latin lookup 25 subtable" Wcircumflex.v
Substitution2: "'ss01' Style Set 1 in Latin lookup 21 subtable" Wcircumflex.v
Substitution2: "'vert' Vertical Alternates (obs) in Latin lookup 20 subtable" Wcircumflex.v
Substitution2: "'ss02' Style Set 2 in Latin lookup 8 subtable" Wcircumflex.salt
Position2: "'ss11' Style Set 11 in Latin lookup 1 per glyph data 25" dx=225 dy=0 dh=449 dv=0
EndChar

StartChar: Wgrave
Encoding: 7808 7808 101
Width: 831
Flags: MW
HStem: 90 10<223 236 231 236 236 238 597 602> 335 10<386 439 394 439>
VStem: 168 10<335 336 336 630> 655 10<336 630>
LayerCount: 2
Fore
SplineSet
439 345 m 2
 460 345 471 336 488 298 c 2
 570 114 l 2
 576 100 587 100 597 100 c 2
 602 100 l 2
 613 100 623 110 625 121 c 2
 650 235 l 2
 655 260 655 306 655 336 c 2
 655 630 l 1
 665 630 l 1
 665 335 l 2
 665 305 665 259 660 234 c 2
 635 121 l 2
 630 99 618 90 602 90 c 2
 595 90 l 2
 583 90 568 93 562 107 c 2
 480 293 l 2
 464 329 455 335 439 335 c 2
 394 335 l 2
 378 335 369 329 353 293 c 2
 271 107 l 2
 265 93 250 90 238 90 c 2
 231 90 l 2
 215 90 203 99 198 121 c 2
 173 234 l 2
 168 259 168 305 168 335 c 2
 168 630 l 1
 178 630 l 1
 178 336 l 2
 178 306 178 260 183 235 c 2
 208 121 l 2
 210 110 220 100 231 100 c 2
 236 100 l 2
 246 100 257 100 263 114 c 2
 345 298 l 2
 362 336 373 345 394 345 c 2
 439 345 l 2
285 867 m 1
 285 877 l 1
 524 847 l 1
 524 837 l 1
 285 867 l 1
EndSplineSet
Substitution2: "'ss12' Style Set 12 in Latin lookup 25 subtable" Wgrave.v
Substitution2: "'ss01' Style Set 1 in Latin lookup 21 subtable" Wgrave.v
Substitution2: "'vert' Vertical Alternates (obs) in Latin lookup 20 subtable" Wgrave.v
Substitution2: "'ss02' Style Set 2 in Latin lookup 8 subtable" Wgrave.salt
Position2: "'ss11' Style Set 11 in Latin lookup 1 per glyph data 25" dx=225 dy=0 dh=449 dv=0
EndChar

StartChar: Wacute
Encoding: 7810 7810 102
Width: 831
Flags: MW
HStem: 90 10<223 236 231 236 236 238 597 602> 335 10<386 439 394 439>
VStem: 168 10<335 336 336 630> 655 10<336 630>
LayerCount: 2
Fore
SplineSet
439 345 m 2
 460 345 471 336 488 298 c 2
 570 114 l 2
 576 100 587 100 597 100 c 2
 602 100 l 2
 613 100 623 110 625 121 c 2
 650 235 l 2
 655 260 655 306 655 336 c 2
 655 630 l 1
 665 630 l 1
 665 335 l 2
 665 305 665 259 660 234 c 2
 635 121 l 2
 630 99 618 90 602 90 c 2
 595 90 l 2
 583 90 568 93 562 107 c 2
 480 293 l 2
 464 329 455 335 439 335 c 2
 394 335 l 2
 378 335 369 329 353 293 c 2
 271 107 l 2
 265 93 250 90 238 90 c 2
 231 90 l 2
 215 90 203 99 198 121 c 2
 173 234 l 2
 168 259 168 305 168 335 c 2
 168 630 l 1
 178 630 l 1
 178 336 l 2
 178 306 178 260 183 235 c 2
 208 121 l 2
 210 110 220 100 231 100 c 2
 236 100 l 2
 246 100 257 100 263 114 c 2
 345 298 l 2
 362 336 373 345 394 345 c 2
 439 345 l 2
305 847 m 1
 544 877 l 1
 544 867 l 1
 305 837 l 1
 305 847 l 1
EndSplineSet
Substitution2: "'ss12' Style Set 12 in Latin lookup 25 subtable" Wacute.v
Substitution2: "'ss01' Style Set 1 in Latin lookup 21 subtable" Wacute.v
Substitution2: "'vert' Vertical Alternates (obs) in Latin lookup 20 subtable" Wacute.v
Substitution2: "'ss02' Style Set 2 in Latin lookup 8 subtable" Wacute.salt
Position2: "'ss11' Style Set 11 in Latin lookup 1 per glyph data 25" dx=225 dy=0 dh=449 dv=0
EndChar

StartChar: Wdieresis
Encoding: 7812 7812 103
Width: 831
Flags: MW
HStem: 90 10<223 236 231 236 236 238 597 602> 335 10<386 439 394 439> 830 47<279 289 279 289 537 547>
VStem: 168 10<335 336 336 630> 279 10<830 877> 537 10<830 877> 655 10<336 630>
LayerCount: 2
Fore
SplineSet
439 345 m 2
 460 345 471 336 488 298 c 2
 570 114 l 2
 576 100 587 100 597 100 c 2
 602 100 l 2
 613 100 623 110 625 121 c 2
 650 235 l 2
 655 260 655 306 655 336 c 2
 655 630 l 1
 665 630 l 1
 665 335 l 2
 665 305 665 259 660 234 c 2
 635 121 l 2
 630 99 618 90 602 90 c 2
 595 90 l 2
 583 90 568 93 562 107 c 2
 480 293 l 2
 464 329 455 335 439 335 c 2
 394 335 l 2
 378 335 369 329 353 293 c 2
 271 107 l 2
 265 93 250 90 238 90 c 2
 231 90 l 2
 215 90 203 99 198 121 c 2
 173 234 l 2
 168 259 168 305 168 335 c 2
 168 630 l 1
 178 630 l 1
 178 336 l 2
 178 306 178 260 183 235 c 2
 208 121 l 2
 210 110 220 100 231 100 c 2
 236 100 l 2
 246 100 257 100 263 114 c 2
 345 298 l 2
 362 336 373 345 394 345 c 2
 439 345 l 2
289 830 m 1
 279 830 l 1
 279 877 l 1
 289 877 l 1
 289 830 l 1
547 830 m 1
 537 830 l 1
 537 877 l 1
 547 877 l 1
 547 830 l 1
EndSplineSet
Substitution2: "'ss12' Style Set 12 in Latin lookup 25 subtable" Wdieresis.v
Substitution2: "'ss01' Style Set 1 in Latin lookup 21 subtable" Wdieresis.v
Substitution2: "'vert' Vertical Alternates (obs) in Latin lookup 20 subtable" Wdieresis.v
Substitution2: "'ss02' Style Set 2 in Latin lookup 8 subtable" Wdieresis.salt
Position2: "'ss11' Style Set 11 in Latin lookup 1 per glyph data 25" dx=225 dy=0 dh=449 dv=0
EndChar

StartChar: X
Encoding: 88 88 104
Width: 737
Flags: MW
HStem: 370 10<311 429 309 430>
VStem: 167 10<90 135 90 149.5 615 630> 560 10<90 135 90 149 615 630>
LayerCount: 2
Fore
SplineSet
177 135 m 2
 177 90 l 1
 167 90 l 1
 167 135 l 2
 167 164 166 190 182 212 c 2
 302 376 l 1
 182 538 l 2
 167 559 167 586 167 615 c 2
 167 630 l 1
 177 630 l 1
 177 615 l 2
 177 587 177 561 191 542 c 2
 311 380 l 1
 430 380 l 1
 546 542 l 2
 559 561 560 587 560 615 c 2
 560 630 l 1
 570 630 l 1
 570 615 l 2
 570 586 570 559 555 538 c 2
 437 374 l 1
 555 212 l 2
 570 191 570 164 570 135 c 2
 570 90 l 1
 560 90 l 1
 560 135 l 2
 560 163 560 189 546 208 c 2
 429 370 l 1
 309 370 l 1
 191 208 l 2
 178 190 177 163 177 135 c 2
EndSplineSet
Substitution2: "'ss12' Style Set 12 in Latin lookup 25 subtable" X.v
Substitution2: "'ss01' Style Set 1 in Latin lookup 21 subtable" X.v
Substitution2: "'vert' Vertical Alternates (obs) in Latin lookup 20 subtable" X.v
Substitution2: "'ss02' Style Set 2 in Latin lookup 9 subtable" X.salt
Position2: "'ss11' Style Set 11 in Latin lookup 1 per glyph data 40" dx=272 dy=0 dh=543 dv=0
EndChar

StartChar: Y
Encoding: 89 89 105
Width: 705
Flags: MW
HStem: 261 10<323.5 365 338 348 358 365 358 358>
VStem: 153 10<515 630> 348 10<90 261 90 261> 544 10<515 630>
LayerCount: 2
Fore
SplineSet
365 261 m 2
 358 261 l 1
 358 90 l 1
 348 90 l 1
 348 261 l 1
 338 261 l 2
 309 261 287 273 265 303 c 2
 168 438 l 2
 153 458 153 486 153 515 c 2
 153 630 l 1
 163 630 l 1
 163 515 l 2
 163 487 164 462 177 442 c 2
 274 307 l 2
 292 280 315 271 338 271 c 2
 365 271 l 2
 390 271 410 281 430 307 c 2
 530 442 l 2
 544 460 544 487 544 515 c 2
 544 630 l 1
 554 630 l 1
 554 515 l 2
 554 486 555 459 539 438 c 2
 439 303 l 2
 417 274 396 261 365 261 c 2
EndSplineSet
Substitution2: "'ss12' Style Set 12 in Latin lookup 25 subtable" Y.v
Substitution2: "'ss01' Style Set 1 in Latin lookup 21 subtable" Y.v
Substitution2: "'vert' Vertical Alternates (obs) in Latin lookup 20 subtable" Y.v
Substitution2: "'ss02' Style Set 2 in Latin lookup 10 subtable" Y.salt
Position2: "'ss11' Style Set 11 in Latin lookup 1 per glyph data 57" dx=288 dy=0 dh=575 dv=0
EndChar

StartChar: Yacute
Encoding: 221 221 106
Width: 705
Flags: MW
HStem: 261 10<323.5 365 338 348 358 365 358 358>
VStem: 153 10<515 630> 348 10<90 261 90 261> 544 10<515 630>
LayerCount: 2
Fore
SplineSet
365 261 m 2
 358 261 l 1
 358 90 l 1
 348 90 l 1
 348 261 l 1
 338 261 l 2
 309 261 287 273 265 303 c 2
 168 438 l 2
 153 458 153 486 153 515 c 2
 153 630 l 1
 163 630 l 1
 163 515 l 2
 163 487 164 462 177 442 c 2
 274 307 l 2
 292 280 315 271 338 271 c 2
 365 271 l 2
 390 271 410 281 430 307 c 2
 530 442 l 2
 544 460 544 487 544 515 c 2
 544 630 l 1
 554 630 l 1
 554 515 l 2
 554 486 555 459 539 438 c 2
 439 303 l 2
 417 274 396 261 365 261 c 2
242 847 m 1
 481 877 l 1
 481 867 l 1
 242 837 l 1
 242 847 l 1
EndSplineSet
Substitution2: "'ss12' Style Set 12 in Latin lookup 25 subtable" Yacute.v
Substitution2: "'ss01' Style Set 1 in Latin lookup 21 subtable" Yacute.v
Substitution2: "'vert' Vertical Alternates (obs) in Latin lookup 20 subtable" Yacute.v
Substitution2: "'ss02' Style Set 2 in Latin lookup 10 subtable" Yacute.salt
Position2: "'ss11' Style Set 11 in Latin lookup 1 per glyph data 57" dx=288 dy=0 dh=575 dv=0
EndChar

StartChar: Ycircumflex
Encoding: 374 374 107
Width: 705
Flags: MW
HStem: 261 10<323.5 365 338 348 358 365 358 358> 878 10<315 319>
VStem: 153 10<515 630> 348 10<90 261 90 261> 544 10<515 630>
LayerCount: 2
Fore
SplineSet
365 261 m 2
 358 261 l 1
 358 90 l 1
 348 90 l 1
 348 261 l 1
 338 261 l 2
 309 261 287 273 265 303 c 2
 168 438 l 2
 153 458 153 486 153 515 c 2
 153 630 l 1
 163 630 l 1
 163 515 l 2
 163 487 164 462 177 442 c 2
 274 307 l 2
 292 280 315 271 338 271 c 2
 365 271 l 2
 390 271 410 281 430 307 c 2
 530 442 l 2
 544 460 544 487 544 515 c 2
 544 630 l 1
 554 630 l 1
 554 515 l 2
 554 486 555 459 539 438 c 2
 439 303 l 2
 417 274 396 261 365 261 c 2
470 850 m 1
 383 878 l 2
 373 881 364 884 351 884 c 0
 338 884 329 881 319 878 c 2
 232 850 l 1
 232 861 l 1
 315 888 l 2
 327 891 336 894 351 894 c 0
 366 894 375 891 387 888 c 2
 470 861 l 1
 470 850 l 1
EndSplineSet
Substitution2: "'ss12' Style Set 12 in Latin lookup 25 subtable" Ycircumflex.v
Substitution2: "'ss01' Style Set 1 in Latin lookup 21 subtable" Ycircumflex.v
Substitution2: "'vert' Vertical Alternates (obs) in Latin lookup 20 subtable" Ycircumflex.v
Substitution2: "'ss02' Style Set 2 in Latin lookup 10 subtable" Ycircumflex.salt
Position2: "'ss11' Style Set 11 in Latin lookup 1 per glyph data 57" dx=288 dy=0 dh=575 dv=0
EndChar

StartChar: Ydieresis
Encoding: 376 376 108
Width: 705
Flags: MW
HStem: 261 10<323.5 365 338 348 358 365 358 358> 830 47<216 226 216 226 474 484>
VStem: 153 10<515 630> 216 10<830 877> 348 10<90 261 90 261> 474 10<830 877> 544 10<515 630>
LayerCount: 2
Fore
SplineSet
365 261 m 2
 358 261 l 1
 358 90 l 1
 348 90 l 1
 348 261 l 1
 338 261 l 2
 309 261 287 273 265 303 c 2
 168 438 l 2
 153 458 153 486 153 515 c 2
 153 630 l 1
 163 630 l 1
 163 515 l 2
 163 487 164 462 177 442 c 2
 274 307 l 2
 292 280 315 271 338 271 c 2
 365 271 l 2
 390 271 410 281 430 307 c 2
 530 442 l 2
 544 460 544 487 544 515 c 2
 544 630 l 1
 554 630 l 1
 554 515 l 2
 554 486 555 459 539 438 c 2
 439 303 l 2
 417 274 396 261 365 261 c 2
226 830 m 1
 216 830 l 1
 216 877 l 1
 226 877 l 1
 226 830 l 1
484 830 m 1
 474 830 l 1
 474 877 l 1
 484 877 l 1
 484 830 l 1
EndSplineSet
Substitution2: "'ss12' Style Set 12 in Latin lookup 25 subtable" Ydieresis.v
Substitution2: "'ss01' Style Set 1 in Latin lookup 21 subtable" Ydieresis.v
Substitution2: "'vert' Vertical Alternates (obs) in Latin lookup 20 subtable" Ydieresis.v
Substitution2: "'ss02' Style Set 2 in Latin lookup 10 subtable" Ydieresis.salt
Position2: "'ss11' Style Set 11 in Latin lookup 1 per glyph data 57" dx=288 dy=0 dh=575 dv=0
EndChar

StartChar: Ygrave
Encoding: 7922 7922 109
Width: 705
Flags: MW
HStem: 261 10<323.5 365 338 348 358 365 358 358>
VStem: 153 10<515 630> 348 10<90 261 90 261> 544 10<515 630>
LayerCount: 2
Fore
SplineSet
365 261 m 2
 358 261 l 1
 358 90 l 1
 348 90 l 1
 348 261 l 1
 338 261 l 2
 309 261 287 273 265 303 c 2
 168 438 l 2
 153 458 153 486 153 515 c 2
 153 630 l 1
 163 630 l 1
 163 515 l 2
 163 487 164 462 177 442 c 2
 274 307 l 2
 292 280 315 271 338 271 c 2
 365 271 l 2
 390 271 410 281 430 307 c 2
 530 442 l 2
 544 460 544 487 544 515 c 2
 544 630 l 1
 554 630 l 1
 554 515 l 2
 554 486 555 459 539 438 c 2
 439 303 l 2
 417 274 396 261 365 261 c 2
222 867 m 1
 222 877 l 1
 461 847 l 1
 461 837 l 1
 222 867 l 1
EndSplineSet
Substitution2: "'ss12' Style Set 12 in Latin lookup 25 subtable" Ygrave.v
Substitution2: "'ss01' Style Set 1 in Latin lookup 21 subtable" Ygrave.v
Substitution2: "'vert' Vertical Alternates (obs) in Latin lookup 20 subtable" Ygrave.v
Substitution2: "'ss02' Style Set 2 in Latin lookup 10 subtable" Ygrave.salt
Position2: "'ss11' Style Set 11 in Latin lookup 1 per glyph data 57" dx=288 dy=0 dh=575 dv=0
EndChar

StartChar: Z
Encoding: 90 90 110
Width: 660
Flags: MW
HStem: 90 10<176 524 187 524> 620 10<154 459 154 459>
VStem: 156 10<123 137> 480 10<583 597>
LayerCount: 2
Fore
SplineSet
473 544 m 2
 180 168 l 2
 170 156 166 150 166 137 c 2
 166 123 l 2
 166 104 176 100 187 100 c 2
 524 100 l 1
 524 90 l 1
 187 90 l 2
 165 90 156 100 156 123 c 2
 156 139 l 2
 156 154 163 164 173 176 c 2
 466 552 l 2
 476 564 480 570 480 583 c 2
 480 597 l 2
 480 616 470 620 459 620 c 2
 154 620 l 1
 154 630 l 1
 459 630 l 2
 481 630 490 620 490 597 c 2
 490 581 l 2
 490 566 483 556 473 544 c 2
EndSplineSet
Substitution2: "'ss12' Style Set 12 in Latin lookup 25 subtable" Z.v
Substitution2: "'ss01' Style Set 1 in Latin lookup 21 subtable" Z.v
Substitution2: "'vert' Vertical Alternates (obs) in Latin lookup 20 subtable" Z.v
Position2: "'ss11' Style Set 11 in Latin lookup 1 per glyph data 66" dx=310 dy=0 dh=620 dv=0
EndChar

StartChar: Zacute
Encoding: 377 377 111
Width: 660
Flags: MW
HStem: 90 10<176 524 187 524> 620 10<154 459 154 459>
VStem: 156 10<123 137> 480 10<583 597>
LayerCount: 2
Fore
SplineSet
473 544 m 2
 180 168 l 2
 170 156 166 150 166 137 c 2
 166 123 l 2
 166 104 176 100 187 100 c 2
 524 100 l 1
 524 90 l 1
 187 90 l 2
 165 90 156 100 156 123 c 2
 156 139 l 2
 156 154 163 164 173 176 c 2
 466 552 l 2
 476 564 480 570 480 583 c 2
 480 597 l 2
 480 616 470 620 459 620 c 2
 154 620 l 1
 154 630 l 1
 459 630 l 2
 481 630 490 620 490 597 c 2
 490 581 l 2
 490 566 483 556 473 544 c 2
220 847 m 1
 459 877 l 1
 459 867 l 1
 220 837 l 1
 220 847 l 1
EndSplineSet
Substitution2: "'ss12' Style Set 12 in Latin lookup 25 subtable" Zacute.v
Substitution2: "'ss01' Style Set 1 in Latin lookup 21 subtable" Zacute.v
Substitution2: "'vert' Vertical Alternates (obs) in Latin lookup 20 subtable" Zacute.v
Position2: "'ss11' Style Set 11 in Latin lookup 1 per glyph data 66" dx=310 dy=0 dh=620 dv=0
EndChar

StartChar: Zdotaccent
Encoding: 379 379 112
Width: 660
Flags: MW
HStem: 90 10<176 524 187 524> 620 10<154 459 154 459> 830 59<326 336 326 336>
VStem: 156 10<123 137> 326 10<830 889> 480 10<583 597>
LayerCount: 2
Fore
SplineSet
473 544 m 2
 180 168 l 2
 170 156 166 150 166 137 c 2
 166 123 l 2
 166 104 176 100 187 100 c 2
 524 100 l 1
 524 90 l 1
 187 90 l 2
 165 90 156 100 156 123 c 2
 156 139 l 2
 156 154 163 164 173 176 c 2
 466 552 l 2
 476 564 480 570 480 583 c 2
 480 597 l 2
 480 616 470 620 459 620 c 2
 154 620 l 1
 154 630 l 1
 459 630 l 2
 481 630 490 620 490 597 c 2
 490 581 l 2
 490 566 483 556 473 544 c 2
336 830 m 1
 326 830 l 1
 326 889 l 1
 336 889 l 1
 336 830 l 1
EndSplineSet
Substitution2: "'ss12' Style Set 12 in Latin lookup 25 subtable" Zdotaccent.v
Substitution2: "'ss01' Style Set 1 in Latin lookup 21 subtable" Zdotaccent.v
Substitution2: "'vert' Vertical Alternates (obs) in Latin lookup 20 subtable" Zdotaccent.v
Position2: "'ss11' Style Set 11 in Latin lookup 1 per glyph data 66" dx=310 dy=0 dh=620 dv=0
EndChar

StartChar: Zcaron
Encoding: 381 381 113
Width: 660
Flags: MW
HStem: 90 10<176 524 187 524> 620 10<154 459 154 459> 841 10<293 297>
VStem: 156 10<123 137> 480 10<583 597>
LayerCount: 2
Fore
SplineSet
473 544 m 2
 180 168 l 2
 170 156 166 150 166 137 c 2
 166 123 l 2
 166 104 176 100 187 100 c 2
 524 100 l 1
 524 90 l 1
 187 90 l 2
 165 90 156 100 156 123 c 2
 156 139 l 2
 156 154 163 164 173 176 c 2
 466 552 l 2
 476 564 480 570 480 583 c 2
 480 597 l 2
 480 616 470 620 459 620 c 2
 154 620 l 1
 154 630 l 1
 459 630 l 2
 481 630 490 620 490 597 c 2
 490 581 l 2
 490 566 483 556 473 544 c 2
210 879 m 1
 297 851 l 2
 307 848 316 845 329 845 c 0
 342 845 351 848 361 851 c 2
 448 879 l 1
 448 868 l 1
 365 841 l 2
 353 838 344 835 329 835 c 0
 314 835 305 838 293 841 c 2
 210 868 l 1
 210 879 l 1
EndSplineSet
Substitution2: "'ss12' Style Set 12 in Latin lookup 25 subtable" Zcaron.v
Substitution2: "'ss01' Style Set 1 in Latin lookup 21 subtable" Zcaron.v
Substitution2: "'vert' Vertical Alternates (obs) in Latin lookup 20 subtable" Zcaron.v
Position2: "'ss11' Style Set 11 in Latin lookup 1 per glyph data 66" dx=310 dy=0 dh=620 dv=0
EndChar

StartChar: AE
Encoding: 198 198 114
Width: 1005
Flags: MW
HStem: 90 10<559 866 559 866> 263 10<168 549 168 549> 360 10<559 785 559 785> 620 10<284 866 294 549 559 559 559 866>
VStem: 158 10<90 263 273 291> 549 10<100 263 263 263 273 360 370 620>
LayerCount: 2
Fore
SplineSet
168 291 m 2
 168 273 l 1
 549 273 l 1
 549 620 l 1
 294 620 l 2
 274 620 263 611 253 582 c 2
 179 379 l 2
 169 353 168 328 168 291 c 2
158 90 m 1
 158 291 l 2
 158 330 159 355 169 383 c 2
 243 586 l 2
 257 621 270 630 294 630 c 2
 866 630 l 1
 866 620 l 1
 559 620 l 1
 559 370 l 1
 785 370 l 1
 785 360 l 1
 559 360 l 1
 559 100 l 1
 866 100 l 1
 866 90 l 1
 549 90 l 1
 549 263 l 1
 168 263 l 1
 168 90 l 1
 158 90 l 1
EndSplineSet
Substitution2: "'ss12' Style Set 12 in Latin lookup 25 subtable" AE.v
Substitution2: "'ss01' Style Set 1 in Latin lookup 21 subtable" AE.v
Substitution2: "'vert' Vertical Alternates (obs) in Latin lookup 20 subtable" AE.v
Substitution2: "'ss02' Style Set 2 in Latin lookup 5 subtable" AE.salt
Position2: "'ss11' Style Set 11 in Latin lookup 1 per glyph data 18" dx=138 dy=0 dh=275 dv=0
EndChar

StartChar: Eth
Encoding: 208 208 115
Width: 756
Flags: MW
HStem: 90 10<196 430 196 430> 349 10<110 186 110 186 196 290> 620 10<196 430 196 196>
VStem: 186 10<100 349 100 349 100 349 359 620> 580 10<226 491>
LayerCount: 2
Fore
SplineSet
186 90 m 1
 186 349 l 1
 110 349 l 1
 110 359 l 1
 186 359 l 1
 186 630 l 1
 430 630 l 2
 566 630 590 568 590 491 c 2
 590 226 l 2
 590 149 568 90 430 90 c 2
 186 90 l 1
290 349 m 1
 196 349 l 1
 196 100 l 1
 430 100 l 2
 558 100 580 153 580 226 c 2
 580 491 l 2
 580 564 556 620 430 620 c 2
 196 620 l 1
 196 359 l 1
 290 359 l 1
 290 349 l 1
EndSplineSet
Substitution2: "'ss12' Style Set 12 in Latin lookup 25 subtable" Eth.v
Substitution2: "'ss01' Style Set 1 in Latin lookup 21 subtable" Eth.v
Substitution2: "'vert' Vertical Alternates (obs) in Latin lookup 20 subtable" Eth.v
Position2: "'ss11' Style Set 11 in Latin lookup 1 per glyph data 32" dx=262 dy=0 dh=524 dv=0
EndChar

StartChar: Oslash
Encoding: 216 216 116
Width: 737
Flags: MW
HStem: 77 10<345.5 446.5 345.5 450.5> 632 10<287.5 389> 680 20G<507 518 518 518>
VStem: 156 10<212 507> 570 10<212 507>
LayerCount: 2
Fore
SplineSet
166 212 m 2
 166 160 186 119 253 100 c 1
 474 621 l 1
 446 628 411 632 367 632 c 0
 208 632 166 582 166 507 c 2
 166 212 l 2
367 87 m 0
 526 87 570 137 570 212 c 2
 570 507 l 2
 570 559 549 599 483 618 c 1
 263 97 l 1
 290 91 324 87 367 87 c 0
230 20 m 1
 219 20 l 1
 249 91 l 1
 178 111 156 155 156 212 c 2
 156 507 l 2
 156 588 200 642 367 642 c 0
 412 642 449 638 478 631 c 1
 507 700 l 1
 518 700 l 1
 487 628 l 1
 558 607 580 563 580 507 c 2
 580 212 l 2
 580 131 534 77 367 77 c 0
 323 77 287 81 259 88 c 1
 230 20 l 1
EndSplineSet
Substitution2: "'ss12' Style Set 12 in Latin lookup 25 subtable" Oslash.v
Substitution2: "'ss01' Style Set 1 in Latin lookup 21 subtable" Oslash.v
Substitution2: "'vert' Vertical Alternates (obs) in Latin lookup 20 subtable" Oslash.v
Position2: "'ss11' Style Set 11 in Latin lookup 1 per glyph data 40" dx=272 dy=0 dh=543 dv=0
EndChar

StartChar: Thorn
Encoding: 222 222 117
Width: 692
Flags: MW
HStem: 187 10<187 393 187 393> 521 10<187 393 187 393>
VStem: 177 10<90 187 197 521 531 630> 533 10<320 395>
LayerCount: 2
Fore
SplineSet
177 90 m 1
 177 630 l 1
 187 630 l 1
 187 531 l 1
 393 531 l 2
 519 531 543 473 543 395 c 2
 543 320 l 2
 543 242 519 187 393 187 c 2
 187 187 l 1
 187 90 l 1
 177 90 l 1
187 197 m 1
 393 197 l 2
 511 197 533 248 533 320 c 2
 533 395 l 2
 533 467 511 521 393 521 c 2
 187 521 l 1
 187 197 l 1
EndSplineSet
Substitution2: "'ss12' Style Set 12 in Latin lookup 25 subtable" Thorn.v
Substitution2: "'ss01' Style Set 1 in Latin lookup 21 subtable" Thorn.v
Substitution2: "'vert' Vertical Alternates (obs) in Latin lookup 20 subtable" Thorn.v
Position2: "'ss11' Style Set 11 in Latin lookup 1 per glyph data 61" dx=294 dy=0 dh=588 dv=0
EndChar

StartChar: Dcroat
Encoding: 272 272 118
Width: 756
Flags: MW
HStem: 90 10<196 430 196 430> 349 10<110 186 110 186 196 290> 620 10<196 430 196 196>
VStem: 186 10<100 349 100 349 100 349 359 620> 580 10<226 491>
LayerCount: 2
Fore
SplineSet
186 90 m 1
 186 349 l 1
 110 349 l 1
 110 359 l 1
 186 359 l 1
 186 630 l 1
 430 630 l 2
 566 630 590 568 590 491 c 2
 590 226 l 2
 590 149 568 90 430 90 c 2
 186 90 l 1
290 349 m 1
 196 349 l 1
 196 100 l 1
 430 100 l 2
 558 100 580 153 580 226 c 2
 580 491 l 2
 580 564 556 620 430 620 c 2
 196 620 l 1
 196 359 l 1
 290 359 l 1
 290 349 l 1
EndSplineSet
Substitution2: "'ss12' Style Set 12 in Latin lookup 25 subtable" Dcroat.v
Substitution2: "'ss01' Style Set 1 in Latin lookup 21 subtable" Dcroat.v
Substitution2: "'vert' Vertical Alternates (obs) in Latin lookup 20 subtable" Dcroat.v
Position2: "'ss11' Style Set 11 in Latin lookup 1 per glyph data 32" dx=262 dy=0 dh=524 dv=0
EndChar

StartChar: Hbar
Encoding: 294 294 119
Width: 779
Flags: MW
HStem: 242 10<196 583 196 583> 504 10<120 186 120 186 196 583 593 659>
VStem: 186 10<90 242 252 504 514 630> 583 10<90 242 242 242 252 504 90 504 514 630>
LayerCount: 2
Fore
SplineSet
583 504 m 1
 196 504 l 1
 196 252 l 1
 583 252 l 1
 583 504 l 1
186 90 m 1
 186 504 l 1
 120 504 l 1
 120 514 l 1
 186 514 l 1
 186 630 l 1
 196 630 l 1
 196 514 l 1
 583 514 l 1
 583 630 l 1
 593 630 l 1
 593 514 l 1
 659 514 l 1
 659 504 l 1
 593 504 l 1
 593 90 l 1
 583 90 l 1
 583 242 l 1
 196 242 l 1
 196 90 l 1
 186 90 l 1
EndSplineSet
Substitution2: "'ss12' Style Set 12 in Latin lookup 25 subtable" Hbar.v
Substitution2: "'ss01' Style Set 1 in Latin lookup 21 subtable" Hbar.v
Substitution2: "'vert' Vertical Alternates (obs) in Latin lookup 20 subtable" Hbar.v
Position2: "'ss11' Style Set 11 in Latin lookup 1 per glyph data 28" dx=251 dy=0 dh=501 dv=0
EndChar

StartChar: IJ
Encoding: 306 306 120
Width: 744
Flags: MW
HStem: 90 10<159 420 159 420>
VStem: 177 10<400 630> 562 10<256 630>
LayerCount: 2
Fore
SplineSet
187 400 m 1
 177 400 l 1
 177 630 l 1
 187 630 l 1
 187 400 l 1
420 90 m 2
 159 90 l 1
 159 100 l 1
 420 100 l 2
 538 100 562 153 562 256 c 2
 562 630 l 1
 572 630 l 1
 572 256 l 2
 572 149 548 90 420 90 c 2
EndSplineSet
Substitution2: "'ss12' Style Set 12 in Latin lookup 25 subtable" IJ.v
Substitution2: "'ss01' Style Set 1 in Latin lookup 21 subtable" IJ.v
Substitution2: "'vert' Vertical Alternates (obs) in Latin lookup 20 subtable" IJ.v
Position2: "'ss11' Style Set 11 in Latin lookup 1 per glyph data 37" dx=268 dy=0 dh=536 dv=0
EndChar

StartChar: Ldot
Encoding: 319 319 121
Width: 695
Flags: MW
HStem: 90 10<188 536 188 546> 442 55<527 537 527 537>
VStem: 178 10<100 630 100 630 100 630> 527 10<442 497 442 497> 536 10<100 217 90 217>
LayerCount: 2
Fore
SplineSet
178 90 m 1xa8
 178 630 l 1
 188 630 l 1
 188 100 l 1
 536 100 l 1
 536 217 l 1
 546 217 l 1
 546 90 l 1
 178 90 l 1xa8
527 442 m 1xf0
 527 497 l 1
 537 497 l 1
 537 442 l 1
 527 442 l 1xf0
EndSplineSet
Substitution2: "'ss12' Style Set 12 in Latin lookup 25 subtable" Ldot.v
Substitution2: "'ss01' Style Set 1 in Latin lookup 21 subtable" Ldot.v
Substitution2: "'vert' Vertical Alternates (obs) in Latin lookup 20 subtable" Ldot.v
Substitution2: "'ss05' Style Set 5 in Latin lookup 13 subtable" Ldot.salt
Position2: "'ss11' Style Set 11 in Latin lookup 1 per glyph data 59" dx=293 dy=0 dh=585 dv=0
EndChar

StartChar: Lslash
Encoding: 321 321 122
Width: 705
Flags: MW
HStem: 90 10<198 546 198 556>
VStem: 188 10<100 391 391 391 403 630> 546 10<100 297>
LayerCount: 2
Fore
SplineSet
556 90 m 1
 188 90 l 1
 188 391 l 1
 110 378 l 1
 110 388 l 1
 188 401 l 1
 188 630 l 1
 198 630 l 1
 198 403 l 1
 310 421 l 1
 310 411 l 1
 198 393 l 1
 198 100 l 1
 546 100 l 1
 546 297 l 1
 556 297 l 1
 556 90 l 1
EndSplineSet
Substitution2: "'ss12' Style Set 12 in Latin lookup 25 subtable" Lslash.v
Substitution2: "'ss01' Style Set 1 in Latin lookup 21 subtable" Lslash.v
Substitution2: "'vert' Vertical Alternates (obs) in Latin lookup 20 subtable" Lslash.v
Substitution2: "'ss05' Style Set 5 in Latin lookup 13 subtable" Lslash.salt
Position2: "'ss11' Style Set 11 in Latin lookup 1 per glyph data 57" dx=288 dy=0 dh=575 dv=0
EndChar

StartChar: Eng
Encoding: 330 330 123
Width: 746
Flags: MW
HStem: 1 10<445 486 445 491> 632 10<297.5 446.5>
VStem: 171 10<90 507 90 547.5> 562 10<100 507>
LayerCount: 2
Fore
SplineSet
445 1 m 1
 445 11 l 1
 527 11 562 36 562 100 c 2
 562 507 l 2
 562 582 521 632 372 632 c 0
 223 632 181 582 181 507 c 2
 181 90 l 1
 171 90 l 1
 171 507 l 2
 171 588 215 642 372 642 c 0
 529 642 572 588 572 507 c 2
 572 100 l 2
 572 30 537 1 445 1 c 1
EndSplineSet
Substitution2: "'ss12' Style Set 12 in Latin lookup 25 subtable" Eng.v
Substitution2: "'ss01' Style Set 1 in Latin lookup 21 subtable" Eng.v
Substitution2: "'vert' Vertical Alternates (obs) in Latin lookup 20 subtable" Eng.v
Position2: "'ss11' Style Set 11 in Latin lookup 1 per glyph data 36" dx=267 dy=0 dh=534 dv=0
EndChar

StartChar: OE
Encoding: 338 338 124
Width: 1015
Flags: MW
HStem: 90 10<257 549 326 549 559 866> 360 10<559 785 559 785> 620 10<263 866 326 549 559 866 559 559>
VStem: 166 10<226 491 221 529.5> 549 10<100 360 370 620>
LayerCount: 2
Fore
SplineSet
326 90 m 2
 188 90 166 149 166 226 c 2
 166 491 l 2
 166 568 190 630 326 630 c 2
 866 630 l 1
 866 620 l 1
 559 620 l 1
 559 370 l 1
 785 370 l 1
 785 360 l 1
 559 360 l 1
 559 100 l 1
 866 100 l 1
 866 90 l 1
 326 90 l 2
326 100 m 2
 549 100 l 1
 549 620 l 1
 326 620 l 2
 200 620 176 564 176 491 c 2
 176 221 l 2
 177 151 201 100 326 100 c 2
EndSplineSet
Substitution2: "'ss12' Style Set 12 in Latin lookup 25 subtable" OE.v
Substitution2: "'ss01' Style Set 1 in Latin lookup 21 subtable" OE.v
Substitution2: "'vert' Vertical Alternates (obs) in Latin lookup 20 subtable" OE.v
Position2: "'ss11' Style Set 11 in Latin lookup 1 per glyph data 16" dx=133 dy=0 dh=265 dv=0
EndChar

StartChar: Tbar
Encoding: 358 358 125
Width: 656
Flags: MW
HStem: 306 10<188 323 188 323 333 467> 620 10<118 323 118 538 333 333 333 538>
VStem: 323 10<90 306 90 306 316 620>
LayerCount: 2
Fore
SplineSet
467 306 m 1
 333 306 l 1
 333 90 l 1
 323 90 l 1
 323 306 l 1
 188 306 l 1
 188 316 l 1
 323 316 l 1
 323 620 l 1
 118 620 l 1
 118 630 l 1
 538 630 l 1
 538 620 l 1
 333 620 l 1
 333 316 l 1
 467 316 l 1
 467 306 l 1
EndSplineSet
Substitution2: "'ss12' Style Set 12 in Latin lookup 25 subtable" Tbar.v
Substitution2: "'ss01' Style Set 1 in Latin lookup 21 subtable" Tbar.v
Substitution2: "'vert' Vertical Alternates (obs) in Latin lookup 20 subtable" Tbar.v
Position2: "'ss11' Style Set 11 in Latin lookup 1 per glyph data 67" dx=312 dy=0 dh=624 dv=0
EndChar

StartChar: Germandbls
Encoding: 7838 7838 126
Width: 759
Flags: MW
HStem: 90 10<446 502 446 502> 364 10<465 511 465 511> 620 10<193 431 193 193>
VStem: 183 10<90 620> 501 11 606 10<188 276>
LayerCount: 2
Fore
SplineSet
193 90 m 1
 183 90 l 1
 183 630 l 1
 431 630 l 2
 500 630 525 593 505 518 c 2
 465 374 l 1
 511 374 l 2
 581 374 616 345 616 276 c 2
 616 188 l 2
 616 120 585 90 502 90 c 2
 446 90 l 1
 446 100 l 1
 502 100 l 2
 577 100 606 126 606 188 c 2
 606 276 l 2
 606 339 573 364 511 364 c 2
 451 364 l 1
 495 520 l 2
 513 585 492 620 431 620 c 2
 193 620 l 1
 193 90 l 1
EndSplineSet
Substitution2: "'ss12' Style Set 12 in Latin lookup 25 subtable" Germandbls.v
Substitution2: "'ss01' Style Set 1 in Latin lookup 21 subtable" Germandbls.v
Substitution2: "'vert' Vertical Alternates (obs) in Latin lookup 20 subtable" Germandbls.v
Position2: "'ss11' Style Set 11 in Latin lookup 1 per glyph data 31" dx=261 dy=0 dh=521 dv=0
EndChar

StartChar: A.salt
Encoding: 57600 57600 127
Width: 736
Flags: MW
HStem: 271 10<184 555 184 555> 632 10<293.5 442.5>
VStem: 174 10<90 271 281 507> 555 10<90 271 271 271 281 507 90 544.5>
LayerCount: 2
Fore
SplineSet
184 507 m 2
 184 281 l 1
 555 281 l 1
 555 507 l 2
 555 582 517 632 368 632 c 0
 219 632 184 582 184 507 c 2
555 90 m 1
 555 271 l 1
 184 271 l 1
 184 90 l 1
 174 90 l 1
 174 507 l 2
 174 588 211 642 368 642 c 0
 525 642 565 588 565 507 c 2
 565 90 l 1
 555 90 l 1
EndSplineSet
Substitution2: "'ss12' Style Set 12 in Latin lookup 25 subtable" A.salt_v
Substitution2: "'ss01' Style Set 1 in Latin lookup 21 subtable" A.salt_v
Substitution2: "'vert' Vertical Alternates (obs) in Latin lookup 20 subtable" A.salt_v
Position2: "'ss11' Style Set 11 in Latin lookup 1 per glyph data 41" dx=272 dy=0 dh=544 dv=0
EndChar

StartChar: Agrave.salt
Encoding: 57601 57601 128
Width: 736
Flags: MW
HStem: 271 10<184 555 184 555> 632 10<293.5 442.5>
VStem: 174 10<90 271 281 507> 555 10<90 271 271 271 281 507 90 544.5>
LayerCount: 2
Fore
SplineSet
184 507 m 2
 184 281 l 1
 555 281 l 1
 555 507 l 2
 555 582 517 632 368 632 c 0
 219 632 184 582 184 507 c 2
555 90 m 1
 555 271 l 1
 184 271 l 1
 184 90 l 1
 174 90 l 1
 174 507 l 2
 174 588 211 642 368 642 c 0
 525 642 565 588 565 507 c 2
 565 90 l 1
 555 90 l 1
248 867 m 1
 248 877 l 1
 487 847 l 1
 487 837 l 1
 248 867 l 1
EndSplineSet
Substitution2: "'ss12' Style Set 12 in Latin lookup 25 subtable" Agrave.salt_v
Substitution2: "'ss01' Style Set 1 in Latin lookup 21 subtable" Agrave.salt_v
Substitution2: "'vert' Vertical Alternates (obs) in Latin lookup 20 subtable" Agrave.salt_v
Position2: "'ss11' Style Set 11 in Latin lookup 1 per glyph data 41" dx=272 dy=0 dh=544 dv=0
EndChar

StartChar: Aacute.salt
Encoding: 57602 57602 129
Width: 736
Flags: MW
HStem: 271 10<184 555 184 555> 632 10<293.5 442.5>
VStem: 174 10<90 271 281 507> 555 10<90 271 271 271 281 507 90 544.5>
LayerCount: 2
Fore
SplineSet
184 507 m 2
 184 281 l 1
 555 281 l 1
 555 507 l 2
 555 582 517 632 368 632 c 0
 219 632 184 582 184 507 c 2
555 90 m 1
 555 271 l 1
 184 271 l 1
 184 90 l 1
 174 90 l 1
 174 507 l 2
 174 588 211 642 368 642 c 0
 525 642 565 588 565 507 c 2
 565 90 l 1
 555 90 l 1
258 847 m 1
 497 877 l 1
 497 867 l 1
 258 837 l 1
 258 847 l 1
EndSplineSet
Substitution2: "'ss12' Style Set 12 in Latin lookup 25 subtable" Aacute.salt_v
Substitution2: "'ss01' Style Set 1 in Latin lookup 21 subtable" Aacute.salt_v
Substitution2: "'vert' Vertical Alternates (obs) in Latin lookup 20 subtable" Aacute.salt_v
Position2: "'ss11' Style Set 11 in Latin lookup 1 per glyph data 41" dx=272 dy=0 dh=544 dv=0
EndChar

StartChar: Acircumflex.salt
Encoding: 57603 57603 130
Width: 736
Flags: MW
HStem: 271 10<184 555 184 555> 632 10<293.5 442.5> 878 10<331 335>
VStem: 174 10<90 271 281 507> 555 10<90 271 271 271 281 507 90 544.5>
LayerCount: 2
Fore
SplineSet
184 507 m 2
 184 281 l 1
 555 281 l 1
 555 507 l 2
 555 582 517 632 368 632 c 0
 219 632 184 582 184 507 c 2
555 90 m 1
 555 271 l 1
 184 271 l 1
 184 90 l 1
 174 90 l 1
 174 507 l 2
 174 588 211 642 368 642 c 0
 525 642 565 588 565 507 c 2
 565 90 l 1
 555 90 l 1
486 850 m 1
 399 878 l 2
 389 881 380 884 367 884 c 0
 354 884 345 881 335 878 c 2
 248 850 l 1
 248 861 l 1
 331 888 l 2
 343 891 352 894 367 894 c 0
 382 894 391 891 403 888 c 2
 486 861 l 1
 486 850 l 1
EndSplineSet
Substitution2: "'ss12' Style Set 12 in Latin lookup 25 subtable" Acircumflex.salt_v
Substitution2: "'ss01' Style Set 1 in Latin lookup 21 subtable" Acircumflex.salt_v
Substitution2: "'vert' Vertical Alternates (obs) in Latin lookup 20 subtable" Acircumflex.salt_v
Position2: "'ss11' Style Set 11 in Latin lookup 1 per glyph data 41" dx=272 dy=0 dh=544 dv=0
EndChar

StartChar: Atilde.salt
Encoding: 57604 57604 131
Width: 736
Flags: MW
HStem: 271 10<184 555 184 555> 632 10<293.5 442.5> 831 10<486 486> 843 10
VStem: 174 10<90 271 281 507> 555 10<90 271 271 271 281 507 90 544.5>
LayerCount: 2
Fore
SplineSet
184 507 m 2
 184 281 l 1
 555 281 l 1
 555 507 l 2
 555 582 517 632 368 632 c 0
 219 632 184 582 184 507 c 2
555 90 m 1
 555 271 l 1
 184 271 l 1
 184 90 l 1
 174 90 l 1
 174 507 l 2
 174 588 211 642 368 642 c 0
 525 642 565 588 565 507 c 2
 565 90 l 1
 555 90 l 1
486 841 m 1
 486 831 l 1
 459 828 433 831 382 839 c 2xec
 366 841 l 1
 338 845 l 2
 294 852 270 853 248 849 c 1
 248 860 l 1
 271 863 295 861 340 855 c 2
 368 851 l 1
 384 849 l 2
 435 841 459 838 486 841 c 1
EndSplineSet
Substitution2: "'ss12' Style Set 12 in Latin lookup 25 subtable" Atilde.salt_v
Substitution2: "'ss01' Style Set 1 in Latin lookup 21 subtable" Atilde.salt_v
Substitution2: "'vert' Vertical Alternates (obs) in Latin lookup 20 subtable" Atilde.salt_v
Position2: "'ss11' Style Set 11 in Latin lookup 1 per glyph data 41" dx=272 dy=0 dh=544 dv=0
EndChar

StartChar: Adieresis.salt
Encoding: 57605 57605 132
Width: 736
Flags: MW
HStem: 271 10<184 555 184 555> 632 10<293.5 442.5> 830 47<232 242 232 242 490 500>
VStem: 174 10<90 271 281 507> 232 10<830 877> 490 10<830 877> 555 10<90 271 271 271 281 507 90 544.5>
LayerCount: 2
Fore
SplineSet
184 507 m 2
 184 281 l 1
 555 281 l 1
 555 507 l 2
 555 582 517 632 368 632 c 0
 219 632 184 582 184 507 c 2
555 90 m 1
 555 271 l 1
 184 271 l 1
 184 90 l 1
 174 90 l 1
 174 507 l 2
 174 588 211 642 368 642 c 0
 525 642 565 588 565 507 c 2
 565 90 l 1
 555 90 l 1
242 830 m 1
 232 830 l 1
 232 877 l 1
 242 877 l 1
 242 830 l 1
500 830 m 1
 490 830 l 1
 490 877 l 1
 500 877 l 1
 500 830 l 1
EndSplineSet
Substitution2: "'ss12' Style Set 12 in Latin lookup 25 subtable" Adieresis.salt_v
Substitution2: "'ss01' Style Set 1 in Latin lookup 21 subtable" Adieresis.salt_v
Substitution2: "'vert' Vertical Alternates (obs) in Latin lookup 20 subtable" Adieresis.salt_v
Position2: "'ss11' Style Set 11 in Latin lookup 1 per glyph data 41" dx=272 dy=0 dh=544 dv=0
EndChar

StartChar: Aring.salt
Encoding: 57606 57606 133
Width: 736
Flags: MW
HStem: 271 10<184 555 184 555> 632 10<293.5 442.5> 660 10<312.5 419.5 312.5 425.5> 896 10<312.5 419.5>
VStem: 174 10<90 271 281 507> 225 10<760 805> 499 10<760 805> 555 10<90 271 271 271 281 507 90 544.5>
LayerCount: 2
Fore
SplineSet
225 760 m 2
 225 805 l 2
 225 865 247 906 366 906 c 0
 485 906 509 864 509 805 c 2
 509 760 l 2
 509 700 485 660 366 660 c 0
 247 660 225 700 225 760 c 2
366 896 m 0
 259 896 235 861 235 805 c 2
 235 760 l 2
 235 704 259 670 366 670 c 0
 473 670 499 704 499 760 c 2
 499 805 l 2
 499 860 473 896 366 896 c 0
184 507 m 2
 184 281 l 1
 555 281 l 1
 555 507 l 2
 555 582 517 632 368 632 c 0xdf
 219 632 184 582 184 507 c 2
555 90 m 1
 555 271 l 1
 184 271 l 1
 184 90 l 1
 174 90 l 1
 174 507 l 2
 174 588 211 642 368 642 c 0
 525 642 565 588 565 507 c 2
 565 90 l 1
 555 90 l 1
EndSplineSet
Substitution2: "'ss12' Style Set 12 in Latin lookup 25 subtable" Aring.salt_v
Substitution2: "'ss01' Style Set 1 in Latin lookup 21 subtable" Aring.salt_v
Substitution2: "'vert' Vertical Alternates (obs) in Latin lookup 20 subtable" Aring.salt_v
Position2: "'ss11' Style Set 11 in Latin lookup 1 per glyph data 41" dx=272 dy=0 dh=544 dv=0
EndChar

StartChar: Amacron.salt
Encoding: 57607 57607 134
Width: 736
Flags: MW
HStem: 271 10<184 555 184 555> 632 10<293.5 442.5> 837 10<248 487 248 487>
VStem: 174 10<90 271 281 507> 555 10<90 271 271 271 281 507 90 544.5>
LayerCount: 2
Fore
SplineSet
184 507 m 2
 184 281 l 1
 555 281 l 1
 555 507 l 2
 555 582 517 632 368 632 c 0
 219 632 184 582 184 507 c 2
555 90 m 1
 555 271 l 1
 184 271 l 1
 184 90 l 1
 174 90 l 1
 174 507 l 2
 174 588 211 642 368 642 c 0
 525 642 565 588 565 507 c 2
 565 90 l 1
 555 90 l 1
248 847 m 1
 487 847 l 1
 487 837 l 1
 248 837 l 1
 248 847 l 1
EndSplineSet
Substitution2: "'ss12' Style Set 12 in Latin lookup 25 subtable" Amacron.salt_v
Substitution2: "'ss01' Style Set 1 in Latin lookup 21 subtable" Amacron.salt_v
Substitution2: "'vert' Vertical Alternates (obs) in Latin lookup 20 subtable" Amacron.salt_v
Position2: "'ss11' Style Set 11 in Latin lookup 1 per glyph data 41" dx=272 dy=0 dh=544 dv=0
EndChar

StartChar: Abreve.salt
Encoding: 57608 57608 135
Width: 736
Flags: MW
HStem: 271 10<184 555 184 555> 632 10<293.5 442.5> 818 10<313 421 313 429>
VStem: 174 10<90 271 281 507> 227 10<898 907 880 907> 502 10<898 907 879 907> 555 10<90 271 271 271 281 507 90 544.5>
LayerCount: 2
Fore
SplineSet
184 507 m 2
 184 281 l 1
 555 281 l 1
 555 507 l 2
 555 582 517 632 368 632 c 0
 219 632 184 582 184 507 c 2
555 90 m 1
 555 271 l 1
 184 271 l 1
 184 90 l 1
 174 90 l 1
 174 507 l 2
 174 588 211 642 368 642 c 0
 525 642 565 588 565 507 c 2
 565 90 l 1
 555 90 l 1
502 907 m 1
 512 907 l 1
 512 898 l 2
 512 860 491 818 367 818 c 0
 243 818 227 860 227 898 c 2
 227 907 l 1
 237 907 l 1
 237 898 l 2
 237 862 259 828 367 828 c 0
 475 828 502 862 502 898 c 2
 502 907 l 1
EndSplineSet
Substitution2: "'ss12' Style Set 12 in Latin lookup 25 subtable" Abreve.salt_v
Substitution2: "'ss01' Style Set 1 in Latin lookup 21 subtable" Abreve.salt_v
Substitution2: "'vert' Vertical Alternates (obs) in Latin lookup 20 subtable" Abreve.salt_v
Position2: "'ss11' Style Set 11 in Latin lookup 1 per glyph data 41" dx=272 dy=0 dh=544 dv=0
EndChar

StartChar: Aogonek.salt
Encoding: 57609 57609 136
Width: 736
Flags: MW
HStem: -116 10<533.5 582 558 582> 90 7 271 10<184 555 184 555> 632 10<293.5 442.5>
VStem: 174 10<90 271 281 507> 507 10<-43 -41> 555 10<97 271 271 271 281 507 90 544.5>
LayerCount: 2
Fore
SplineSet
582 -106 m 1
 582 -116 l 1
 558 -116 l 2
 509 -116 499 -91 507 -41 c 2
 519 42 l 2
 524 74 528 82 555 97 c 1
 555 271 l 1
 184 271 l 1
 184 90 l 1
 174 90 l 1
 174 507 l 2
 174 588 211 642 368 642 c 0
 525 642 565 588 565 507 c 2
 565 90 l 1
 562 90 l 1
 537 76 533 71 529 42 c 2
 517 -43 l 2
 512 -83 517 -106 558 -106 c 2
 582 -106 l 1
184 507 m 2
 184 281 l 1
 555 281 l 1
 555 507 l 2
 555 582 517 632 368 632 c 0
 219 632 184 582 184 507 c 2
EndSplineSet
Substitution2: "'ss12' Style Set 12 in Latin lookup 25 subtable" Aogonek.salt_v
Substitution2: "'ss01' Style Set 1 in Latin lookup 21 subtable" Aogonek.salt_v
Substitution2: "'vert' Vertical Alternates (obs) in Latin lookup 20 subtable" Aogonek.salt_v
Position2: "'ss11' Style Set 11 in Latin lookup 1 per glyph data 41" dx=272 dy=0 dh=544 dv=0
EndChar

StartChar: E.salt
Encoding: 57610 57610 137
Width: 643
Flags: MW
HStem: 90 10<257 504 322 504> 359 10<172 434 172 434> 620 10<263 504 322 504>
VStem: 162 10<219 359 369 499>
LayerCount: 2
Fore
SplineSet
504 100 m 1
 504 90 l 1
 322 90 l 2
 192 90 162 126 162 219 c 2
 162 499 l 2
 162 594 194 630 322 630 c 2
 504 630 l 1
 504 620 l 1
 322 620 l 2
 204 620 172 588 172 499 c 2
 172 369 l 1
 434 369 l 1
 434 359 l 1
 172 359 l 1
 172 219 l 2
 172 132 202 100 322 100 c 2
 504 100 l 1
EndSplineSet
Substitution2: "'ss12' Style Set 12 in Latin lookup 25 subtable" E.salt_v
Substitution2: "'ss01' Style Set 1 in Latin lookup 21 subtable" E.salt_v
Substitution2: "'vert' Vertical Alternates (obs) in Latin lookup 20 subtable" E.salt_v
Position2: "'ss11' Style Set 11 in Latin lookup 1 per glyph data 74" dx=319 dy=0 dh=637 dv=0
EndChar

StartChar: Egrave.salt
Encoding: 57611 57611 138
Width: 643
Flags: MW
HStem: 90 10<257 504 322 504> 359 10<172 434 172 434> 620 10<263 504 322 504>
VStem: 162 10<219 359 369 499>
LayerCount: 2
Fore
SplineSet
504 100 m 1
 504 90 l 1
 322 90 l 2
 192 90 162 126 162 219 c 2
 162 499 l 2
 162 594 194 630 322 630 c 2
 504 630 l 1
 504 620 l 1
 322 620 l 2
 204 620 172 588 172 499 c 2
 172 369 l 1
 434 369 l 1
 434 359 l 1
 172 359 l 1
 172 219 l 2
 172 132 202 100 322 100 c 2
 504 100 l 1
217 867 m 1
 217 877 l 1
 456 847 l 1
 456 837 l 1
 217 867 l 1
EndSplineSet
Substitution2: "'ss12' Style Set 12 in Latin lookup 25 subtable" Egrave.salt_v
Substitution2: "'ss01' Style Set 1 in Latin lookup 21 subtable" Egrave.salt_v
Substitution2: "'vert' Vertical Alternates (obs) in Latin lookup 20 subtable" Egrave.salt_v
Position2: "'ss11' Style Set 11 in Latin lookup 1 per glyph data 74" dx=319 dy=0 dh=637 dv=0
EndChar

StartChar: Eacute.salt
Encoding: 57612 57612 139
Width: 643
Flags: MW
HStem: 90 10<257 504 322 504> 359 10<172 434 172 434> 620 10<263 504 322 504>
VStem: 162 10<219 359 369 499>
LayerCount: 2
Fore
SplineSet
504 100 m 1
 504 90 l 1
 322 90 l 2
 192 90 162 126 162 219 c 2
 162 499 l 2
 162 594 194 630 322 630 c 2
 504 630 l 1
 504 620 l 1
 322 620 l 2
 204 620 172 588 172 499 c 2
 172 369 l 1
 434 369 l 1
 434 359 l 1
 172 359 l 1
 172 219 l 2
 172 132 202 100 322 100 c 2
 504 100 l 1
237 847 m 1
 476 877 l 1
 476 867 l 1
 237 837 l 1
 237 847 l 1
EndSplineSet
Substitution2: "'ss12' Style Set 12 in Latin lookup 25 subtable" Eacute.salt_v
Substitution2: "'ss01' Style Set 1 in Latin lookup 21 subtable" Eacute.salt_v
Substitution2: "'vert' Vertical Alternates (obs) in Latin lookup 20 subtable" Eacute.salt_v
Position2: "'ss11' Style Set 11 in Latin lookup 1 per glyph data 74" dx=319 dy=0 dh=637 dv=0
EndChar

StartChar: Ecircumflex.salt
Encoding: 57613 57613 140
Width: 643
Flags: MW
HStem: 90 10<257 504 322 504> 359 10<172 434 172 434> 620 10<263 504 322 504> 878 10<310 314>
VStem: 162 10<219 359 369 499>
LayerCount: 2
Fore
SplineSet
504 100 m 1
 504 90 l 1
 322 90 l 2
 192 90 162 126 162 219 c 2
 162 499 l 2
 162 594 194 630 322 630 c 2
 504 630 l 1
 504 620 l 1
 322 620 l 2
 204 620 172 588 172 499 c 2
 172 369 l 1
 434 369 l 1
 434 359 l 1
 172 359 l 1
 172 219 l 2
 172 132 202 100 322 100 c 2
 504 100 l 1
465 850 m 1
 378 878 l 2
 368 881 359 884 346 884 c 0
 333 884 324 881 314 878 c 2
 227 850 l 1
 227 861 l 1
 310 888 l 2
 322 891 331 894 346 894 c 0
 361 894 370 891 382 888 c 2
 465 861 l 1
 465 850 l 1
EndSplineSet
Substitution2: "'ss12' Style Set 12 in Latin lookup 25 subtable" Ecircumflex.salt_v
Substitution2: "'ss01' Style Set 1 in Latin lookup 21 subtable" Ecircumflex.salt_v
Substitution2: "'vert' Vertical Alternates (obs) in Latin lookup 20 subtable" Ecircumflex.salt_v
Position2: "'ss11' Style Set 11 in Latin lookup 1 per glyph data 74" dx=319 dy=0 dh=637 dv=0
EndChar

StartChar: Edieresis.salt
Encoding: 57614 57614 141
Width: 643
Flags: MW
HStem: 90 10<257 504 322 504> 359 10<172 434 172 434> 620 10<263 504 322 504> 830 47<221 231 221 231 479 489>
VStem: 162 10<219 359 369 499> 221 10<830 877> 479 10<830 877>
LayerCount: 2
Fore
SplineSet
504 100 m 1
 504 90 l 1
 322 90 l 2
 192 90 162 126 162 219 c 2
 162 499 l 2
 162 594 194 630 322 630 c 2
 504 630 l 1
 504 620 l 1
 322 620 l 2
 204 620 172 588 172 499 c 2
 172 369 l 1
 434 369 l 1
 434 359 l 1
 172 359 l 1
 172 219 l 2
 172 132 202 100 322 100 c 2
 504 100 l 1
231 830 m 1
 221 830 l 1
 221 877 l 1
 231 877 l 1
 231 830 l 1
489 830 m 1
 479 830 l 1
 479 877 l 1
 489 877 l 1
 489 830 l 1
EndSplineSet
Substitution2: "'ss12' Style Set 12 in Latin lookup 25 subtable" Edieresis.salt_v
Substitution2: "'ss01' Style Set 1 in Latin lookup 21 subtable" Edieresis.salt_v
Substitution2: "'vert' Vertical Alternates (obs) in Latin lookup 20 subtable" Edieresis.salt_v
Position2: "'ss11' Style Set 11 in Latin lookup 1 per glyph data 74" dx=319 dy=0 dh=637 dv=0
EndChar

StartChar: Emacron.salt
Encoding: 57615 57615 142
Width: 643
Flags: MW
HStem: 90 10<257 504 322 504> 359 10<172 434 172 434> 620 10<263 504 322 504> 837 10<237 476 237 476>
VStem: 162 10<219 359 369 499>
LayerCount: 2
Fore
SplineSet
504 100 m 1
 504 90 l 1
 322 90 l 2
 192 90 162 126 162 219 c 2
 162 499 l 2
 162 594 194 630 322 630 c 2
 504 630 l 1
 504 620 l 1
 322 620 l 2
 204 620 172 588 172 499 c 2
 172 369 l 1
 434 369 l 1
 434 359 l 1
 172 359 l 1
 172 219 l 2
 172 132 202 100 322 100 c 2
 504 100 l 1
237 847 m 1
 476 847 l 1
 476 837 l 1
 237 837 l 1
 237 847 l 1
EndSplineSet
Substitution2: "'ss12' Style Set 12 in Latin lookup 25 subtable" Emacron.salt_v
Substitution2: "'ss01' Style Set 1 in Latin lookup 21 subtable" Emacron.salt_v
Substitution2: "'vert' Vertical Alternates (obs) in Latin lookup 20 subtable" Emacron.salt_v
Position2: "'ss11' Style Set 11 in Latin lookup 1 per glyph data 74" dx=319 dy=0 dh=637 dv=0
EndChar

StartChar: Ebreve.salt
Encoding: 57616 57616 143
Width: 643
Flags: MW
HStem: 90 10<257 504 322 504> 359 10<172 434 172 434> 620 10<263 504 322 504> 818 10<302 410 302 418>
VStem: 162 10<219 359 369 499> 216 10<898 907 880 907> 491 10<898 907 879 907>
LayerCount: 2
Fore
SplineSet
504 100 m 1
 504 90 l 1
 322 90 l 2
 192 90 162 126 162 219 c 2
 162 499 l 2
 162 594 194 630 322 630 c 2
 504 630 l 1
 504 620 l 1
 322 620 l 2
 204 620 172 588 172 499 c 2
 172 369 l 1
 434 369 l 1
 434 359 l 1
 172 359 l 1
 172 219 l 2
 172 132 202 100 322 100 c 2
 504 100 l 1
491 907 m 1
 501 907 l 1
 501 898 l 2
 501 860 480 818 356 818 c 0
 232 818 216 860 216 898 c 2
 216 907 l 1
 226 907 l 1
 226 898 l 2
 226 862 248 828 356 828 c 0
 464 828 491 862 491 898 c 2
 491 907 l 1
EndSplineSet
Substitution2: "'ss12' Style Set 12 in Latin lookup 25 subtable" Ebreve.salt_v
Substitution2: "'ss01' Style Set 1 in Latin lookup 21 subtable" Ebreve.salt_v
Substitution2: "'vert' Vertical Alternates (obs) in Latin lookup 20 subtable" Ebreve.salt_v
Position2: "'ss11' Style Set 11 in Latin lookup 1 per glyph data 74" dx=319 dy=0 dh=637 dv=0
EndChar

StartChar: Edotaccent.salt
Encoding: 57617 57617 144
Width: 643
Flags: MW
HStem: 90 10<257 504 322 504> 359 10<172 434 172 434> 620 10<263 504 322 504> 830 59<353 363 353 363>
VStem: 162 10<219 359 369 499> 353 10<830 889>
LayerCount: 2
Fore
SplineSet
504 100 m 1
 504 90 l 1
 322 90 l 2
 192 90 162 126 162 219 c 2
 162 499 l 2
 162 594 194 630 322 630 c 2
 504 630 l 1
 504 620 l 1
 322 620 l 2
 204 620 172 588 172 499 c 2
 172 369 l 1
 434 369 l 1
 434 359 l 1
 172 359 l 1
 172 219 l 2
 172 132 202 100 322 100 c 2
 504 100 l 1
363 830 m 1
 353 830 l 1
 353 889 l 1
 363 889 l 1
 363 830 l 1
EndSplineSet
Substitution2: "'ss12' Style Set 12 in Latin lookup 25 subtable" Edotaccent.salt_v
Substitution2: "'ss01' Style Set 1 in Latin lookup 21 subtable" Edotaccent.salt_v
Substitution2: "'vert' Vertical Alternates (obs) in Latin lookup 20 subtable" Edotaccent.salt_v
Position2: "'ss11' Style Set 11 in Latin lookup 1 per glyph data 74" dx=319 dy=0 dh=637 dv=0
EndChar

StartChar: Eogonek.salt
Encoding: 57618 57618 145
Width: 643
Flags: MW
HStem: -116 10<455.5 504 480 504> 90 10<257 504 322 465 484 484 484 504> 359 10<172 434 172 434> 620 10<263 504 322 504>
VStem: 162 10<219 359 369 499> 429 10<-43 -41>
LayerCount: 2
Fore
SplineSet
504 -106 m 1
 504 -116 l 1
 480 -116 l 2
 431 -116 421 -91 429 -41 c 2
 441 42 l 2
 445 68 449 78 465 90 c 1
 322 90 l 2
 192 90 162 126 162 219 c 2
 162 499 l 2
 162 594 194 630 322 630 c 2
 504 630 l 1
 504 620 l 1
 322 620 l 2
 204 620 172 588 172 499 c 2
 172 369 l 1
 434 369 l 1
 434 359 l 1
 172 359 l 1
 172 219 l 2
 172 132 202 100 322 100 c 2
 504 100 l 1
 504 90 l 1
 484 90 l 1
 459 76 455 71 451 42 c 2
 439 -43 l 2
 434 -83 439 -106 480 -106 c 2
 504 -106 l 1
EndSplineSet
Substitution2: "'ss12' Style Set 12 in Latin lookup 25 subtable" Eogonek.salt_v
Substitution2: "'ss01' Style Set 1 in Latin lookup 21 subtable" Eogonek.salt_v
Substitution2: "'vert' Vertical Alternates (obs) in Latin lookup 20 subtable" Eogonek.salt_v
Position2: "'ss11' Style Set 11 in Latin lookup 1 per glyph data 74" dx=319 dy=0 dh=637 dv=0
EndChar

StartChar: Ecaron.salt
Encoding: 57619 57619 146
Width: 643
Flags: MW
HStem: 90 10<257 504 322 504> 359 10<172 434 172 434> 620 10<263 504 322 504> 841 10<317 321>
VStem: 162 10<219 359 369 499>
LayerCount: 2
Fore
SplineSet
504 100 m 1
 504 90 l 1
 322 90 l 2
 192 90 162 126 162 219 c 2
 162 499 l 2
 162 594 194 630 322 630 c 2
 504 630 l 1
 504 620 l 1
 322 620 l 2
 204 620 172 588 172 499 c 2
 172 369 l 1
 434 369 l 1
 434 359 l 1
 172 359 l 1
 172 219 l 2
 172 132 202 100 322 100 c 2
 504 100 l 1
234 879 m 1
 321 851 l 2
 331 848 340 845 353 845 c 0
 366 845 375 848 385 851 c 2
 472 879 l 1
 472 868 l 1
 389 841 l 2
 377 838 368 835 353 835 c 0
 338 835 329 838 317 841 c 2
 234 868 l 1
 234 879 l 1
EndSplineSet
Substitution2: "'ss12' Style Set 12 in Latin lookup 25 subtable" Ecaron.salt_v
Substitution2: "'ss01' Style Set 1 in Latin lookup 21 subtable" Ecaron.salt_v
Substitution2: "'vert' Vertical Alternates (obs) in Latin lookup 20 subtable" Ecaron.salt_v
Position2: "'ss11' Style Set 11 in Latin lookup 1 per glyph data 74" dx=319 dy=0 dh=637 dv=0
EndChar

StartChar: I.salt
Encoding: 57620 57620 147
Width: 371
Flags: MW
HStem: 90 540<181 191 181 191>
VStem: 181 10<90 630 90 630>
LayerCount: 2
Fore
SplineSet
181 630 m 1
 191 630 l 1
 191 90 l 1
 181 90 l 1
 181 630 l 1
EndSplineSet
Substitution2: "'ss12' Style Set 12 in Latin lookup 25 subtable" I.salt_v
Substitution2: "'ss01' Style Set 1 in Latin lookup 21 subtable" I.salt_v
Substitution2: "'vert' Vertical Alternates (obs) in Latin lookup 20 subtable" I.salt_v
Position2: "'ss11' Style Set 11 in Latin lookup 1 per glyph data 113" dx=455 dy=0 dh=909 dv=0
EndChar

StartChar: Igrave.salt
Encoding: 57621 57621 148
Width: 371
Flags: MW
HStem: 90 785<80 191 80 181>
VStem: 181 10<90 630 90 630>
LayerCount: 2
Fore
SplineSet
80 865 m 1
 80 875 l 1
 289 849 l 1
 289 839 l 1
 80 865 l 1
181 630 m 1
 191 630 l 1
 191 90 l 1
 181 90 l 1
 181 630 l 1
EndSplineSet
Substitution2: "'ss12' Style Set 12 in Latin lookup 25 subtable" Igrave.salt_v
Substitution2: "'ss01' Style Set 1 in Latin lookup 21 subtable" Igrave.salt_v
Substitution2: "'vert' Vertical Alternates (obs) in Latin lookup 20 subtable" Igrave.salt_v
Position2: "'ss11' Style Set 11 in Latin lookup 1 per glyph data 113" dx=455 dy=0 dh=909 dv=0
EndChar

StartChar: Iacute.salt
Encoding: 57622 57622 149
Width: 371
Flags: MW
HStem: 90 785<181 289 181 289>
VStem: 181 10<90 630 90 630>
LayerCount: 2
Fore
SplineSet
80 849 m 1
 289 875 l 1
 289 865 l 1
 80 839 l 1
 80 849 l 1
181 630 m 1
 191 630 l 1
 191 90 l 1
 181 90 l 1
 181 630 l 1
EndSplineSet
Substitution2: "'ss12' Style Set 12 in Latin lookup 25 subtable" Iacute.salt_v
Substitution2: "'ss01' Style Set 1 in Latin lookup 21 subtable" Iacute.salt_v
Substitution2: "'vert' Vertical Alternates (obs) in Latin lookup 20 subtable" Iacute.salt_v
Position2: "'ss11' Style Set 11 in Latin lookup 1 per glyph data 113" dx=455 dy=0 dh=909 dv=0
EndChar

StartChar: Icircumflex.salt
Encoding: 57623 57623 150
Width: 371
Flags: MW
HStem: 878 10<149 153>
VStem: 181 10<90 630 90 630>
LayerCount: 2
Fore
SplineSet
181 630 m 1
 191 630 l 1
 191 90 l 1
 181 90 l 1
 181 630 l 1
304 850 m 1
 217 878 l 2
 207 881 198 884 185 884 c 0
 172 884 163 881 153 878 c 2
 66 850 l 1
 66 861 l 1
 149 888 l 2
 161 891 170 894 185 894 c 0
 200 894 209 891 221 888 c 2
 304 861 l 1
 304 850 l 1
EndSplineSet
Substitution2: "'ss12' Style Set 12 in Latin lookup 25 subtable" Icircumflex.salt_v
Substitution2: "'ss01' Style Set 1 in Latin lookup 21 subtable" Icircumflex.salt_v
Substitution2: "'vert' Vertical Alternates (obs) in Latin lookup 20 subtable" Icircumflex.salt_v
Position2: "'ss11' Style Set 11 in Latin lookup 1 per glyph data 113" dx=455 dy=0 dh=909 dv=0
EndChar

StartChar: Idieresis.salt
Encoding: 57624 57624 151
Width: 371
Flags: MW
HStem: 830 47<49 59 49 59 307 317>
VStem: 49 10<830 877> 181 10<90 630 90 630> 307 10<830 877>
LayerCount: 2
Fore
SplineSet
181 630 m 1
 191 630 l 1
 191 90 l 1
 181 90 l 1
 181 630 l 1
59 830 m 1
 49 830 l 1
 49 877 l 1
 59 877 l 1
 59 830 l 1
317 830 m 1
 307 830 l 1
 307 877 l 1
 317 877 l 1
 317 830 l 1
EndSplineSet
Substitution2: "'ss12' Style Set 12 in Latin lookup 25 subtable" Idieresis.salt_v
Substitution2: "'ss01' Style Set 1 in Latin lookup 21 subtable" Idieresis.salt_v
Substitution2: "'vert' Vertical Alternates (obs) in Latin lookup 20 subtable" Idieresis.salt_v
Position2: "'ss11' Style Set 11 in Latin lookup 1 per glyph data 113" dx=455 dy=0 dh=909 dv=0
EndChar

StartChar: Itilde.salt
Encoding: 57625 57625 152
Width: 371
Flags: MW
HStem: 831 10<304 304> 843 10
VStem: 181 10<90 630 90 630>
LayerCount: 2
Fore
SplineSet
181 630 m 1
 191 630 l 1
 191 90 l 1
 181 90 l 1
 181 630 l 1
304 841 m 1
 304 831 l 1
 277 828 251 831 200 839 c 2xa0
 184 841 l 1
 156 845 l 2
 112 852 88 853 66 849 c 1
 66 860 l 1
 89 863 113 861 158 855 c 2
 186 851 l 1
 202 849 l 2
 253 841 277 838 304 841 c 1
EndSplineSet
Substitution2: "'ss12' Style Set 12 in Latin lookup 25 subtable" Itilde.salt_v
Substitution2: "'ss01' Style Set 1 in Latin lookup 21 subtable" Itilde.salt_v
Substitution2: "'vert' Vertical Alternates (obs) in Latin lookup 20 subtable" Itilde.salt_v
Position2: "'ss11' Style Set 11 in Latin lookup 1 per glyph data 113" dx=455 dy=0 dh=909 dv=0
EndChar

StartChar: Imacron.salt
Encoding: 57626 57626 153
Width: 371
Flags: MW
HStem: 837 10<66 305 66 305>
VStem: 181 10<90 630 90 630>
LayerCount: 2
Fore
SplineSet
181 630 m 1
 191 630 l 1
 191 90 l 1
 181 90 l 1
 181 630 l 1
66 847 m 1
 305 847 l 1
 305 837 l 1
 66 837 l 1
 66 847 l 1
EndSplineSet
Substitution2: "'ss12' Style Set 12 in Latin lookup 25 subtable" Imacron.salt_v
Substitution2: "'ss01' Style Set 1 in Latin lookup 21 subtable" Imacron.salt_v
Substitution2: "'vert' Vertical Alternates (obs) in Latin lookup 20 subtable" Imacron.salt_v
Position2: "'ss11' Style Set 11 in Latin lookup 1 per glyph data 113" dx=455 dy=0 dh=909 dv=0
EndChar

StartChar: Ibreve.salt
Encoding: 57627 57627 154
Width: 371
Flags: MW
HStem: 818 10<130 238 130 246>
VStem: 44 10<898 907 880 907> 181 10<90 630 90 630> 319 10<898 907 879 907>
LayerCount: 2
Fore
SplineSet
181 630 m 1
 191 630 l 1
 191 90 l 1
 181 90 l 1
 181 630 l 1
319 907 m 1
 329 907 l 1
 329 898 l 2
 329 860 308 818 184 818 c 0
 60 818 44 860 44 898 c 2
 44 907 l 1
 54 907 l 1
 54 898 l 2
 54 862 76 828 184 828 c 0
 292 828 319 862 319 898 c 2
 319 907 l 1
EndSplineSet
Substitution2: "'ss12' Style Set 12 in Latin lookup 25 subtable" Ibreve.salt_v
Substitution2: "'ss01' Style Set 1 in Latin lookup 21 subtable" Ibreve.salt_v
Substitution2: "'vert' Vertical Alternates (obs) in Latin lookup 20 subtable" Ibreve.salt_v
Position2: "'ss11' Style Set 11 in Latin lookup 1 per glyph data 113" dx=455 dy=0 dh=909 dv=0
EndChar

StartChar: Iogonek.salt
Encoding: 57628 57628 155
Width: 371
Flags: MW
HStem: -116 10<158.5 207 183 207> 90 8<181 191 181 187>
VStem: 132 10<-43 -41> 181 10<98 630 90 630>
LayerCount: 2
Fore
SplineSet
207 -106 m 1
 207 -116 l 1
 183 -116 l 2
 134 -116 124 -91 132 -41 c 2
 144 42 l 2
 149 74 153 82 181 98 c 1
 181 630 l 1
 191 630 l 1
 191 90 l 1
 187 90 l 1
 162 76 158 71 154 42 c 2
 142 -43 l 2
 137 -83 142 -106 183 -106 c 2
 207 -106 l 1
EndSplineSet
Substitution2: "'ss12' Style Set 12 in Latin lookup 25 subtable" Iogonek.salt_v
Substitution2: "'ss01' Style Set 1 in Latin lookup 21 subtable" Iogonek.salt_v
Substitution2: "'vert' Vertical Alternates (obs) in Latin lookup 20 subtable" Iogonek.salt_v
Position2: "'ss11' Style Set 11 in Latin lookup 1 per glyph data 113" dx=455 dy=0 dh=909 dv=0
EndChar

StartChar: Idotaccent.salt
Encoding: 57629 57629 156
Width: 371
Flags: MW
HStem: 830 59<180 190 180 190>
VStem: 181 10<90 630 90 630>
LayerCount: 2
Fore
SplineSet
181 630 m 1
 191 630 l 1
 191 90 l 1
 181 90 l 1
 181 630 l 1
190 830 m 1
 180 830 l 1
 180 889 l 1
 190 889 l 1
 190 830 l 1
EndSplineSet
Substitution2: "'ss12' Style Set 12 in Latin lookup 25 subtable" Idotaccent.salt_v
Substitution2: "'ss01' Style Set 1 in Latin lookup 21 subtable" Idotaccent.salt_v
Substitution2: "'vert' Vertical Alternates (obs) in Latin lookup 20 subtable" Idotaccent.salt_v
Position2: "'ss11' Style Set 11 in Latin lookup 1 per glyph data 113" dx=455 dy=0 dh=909 dv=0
EndChar

StartChar: L.salt
Encoding: 57630 57630 157
Width: 615
Flags: MW
HStem: 90 10<188 497 188 497>
VStem: 178 10<100 630 100 630 100 630>
LayerCount: 2
Fore
SplineSet
178 90 m 1
 178 630 l 1
 188 630 l 1
 188 100 l 1
 497 100 l 1
 497 90 l 1
 178 90 l 1
EndSplineSet
Substitution2: "'ss12' Style Set 12 in Latin lookup 25 subtable" L.salt_v
Substitution2: "'ss01' Style Set 1 in Latin lookup 21 subtable" L.salt_v
Substitution2: "'vert' Vertical Alternates (obs) in Latin lookup 20 subtable" L.salt_v
Position2: "'ss11' Style Set 11 in Latin lookup 1 per glyph data 82" dx=333 dy=0 dh=665 dv=0
EndChar

StartChar: Lacute.salt
Encoding: 57631 57631 158
Width: 615
Flags: MW
HStem: 90 10<188 497 188 497>
VStem: 178 10<100 630 100 630 100 630>
LayerCount: 2
Fore
SplineSet
178 90 m 1
 178 630 l 1
 188 630 l 1
 188 100 l 1
 497 100 l 1
 497 90 l 1
 178 90 l 1
159 847 m 1
 398 877 l 1
 398 867 l 1
 159 837 l 1
 159 847 l 1
EndSplineSet
Substitution2: "'ss12' Style Set 12 in Latin lookup 25 subtable" Lacute.salt_v
Substitution2: "'ss01' Style Set 1 in Latin lookup 21 subtable" Lacute.salt_v
Substitution2: "'vert' Vertical Alternates (obs) in Latin lookup 20 subtable" Lacute.salt_v
Position2: "'ss11' Style Set 11 in Latin lookup 1 per glyph data 82" dx=333 dy=0 dh=665 dv=0
EndChar

StartChar: Lcommaaccent.salt
Encoding: 57632 57632 159
Width: 615
Flags: MW
HStem: -315 10<275 310 275 310> -142 10<275 383 275 393> 90 10<188 497 188 497>
VStem: 178 10<100 630 100 630 100 630> 383 10<-229 -142 -142 -142>
LayerCount: 2
Fore
SplineSet
178 90 m 1
 178 630 l 1
 188 630 l 1
 188 100 l 1
 497 100 l 1
 497 90 l 1
 178 90 l 1
393 -132 m 1
 393 -229 l 2
 393 -290 364 -315 310 -315 c 2
 275 -315 l 1
 275 -305 l 1
 310 -305 l 2
 358 -305 383 -283 383 -229 c 2
 383 -142 l 1
 275 -142 l 1
 275 -132 l 1
 393 -132 l 1
EndSplineSet
Substitution2: "'ss12' Style Set 12 in Latin lookup 25 subtable" Lcommaaccent.salt_v
Substitution2: "'ss01' Style Set 1 in Latin lookup 21 subtable" Lcommaaccent.salt_v
Substitution2: "'vert' Vertical Alternates (obs) in Latin lookup 20 subtable" Lcommaaccent.salt_v
Position2: "'ss11' Style Set 11 in Latin lookup 1 per glyph data 82" dx=333 dy=0 dh=665 dv=0
EndChar

StartChar: Lcaron.salt
Encoding: 57633 57633 160
Width: 615
Flags: MW
HStem: 90 10<188 497 188 497> 537 93
VStem: 178 10<100 630 100 630 100 630>
LayerCount: 2
Fore
SplineSet
178 90 m 1
 178 630 l 1
 188 630 l 1
 188 100 l 1
 497 100 l 1
 497 90 l 1
 178 90 l 1
484 537 m 1
 473 537 l 1
 491 630 l 1
 502 630 l 1
 484 537 l 1
EndSplineSet
Substitution2: "'ss12' Style Set 12 in Latin lookup 25 subtable" Lcaron.salt_v
Substitution2: "'ss01' Style Set 1 in Latin lookup 21 subtable" Lcaron.salt_v
Substitution2: "'vert' Vertical Alternates (obs) in Latin lookup 20 subtable" Lcaron.salt_v
Position2: "'ss11' Style Set 11 in Latin lookup 1 per glyph data 82" dx=333 dy=0 dh=665 dv=0
EndChar

StartChar: Ldot.salt
Encoding: 57634 57634 161
Width: 615
Flags: MW
HStem: 90 10<188 497 188 497> 400 59<486 496 486 496>
VStem: 178 10<100 630 100 630 100 630> 486 10<400 459>
LayerCount: 2
Fore
SplineSet
178 90 m 1
 178 630 l 1
 188 630 l 1
 188 100 l 1
 497 100 l 1
 497 90 l 1
 178 90 l 1
496 400 m 1
 486 400 l 1
 486 459 l 1
 496 459 l 1
 496 400 l 1
EndSplineSet
Substitution2: "'ss12' Style Set 12 in Latin lookup 25 subtable" Ldot.salt_v
Substitution2: "'ss01' Style Set 1 in Latin lookup 21 subtable" Ldot.salt_v
Substitution2: "'vert' Vertical Alternates (obs) in Latin lookup 20 subtable" Ldot.salt_v
Position2: "'ss11' Style Set 11 in Latin lookup 1 per glyph data 82" dx=333 dy=0 dh=665 dv=0
EndChar

StartChar: Lslash.salt
Encoding: 57635 57635 162
Width: 625
Flags: MW
HStem: 90 10<198 507 198 507>
VStem: 188 10<100 391 391 391 403 630>
LayerCount: 2
Fore
SplineSet
188 90 m 1
 188 391 l 1
 110 378 l 1
 110 388 l 1
 188 401 l 1
 188 630 l 1
 198 630 l 1
 198 403 l 1
 310 421 l 1
 310 411 l 1
 198 393 l 1
 198 100 l 1
 507 100 l 1
 507 90 l 1
 188 90 l 1
EndSplineSet
Substitution2: "'ss12' Style Set 12 in Latin lookup 25 subtable" Lslash.salt_v
Substitution2: "'ss01' Style Set 1 in Latin lookup 21 subtable" Lslash.salt_v
Substitution2: "'vert' Vertical Alternates (obs) in Latin lookup 20 subtable" Lslash.salt_v
Position2: "'ss11' Style Set 11 in Latin lookup 1 per glyph data 80" dx=328 dy=0 dh=655 dv=0
EndChar

StartChar: M.salt
Encoding: 57636 57636 163
Width: 1070
Flags: MW
HStem: 632 10<288.5 415 284.5 423.5 656 782.5>
VStem: 171 10<90 507 90 547.5> 530 10<90 507 90 544.5> 889 10<90 507 90 544.5>
LayerCount: 2
Fore
SplineSet
181 507 m 2
 181 90 l 1
 171 90 l 1
 171 507 l 2
 171 588 213 642 356 642 c 0
 474 642 522 605 535 547 c 1
 548 605 597 642 715 642 c 0
 858 642 899 588 899 507 c 2
 899 90 l 1
 889 90 l 1
 889 507 l 2
 889 582 850 632 715 632 c 0
 580 632 540 582 540 507 c 2
 540 90 l 1
 530 90 l 1
 530 507 l 2
 530 582 491 632 356 632 c 0
 221 632 181 582 181 507 c 2
EndSplineSet
Substitution2: "'ss12' Style Set 12 in Latin lookup 25 subtable" M.salt_v
Substitution2: "'ss01' Style Set 1 in Latin lookup 21 subtable" M.salt_v
Substitution2: "'vert' Vertical Alternates (obs) in Latin lookup 20 subtable" M.salt_v
Position2: "'ss11' Style Set 11 in Latin lookup 1 per glyph data 14" dx=105 dy=0 dh=210 dv=0
EndChar

StartChar: N.salt
Encoding: 57637 57637 164
Width: 746
Flags: MW
HStem: 632 10<297.5 446.5>
VStem: 171 10<90 507 90 547.5> 562 10<90 507>
LayerCount: 2
Fore
SplineSet
572 90 m 1
 562 90 l 1
 562 507 l 2
 562 582 521 632 372 632 c 0
 223 632 181 582 181 507 c 2
 181 90 l 1
 171 90 l 1
 171 507 l 2
 171 588 215 642 372 642 c 0
 529 642 572 588 572 507 c 2
 572 90 l 1
EndSplineSet
Substitution2: "'ss12' Style Set 12 in Latin lookup 25 subtable" N.salt_v
Substitution2: "'ss01' Style Set 1 in Latin lookup 21 subtable" N.salt_v
Substitution2: "'vert' Vertical Alternates (obs) in Latin lookup 20 subtable" N.salt_v
Position2: "'ss11' Style Set 11 in Latin lookup 1 per glyph data 36" dx=267 dy=0 dh=534 dv=0
EndChar

StartChar: Ntilde.salt
Encoding: 57638 57638 165
Width: 746
Flags: MW
HStem: 632 10<297.5 446.5> 831 10<491 491> 843 10
VStem: 171 10<90 507 90 547.5> 562 10<90 507>
LayerCount: 2
Fore
SplineSet
572 90 m 1
 562 90 l 1
 562 507 l 2
 562 582 521 632 372 632 c 0
 223 632 181 582 181 507 c 2
 181 90 l 1
 171 90 l 1
 171 507 l 2
 171 588 215 642 372 642 c 0
 529 642 572 588 572 507 c 2
 572 90 l 1
491 841 m 1
 491 831 l 1
 464 828 438 831 387 839 c 2xd8
 371 841 l 1
 343 845 l 2
 299 852 275 853 253 849 c 1
 253 860 l 1
 276 863 300 861 345 855 c 2
 373 851 l 1
 389 849 l 2
 440 841 464 838 491 841 c 1
EndSplineSet
Substitution2: "'ss12' Style Set 12 in Latin lookup 25 subtable" Ntilde.salt_v
Substitution2: "'ss01' Style Set 1 in Latin lookup 21 subtable" Ntilde.salt_v
Substitution2: "'vert' Vertical Alternates (obs) in Latin lookup 20 subtable" Ntilde.salt_v
Position2: "'ss11' Style Set 11 in Latin lookup 1 per glyph data 36" dx=267 dy=0 dh=534 dv=0
EndChar

StartChar: Nacute.salt
Encoding: 57639 57639 166
Width: 746
Flags: MW
HStem: 632 10<297.5 446.5>
VStem: 171 10<90 507 90 547.5> 562 10<90 507>
LayerCount: 2
Fore
SplineSet
572 90 m 1
 562 90 l 1
 562 507 l 2
 562 582 521 632 372 632 c 0
 223 632 181 582 181 507 c 2
 181 90 l 1
 171 90 l 1
 171 507 l 2
 171 588 215 642 372 642 c 0
 529 642 572 588 572 507 c 2
 572 90 l 1
263 847 m 1
 502 877 l 1
 502 867 l 1
 263 837 l 1
 263 847 l 1
EndSplineSet
Substitution2: "'ss12' Style Set 12 in Latin lookup 25 subtable" Nacute.salt_v
Substitution2: "'ss01' Style Set 1 in Latin lookup 21 subtable" Nacute.salt_v
Substitution2: "'vert' Vertical Alternates (obs) in Latin lookup 20 subtable" Nacute.salt_v
Position2: "'ss11' Style Set 11 in Latin lookup 1 per glyph data 36" dx=267 dy=0 dh=534 dv=0
EndChar

StartChar: Ncommaaccent.salt
Encoding: 57640 57640 167
Width: 746
Flags: MW
HStem: -315 10<314 349 314 349> -142 10<314 422 314 432> 632 10<297.5 446.5>
VStem: 171 10<90 507 90 547.5> 422 10<-229 -142 -142 -142> 562 10<90 507>
LayerCount: 2
Fore
SplineSet
572 90 m 1
 562 90 l 1
 562 507 l 2
 562 582 521 632 372 632 c 0
 223 632 181 582 181 507 c 2
 181 90 l 1
 171 90 l 1
 171 507 l 2
 171 588 215 642 372 642 c 0
 529 642 572 588 572 507 c 2
 572 90 l 1
432 -132 m 1
 432 -229 l 2
 432 -290 403 -315 349 -315 c 2
 314 -315 l 1
 314 -305 l 1
 349 -305 l 2
 397 -305 422 -283 422 -229 c 2
 422 -142 l 1
 314 -142 l 1
 314 -132 l 1
 432 -132 l 1
EndSplineSet
Substitution2: "'ss12' Style Set 12 in Latin lookup 25 subtable" Ncommaaccent.salt_v
Substitution2: "'ss01' Style Set 1 in Latin lookup 21 subtable" Ncommaaccent.salt_v
Substitution2: "'vert' Vertical Alternates (obs) in Latin lookup 20 subtable" Ncommaaccent.salt_v
Position2: "'ss11' Style Set 11 in Latin lookup 1 per glyph data 36" dx=267 dy=0 dh=534 dv=0
EndChar

StartChar: Ncaron.salt
Encoding: 57641 57641 168
Width: 746
Flags: MW
HStem: 632 10<297.5 446.5> 841 10<336 340>
VStem: 171 10<90 507 90 547.5> 562 10<90 507>
LayerCount: 2
Fore
SplineSet
572 90 m 1
 562 90 l 1
 562 507 l 2
 562 582 521 632 372 632 c 0
 223 632 181 582 181 507 c 2
 181 90 l 1
 171 90 l 1
 171 507 l 2
 171 588 215 642 372 642 c 0
 529 642 572 588 572 507 c 2
 572 90 l 1
253 879 m 1
 340 851 l 2
 350 848 359 845 372 845 c 0
 385 845 394 848 404 851 c 2
 491 879 l 1
 491 868 l 1
 408 841 l 2
 396 838 387 835 372 835 c 0
 357 835 348 838 336 841 c 2
 253 868 l 1
 253 879 l 1
EndSplineSet
Substitution2: "'ss12' Style Set 12 in Latin lookup 25 subtable" Ncaron.salt_v
Substitution2: "'ss01' Style Set 1 in Latin lookup 21 subtable" Ncaron.salt_v
Substitution2: "'vert' Vertical Alternates (obs) in Latin lookup 20 subtable" Ncaron.salt_v
Position2: "'ss11' Style Set 11 in Latin lookup 1 per glyph data 36" dx=267 dy=0 dh=534 dv=0
EndChar

StartChar: W.salt
Encoding: 57642 57642 169
Width: 1070
Flags: MW
HStem: 78 10<280.5 411 658 788.5>
VStem: 161 10<213 630> 530 10<213 630> 899 10<213 630>
LayerCount: 2
Fore
SplineSet
719 78 m 0
 597 78 548 115 535 174 c 1
 521 115 472 78 350 78 c 0
 203 78 161 132 161 213 c 2
 161 630 l 1
 171 630 l 1
 171 213 l 2
 171 138 211 88 350 88 c 0
 489 88 530 138 530 213 c 2
 530 630 l 1
 540 630 l 1
 540 213 l 2
 540 138 580 88 719 88 c 0
 858 88 899 138 899 213 c 2
 899 630 l 1
 909 630 l 1
 909 213 l 2
 909 132 866 78 719 78 c 0
EndSplineSet
Substitution2: "'ss12' Style Set 12 in Latin lookup 25 subtable" W.salt_v
Substitution2: "'ss01' Style Set 1 in Latin lookup 21 subtable" W.salt_v
Substitution2: "'vert' Vertical Alternates (obs) in Latin lookup 20 subtable" W.salt_v
Position2: "'ss11' Style Set 11 in Latin lookup 1 per glyph data 14" dx=105 dy=0 dh=210 dv=0
EndChar

StartChar: Wcircumflex.salt
Encoding: 57643 57643 170
Width: 1070
Flags: MW
HStem: 78 10<280.5 411 658 788.5> 878 10<498 502>
VStem: 161 10<213 630> 530 10<213 630> 899 10<213 630>
LayerCount: 2
Fore
SplineSet
719 78 m 0
 597 78 548 115 535 174 c 1
 521 115 472 78 350 78 c 0
 203 78 161 132 161 213 c 2
 161 630 l 1
 171 630 l 1
 171 213 l 2
 171 138 211 88 350 88 c 0
 489 88 530 138 530 213 c 2
 530 630 l 1
 540 630 l 1
 540 213 l 2
 540 138 580 88 719 88 c 0
 858 88 899 138 899 213 c 2
 899 630 l 1
 909 630 l 1
 909 213 l 2
 909 132 866 78 719 78 c 0
653 850 m 1
 566 878 l 2
 556 881 547 884 534 884 c 0
 521 884 512 881 502 878 c 2
 415 850 l 1
 415 861 l 1
 498 888 l 2
 510 891 519 894 534 894 c 0
 549 894 558 891 570 888 c 2
 653 861 l 1
 653 850 l 1
EndSplineSet
Substitution2: "'ss12' Style Set 12 in Latin lookup 25 subtable" Wcircumflex.salt_v
Substitution2: "'ss01' Style Set 1 in Latin lookup 21 subtable" Wcircumflex.salt_v
Substitution2: "'vert' Vertical Alternates (obs) in Latin lookup 20 subtable" Wcircumflex.salt_v
Position2: "'ss11' Style Set 11 in Latin lookup 1 per glyph data 14" dx=105 dy=0 dh=210 dv=0
EndChar

StartChar: Wgrave.salt
Encoding: 57644 57644 171
Width: 1070
Flags: MW
HStem: 78 10<280.5 411 658 788.5>
VStem: 161 10<213 630> 530 10<213 630> 899 10<213 630>
LayerCount: 2
Fore
SplineSet
719 78 m 0
 597 78 548 115 535 174 c 1
 521 115 472 78 350 78 c 0
 203 78 161 132 161 213 c 2
 161 630 l 1
 171 630 l 1
 171 213 l 2
 171 138 211 88 350 88 c 0
 489 88 530 138 530 213 c 2
 530 630 l 1
 540 630 l 1
 540 213 l 2
 540 138 580 88 719 88 c 0
 858 88 899 138 899 213 c 2
 899 630 l 1
 909 630 l 1
 909 213 l 2
 909 132 866 78 719 78 c 0
405 867 m 1
 405 877 l 1
 644 847 l 1
 644 837 l 1
 405 867 l 1
EndSplineSet
Substitution2: "'ss12' Style Set 12 in Latin lookup 25 subtable" Wgrave.salt_v
Substitution2: "'ss01' Style Set 1 in Latin lookup 21 subtable" Wgrave.salt_v
Substitution2: "'vert' Vertical Alternates (obs) in Latin lookup 20 subtable" Wgrave.salt_v
Position2: "'ss11' Style Set 11 in Latin lookup 1 per glyph data 14" dx=105 dy=0 dh=210 dv=0
EndChar

StartChar: Wacute.salt
Encoding: 57645 57645 172
Width: 1070
Flags: MW
HStem: 78 10<280.5 411 658 788.5>
VStem: 161 10<213 630> 530 10<213 630> 899 10<213 630>
LayerCount: 2
Fore
SplineSet
719 78 m 0
 597 78 548 115 535 174 c 1
 521 115 472 78 350 78 c 0
 203 78 161 132 161 213 c 2
 161 630 l 1
 171 630 l 1
 171 213 l 2
 171 138 211 88 350 88 c 0
 489 88 530 138 530 213 c 2
 530 630 l 1
 540 630 l 1
 540 213 l 2
 540 138 580 88 719 88 c 0
 858 88 899 138 899 213 c 2
 899 630 l 1
 909 630 l 1
 909 213 l 2
 909 132 866 78 719 78 c 0
425 847 m 1
 664 877 l 1
 664 867 l 1
 425 837 l 1
 425 847 l 1
EndSplineSet
Substitution2: "'ss12' Style Set 12 in Latin lookup 25 subtable" Wacute.salt_v
Substitution2: "'ss01' Style Set 1 in Latin lookup 21 subtable" Wacute.salt_v
Substitution2: "'vert' Vertical Alternates (obs) in Latin lookup 20 subtable" Wacute.salt_v
Position2: "'ss11' Style Set 11 in Latin lookup 1 per glyph data 14" dx=105 dy=0 dh=210 dv=0
EndChar

StartChar: Wdieresis.salt
Encoding: 57646 57646 173
Width: 1070
Flags: MW
HStem: 78 10<280.5 411 658 788.5> 830 47<399 409 399 409 657 667>
VStem: 161 10<213 630> 399 10<830 877> 530 10<213 630> 657 10<830 877> 899 10<213 630>
LayerCount: 2
Fore
SplineSet
719 78 m 0
 597 78 548 115 535 174 c 1
 521 115 472 78 350 78 c 0
 203 78 161 132 161 213 c 2
 161 630 l 1
 171 630 l 1
 171 213 l 2
 171 138 211 88 350 88 c 0
 489 88 530 138 530 213 c 2
 530 630 l 1
 540 630 l 1
 540 213 l 2
 540 138 580 88 719 88 c 0
 858 88 899 138 899 213 c 2
 899 630 l 1
 909 630 l 1
 909 213 l 2
 909 132 866 78 719 78 c 0
409 830 m 1
 399 830 l 1
 399 877 l 1
 409 877 l 1
 409 830 l 1
667 830 m 1
 657 830 l 1
 657 877 l 1
 667 877 l 1
 667 830 l 1
EndSplineSet
Substitution2: "'ss12' Style Set 12 in Latin lookup 25 subtable" Wdieresis.salt_v
Substitution2: "'ss01' Style Set 1 in Latin lookup 21 subtable" Wdieresis.salt_v
Substitution2: "'vert' Vertical Alternates (obs) in Latin lookup 20 subtable" Wdieresis.salt_v
Position2: "'ss11' Style Set 11 in Latin lookup 1 per glyph data 14" dx=105 dy=0 dh=210 dv=0
EndChar

StartChar: X.salt
Encoding: 57647 57647 174
Width: 737
Flags: MW
HStem: 354 10<239.5 275 270 275 285 453 463 468>
VStem: 169 10<90 256> 559 10<90 256 90 288>
LayerCount: 2
Fore
SplineSet
179 90 m 1
 169 90 l 1
 169 256 l 2
 169 327 202 364 270 364 c 2
 275 364 l 1
 200 630 l 1
 210 630 l 1
 285 364 l 1
 453 364 l 1
 528 630 l 1
 538 630 l 1
 463 364 l 1
 468 364 l 2
 536 364 569 327 569 256 c 2
 569 90 l 1
 559 90 l 1
 559 256 l 2
 559 320 529 354 468 354 c 2
 270 354 l 2
 209 354 179 320 179 256 c 2
 179 90 l 1
EndSplineSet
Substitution2: "'ss12' Style Set 12 in Latin lookup 25 subtable" X.salt_v
Substitution2: "'ss01' Style Set 1 in Latin lookup 21 subtable" X.salt_v
Substitution2: "'vert' Vertical Alternates (obs) in Latin lookup 20 subtable" X.salt_v
Position2: "'ss11' Style Set 11 in Latin lookup 1 per glyph data 40" dx=272 dy=0 dh=543 dv=0
EndChar

StartChar: Y.salt
Encoding: 57648 57648 175
Width: 706
Flags: MW
HStem: 292 10<348 348 358 427.5 278.5 434>
VStem: 153 10<427 630> 348 10<90 292> 544 10<427 630>
LayerCount: 2
Fore
SplineSet
358 90 m 1
 348 90 l 1
 348 292 l 1
 195 293 153 347 153 427 c 2
 153 630 l 1
 163 630 l 1
 163 427 l 2
 163 352 204 302 353 302 c 0
 502 302 544 352 544 427 c 2
 544 630 l 1
 554 630 l 1
 554 427 l 2
 554 346 510 292 358 292 c 1
 358 90 l 1
EndSplineSet
Substitution2: "'ss12' Style Set 12 in Latin lookup 25 subtable" Y.salt_v
Substitution2: "'ss01' Style Set 1 in Latin lookup 21 subtable" Y.salt_v
Substitution2: "'vert' Vertical Alternates (obs) in Latin lookup 20 subtable" Y.salt_v
Position2: "'ss11' Style Set 11 in Latin lookup 1 per glyph data 56" dx=287 dy=0 dh=574 dv=0
EndChar

StartChar: Yacute.salt
Encoding: 57649 57649 176
Width: 706
Flags: MW
HStem: 292 10<348 348 358 427.5 278.5 434>
VStem: 153 10<427 630> 348 10<90 292> 544 10<427 630>
LayerCount: 2
Fore
SplineSet
358 90 m 1
 348 90 l 1
 348 292 l 1
 195 293 153 347 153 427 c 2
 153 630 l 1
 163 630 l 1
 163 427 l 2
 163 352 204 302 353 302 c 0
 502 302 544 352 544 427 c 2
 544 630 l 1
 554 630 l 1
 554 427 l 2
 554 346 510 292 358 292 c 1
 358 90 l 1
243 847 m 1
 482 877 l 1
 482 867 l 1
 243 837 l 1
 243 847 l 1
EndSplineSet
Substitution2: "'ss12' Style Set 12 in Latin lookup 25 subtable" Yacute.salt_v
Substitution2: "'ss01' Style Set 1 in Latin lookup 21 subtable" Yacute.salt_v
Substitution2: "'vert' Vertical Alternates (obs) in Latin lookup 20 subtable" Yacute.salt_v
Position2: "'ss11' Style Set 11 in Latin lookup 1 per glyph data 56" dx=287 dy=0 dh=574 dv=0
EndChar

StartChar: Ycircumflex.salt
Encoding: 57650 57650 177
Width: 706
Flags: MW
HStem: 292 10<348 348 358 427.5 278.5 434> 878 10<316 320>
VStem: 153 10<427 630> 348 10<90 292> 544 10<427 630>
LayerCount: 2
Fore
SplineSet
358 90 m 1
 348 90 l 1
 348 292 l 1
 195 293 153 347 153 427 c 2
 153 630 l 1
 163 630 l 1
 163 427 l 2
 163 352 204 302 353 302 c 0
 502 302 544 352 544 427 c 2
 544 630 l 1
 554 630 l 1
 554 427 l 2
 554 346 510 292 358 292 c 1
 358 90 l 1
471 850 m 1
 384 878 l 2
 374 881 365 884 352 884 c 0
 339 884 330 881 320 878 c 2
 233 850 l 1
 233 861 l 1
 316 888 l 2
 328 891 337 894 352 894 c 0
 367 894 376 891 388 888 c 2
 471 861 l 1
 471 850 l 1
EndSplineSet
Substitution2: "'ss12' Style Set 12 in Latin lookup 25 subtable" Ycircumflex.salt_v
Substitution2: "'ss01' Style Set 1 in Latin lookup 21 subtable" Ycircumflex.salt_v
Substitution2: "'vert' Vertical Alternates (obs) in Latin lookup 20 subtable" Ycircumflex.salt_v
Position2: "'ss11' Style Set 11 in Latin lookup 1 per glyph data 56" dx=287 dy=0 dh=574 dv=0
EndChar

StartChar: Ydieresis.salt
Encoding: 57651 57651 178
Width: 706
Flags: MW
HStem: 292 10<348 348 358 427.5 278.5 434> 830 47<217 227 217 227 475 485>
VStem: 153 10<427 630> 217 10<830 877> 348 10<90 292> 475 10<830 877> 544 10<427 630>
LayerCount: 2
Fore
SplineSet
358 90 m 1
 348 90 l 1
 348 292 l 1
 195 293 153 347 153 427 c 2
 153 630 l 1
 163 630 l 1
 163 427 l 2
 163 352 204 302 353 302 c 0
 502 302 544 352 544 427 c 2
 544 630 l 1
 554 630 l 1
 554 427 l 2
 554 346 510 292 358 292 c 1
 358 90 l 1
227 830 m 1
 217 830 l 1
 217 877 l 1
 227 877 l 1
 227 830 l 1
485 830 m 1
 475 830 l 1
 475 877 l 1
 485 877 l 1
 485 830 l 1
EndSplineSet
Substitution2: "'ss12' Style Set 12 in Latin lookup 25 subtable" Ydieresis.salt_v
Substitution2: "'ss01' Style Set 1 in Latin lookup 21 subtable" Ydieresis.salt_v
Substitution2: "'vert' Vertical Alternates (obs) in Latin lookup 20 subtable" Ydieresis.salt_v
Position2: "'ss11' Style Set 11 in Latin lookup 1 per glyph data 56" dx=287 dy=0 dh=574 dv=0
EndChar

StartChar: Ygrave.salt
Encoding: 57652 57652 179
Width: 706
Flags: MW
HStem: 292 10<348 348 358 427.5 278.5 434>
VStem: 153 10<427 630> 348 10<90 292> 544 10<427 630>
LayerCount: 2
Fore
SplineSet
358 90 m 1
 348 90 l 1
 348 292 l 1
 195 293 153 347 153 427 c 2
 153 630 l 1
 163 630 l 1
 163 427 l 2
 163 352 204 302 353 302 c 0
 502 302 544 352 544 427 c 2
 544 630 l 1
 554 630 l 1
 554 427 l 2
 554 346 510 292 358 292 c 1
 358 90 l 1
223 867 m 1
 223 877 l 1
 462 847 l 1
 462 837 l 1
 223 867 l 1
EndSplineSet
Substitution2: "'ss12' Style Set 12 in Latin lookup 25 subtable" Ygrave.salt_v
Substitution2: "'ss01' Style Set 1 in Latin lookup 21 subtable" Ygrave.salt_v
Substitution2: "'vert' Vertical Alternates (obs) in Latin lookup 20 subtable" Ygrave.salt_v
Position2: "'ss11' Style Set 11 in Latin lookup 1 per glyph data 56" dx=287 dy=0 dh=574 dv=0
EndChar

StartChar: AE.salt
Encoding: 57653 57653 180
Width: 1013
Flags: MW
HStem: 89 10<568 875 568 875> 271 10<180 558 180 558> 358 10<568 794 568 794> 620 10<274.5 874 337 558 568 568 568 874>
VStem: 170 10<89 271 281 495> 558 10<99 271 271 271 281 358 368 620>
LayerCount: 2
Fore
SplineSet
180 495 m 2
 180 281 l 1
 558 281 l 1
 558 620 l 1
 337 620 l 2
 212 620 180 570 180 495 c 2
558 89 m 1
 558 271 l 1
 180 271 l 1
 180 89 l 1
 170 89 l 1
 170 495 l 2
 170 576 204 630 337 630 c 2
 874 630 l 1
 874 620 l 1
 568 620 l 1
 568 368 l 1
 794 368 l 1
 794 358 l 1
 568 358 l 1
 568 99 l 1
 875 99 l 1
 875 89 l 1
 558 89 l 1
EndSplineSet
Substitution2: "'ss12' Style Set 12 in Latin lookup 25 subtable" AE.salt_v
Substitution2: "'ss01' Style Set 1 in Latin lookup 21 subtable" AE.salt_v
Substitution2: "'vert' Vertical Alternates (obs) in Latin lookup 20 subtable" AE.salt_v
Position2: "'ss11' Style Set 11 in Latin lookup 1 per glyph data 17" dx=134 dy=0 dh=267 dv=0
EndChar

StartChar: ordfeminine
Encoding: 170 170 181
Width: 520
Flags: MW
HStem: 65 8<106 414 106 414> 390 9<122 395 122 395> 642 9<221 223 223 290>
VStem: 113 9<270 390 399 420> 395 9<270 390 390 390 399 420 270 432.5>
LayerCount: 2
Fore
SplineSet
122 420 m 2
 122 399 l 1
 395 399 l 1
 395 420 l 2
 395 445 390 466 383 485 c 2
 335 600 l 2
 324 625 317 642 290 642 c 2
 223 642 l 2
 195 642 188 625 178 601 c 2
 133 485 l 2
 126 466 122 445 122 420 c 2
395 270 m 1
 395 390 l 1
 122 390 l 1
 122 270 l 1
 113 270 l 1
 113 420 l 2
 113 446 117 468 125 488 c 2
 170 604 l 2
 180 630 189 651 221 651 c 2
 291 651 l 2
 322 651 332 630 343 603 c 2
 392 488 l 2
 400 468 404 446 404 420 c 2
 404 270 l 1
 395 270 l 1
414 73 m 1
 414 65 l 1
 106 65 l 1
 106 73 l 1
 414 73 l 1
EndSplineSet
Position2: "'ss11' Style Set 11 in Latin lookup 1 per glyph data 96" dx=380 dy=0 dh=760 dv=0
EndChar

StartChar: ordmasculine
Encoding: 186 186 182
Width: 525
Flags: MW
HStem: 65 8<106 414 106 414> 260 9<210 314.5 210 318.5> 653 9<210 314.5>
VStem: 119 9<356 565> 398 9<356 565>
LayerCount: 2
Fore
SplineSet
407 356 m 2
 407 298 375 260 262 260 c 0
 150 260 119 298 119 356 c 2
 119 565 l 2
 119 624 150 662 262 662 c 0
 375 662 407 624 407 565 c 2
 407 356 l 2
128 356 m 2
 128 304 158 269 262 269 c 0
 367 269 398 304 398 356 c 2
 398 565 l 2
 398 617 367 653 262 653 c 0
 158 653 128 617 128 565 c 2
 128 356 l 2
414 73 m 1
 414 65 l 1
 106 65 l 1
 106 73 l 1
 414 73 l 1
EndSplineSet
Position2: "'ss11' Style Set 11 in Latin lookup 1 per glyph data 95" dx=378 dy=0 dh=755 dv=0
EndChar

StartChar: zero
Encoding: 48 48 183
Width: 727
Flags: MW
HStem: 77 10<291 435 291 441> 632 10<291 435>
VStem: 166 10<212 507> 552 10<212 507>
LayerCount: 2
Fore
SplineSet
166 212 m 2
 166 507 l 2
 166 587 207 642 363 642 c 0
 519 642 562 586 562 507 c 2
 562 212 l 2
 562 132 519 77 363 77 c 0
 207 77 166 132 166 212 c 2
363 632 m 0
 219 632 176 583 176 507 c 2
 176 212 l 2
 176 136 219 87 363 87 c 0
 507 87 552 136 552 212 c 2
 552 507 l 2
 552 582 507 632 363 632 c 0
EndSplineSet
Substitution2: "'ss12' Style Set 12 in Latin lookup 25 subtable" zero.v
Substitution2: "'ss01' Style Set 1 in Latin lookup 21 subtable" zero.v
Substitution2: "'vert' Vertical Alternates (obs) in Latin lookup 20 subtable" zero.v
Substitution2: "'sinf' Scientific Inferiors in Latin lookup 4 subtable" zero.sinf
Substitution2: "'sups' Superscript in Latin lookup 3 subtable" zero.sups
Position2: "'ss11' Style Set 11 in Latin lookup 1 per glyph data 45" dx=277 dy=0 dh=553 dv=0
EndChar

StartChar: one
Encoding: 49 49 184
Width: 601
Flags: MW
HStem: 85 10<138 308 138 308 318 472> 620 10<158 308 158 318>
VStem: 308 10<95 620 620 620>
LayerCount: 2
Fore
SplineSet
138 85 m 1
 138 95 l 1
 308 95 l 1
 308 620 l 1
 158 620 l 1
 158 630 l 1
 318 630 l 1
 318 95 l 1
 472 95 l 1
 472 85 l 1
 138 85 l 1
EndSplineSet
Substitution2: "'ss12' Style Set 12 in Latin lookup 25 subtable" one.v
Substitution2: "'ss01' Style Set 1 in Latin lookup 21 subtable" one.v
Substitution2: "'vert' Vertical Alternates (obs) in Latin lookup 20 subtable" one.v
Substitution2: "'sinf' Scientific Inferiors in Latin lookup 4 subtable" one.sinf
Substitution2: "'sups' Superscript in Latin lookup 3 subtable" one.sups
Position2: "'ss11' Style Set 11 in Latin lookup 1 per glyph data 85" dx=340 dy=0 dh=679 dv=0
EndChar

StartChar: two
Encoding: 50 50 185
Width: 639
Flags: MW
HStem: 90 10<158 498 158 498 149 498> 620 10<168 369 168 369>
VStem: 149 9<100 246 100 246 100 270.5> 466 10<452 543>
LayerCount: 2
Fore
SplineSet
204 328 m 2
 437 405 l 2
 454 412 466 427 466 452 c 2
 466 543 l 2
 466 604 429 620 369 620 c 2
 168 620 l 1
 168 630 l 1
 369 630 l 2
 437 630 476 610 476 543 c 2
 476 452 l 2
 476 421 462 405 441 396 c 2
 208 319 l 2
 170 306 158 291 158 246 c 2
 158 100 l 1
 498 100 l 1
 498 90 l 1
 149 90 l 1
 149 246 l 2
 149 295 163 314 204 328 c 2
EndSplineSet
Substitution2: "'ss12' Style Set 12 in Latin lookup 25 subtable" two.v
Substitution2: "'ss01' Style Set 1 in Latin lookup 21 subtable" two.v
Substitution2: "'vert' Vertical Alternates (obs) in Latin lookup 20 subtable" two.v
Substitution2: "'sinf' Scientific Inferiors in Latin lookup 4 subtable" two.sinf
Substitution2: "'sups' Superscript in Latin lookup 3 subtable" two.sups
Position2: "'ss11' Style Set 11 in Latin lookup 1 per glyph data 75" dx=321 dy=0 dh=641 dv=0
EndChar

StartChar: three
Encoding: 51 51 186
Width: 637
Flags: MW
HStem: 90 10<139 359 139 359> 359 10<220 303 220 303 303 353.5> 620 10<139 293 139 293>
VStem: 414 10<460 524> 480 10<190 259>
LayerCount: 2
Fore
SplineSet
220 359 m 1
 220 369 l 1
 303 369 l 2
 404 369 414 412 414 460 c 2
 414 528 l 2
 414 580 391 620 293 620 c 2
 139 620 l 1
 139 630 l 1
 293 630 l 2
 404 630 424 582 424 524 c 2
 424 460 l 2
 424 422 418 380 358 367 c 1
 374 367 l 2
 457 367 490 329 490 259 c 2
 490 190 l 2
 490 131 471 90 359 90 c 2
 139 90 l 1
 139 100 l 1
 359 100 l 2
 459 100 480 135 480 190 c 2
 480 259 l 2
 480 326 449 359 372 359 c 2
 220 359 l 1
EndSplineSet
Substitution2: "'ss12' Style Set 12 in Latin lookup 25 subtable" three.v
Substitution2: "'ss01' Style Set 1 in Latin lookup 21 subtable" three.v
Substitution2: "'vert' Vertical Alternates (obs) in Latin lookup 20 subtable" three.v
Substitution2: "'sinf' Scientific Inferiors in Latin lookup 4 subtable" three.sinf
Substitution2: "'sups' Superscript in Latin lookup 3 subtable" three.sups
Position2: "'ss11' Style Set 11 in Latin lookup 1 per glyph data 76" dx=322 dy=0 dh=643 dv=0
EndChar

StartChar: four
Encoding: 52 52 187
Width: 709
Flags: MW
HStem: 267 10<244.5 522 283 522>
VStem: 172 10<372 630> 522 10<90 267 267 267 277 630 90 630>
LayerCount: 2
Fore
SplineSet
522 90 m 1
 522 267 l 1
 283 267 l 2
 206 267 172 302 172 372 c 2
 172 630 l 1
 182 630 l 1
 182 372 l 2
 182 308 214 277 283 277 c 2
 522 277 l 1
 522 630 l 1
 532 630 l 1
 532 90 l 1
 522 90 l 1
EndSplineSet
Substitution2: "'ss12' Style Set 12 in Latin lookup 25 subtable" four.v
Substitution2: "'ss01' Style Set 1 in Latin lookup 21 subtable" four.v
Substitution2: "'vert' Vertical Alternates (obs) in Latin lookup 20 subtable" four.v
Substitution2: "'sinf' Scientific Inferiors in Latin lookup 4 subtable" four.sinf
Substitution2: "'sups' Superscript in Latin lookup 3 subtable" four.sups
Position2: "'ss11' Style Set 11 in Latin lookup 1 per glyph data 54" dx=286 dy=0 dh=571 dv=0
EndChar

StartChar: five
Encoding: 53 53 188
Width: 647
Flags: MW
HStem: 90 10<145 381 145 381> 364 10<184 390 184 390> 620 10<184 478 184 184>
VStem: 174 10<374 620 374 630> 485 10<188 276>
LayerCount: 2
Fore
SplineSet
145 90 m 1
 145 100 l 1
 381 100 l 2
 456 100 485 126 485 188 c 2
 485 276 l 2
 485 339 452 364 390 364 c 2
 174 364 l 1
 174 630 l 1
 478 630 l 1
 478 620 l 1
 184 620 l 1
 184 374 l 1
 390 374 l 2
 460 374 495 345 495 276 c 2
 495 188 l 2
 495 120 464 90 381 90 c 2
 145 90 l 1
EndSplineSet
Substitution2: "'ss12' Style Set 12 in Latin lookup 25 subtable" five.v
Substitution2: "'ss01' Style Set 1 in Latin lookup 21 subtable" five.v
Substitution2: "'vert' Vertical Alternates (obs) in Latin lookup 20 subtable" five.v
Substitution2: "'sinf' Scientific Inferiors in Latin lookup 4 subtable" five.sinf
Substitution2: "'sups' Superscript in Latin lookup 3 subtable" five.sups
Position2: "'ss11' Style Set 11 in Latin lookup 1 per glyph data 72" dx=317 dy=0 dh=633 dv=0
EndChar

StartChar: six
Encoding: 54 54 189
Width: 693
Flags: MW
HStem: 71 10<312 407 312 411> 373 10<319.5 408> 620 10<265.5 480 304 480>
VStem: 170 10<187 278 327 515> 528 10<187 275>
LayerCount: 2
Fore
SplineSet
361 71 m 0
 253 71 170 84 170 187 c 2
 170 515 l 2
 170 604 219 630 304 630 c 2
 480 630 l 1
 480 620 l 1
 304 620 l 2
 227 620 180 598 180 515 c 2
 180 327 l 1
 204 380 275 383 364 383 c 0
 462 383 538 378 538 275 c 2
 538 187 l 2
 538 86 461 71 361 71 c 0
361 81 m 0
 453 81 528 92 528 187 c 2
 528 275 l 2
 528 372 452 373 364 373 c 0
 275 373 180 375 180 278 c 2
 180 187 l 2
 180 90 263 81 361 81 c 0
EndSplineSet
Substitution2: "'ss12' Style Set 12 in Latin lookup 25 subtable" six.v
Substitution2: "'ss01' Style Set 1 in Latin lookup 21 subtable" six.v
Substitution2: "'vert' Vertical Alternates (obs) in Latin lookup 20 subtable" six.v
Substitution2: "'sinf' Scientific Inferiors in Latin lookup 4 subtable" six.sinf
Substitution2: "'sups' Superscript in Latin lookup 3 subtable" six.sups
Position2: "'ss11' Style Set 11 in Latin lookup 1 per glyph data 60" dx=294 dy=0 dh=587 dv=0
EndChar

StartChar: seven
Encoding: 55 55 190
Width: 627
Flags: MW
HStem: 620 10<128 457 128 467>
VStem: 223 10<90 240 90 255.5> 457 10<410 620 620 620>
LayerCount: 2
Fore
SplineSet
223 90 m 1
 223 240 l 2
 223 271 237 287 258 296 c 2
 428 364 l 2
 448 372 457 385 457 410 c 2
 457 620 l 1
 128 620 l 1
 128 630 l 1
 467 630 l 1
 467 410 l 2
 467 379 456 364 432 354 c 2
 262 286 l 2
 245 279 233 265 233 240 c 2
 233 90 l 1
 223 90 l 1
EndSplineSet
Substitution2: "'ss12' Style Set 12 in Latin lookup 25 subtable" seven.v
Substitution2: "'ss01' Style Set 1 in Latin lookup 21 subtable" seven.v
Substitution2: "'vert' Vertical Alternates (obs) in Latin lookup 20 subtable" seven.v
Substitution2: "'sinf' Scientific Inferiors in Latin lookup 4 subtable" seven.sinf
Substitution2: "'sups' Superscript in Latin lookup 3 subtable" seven.sups
Position2: "'ss11' Style Set 11 in Latin lookup 1 per glyph data 79" dx=327 dy=0 dh=653 dv=0
EndChar

StartChar: eight
Encoding: 56 56 191
Width: 711
Flags: MW
HStem: 67 10<283.5 428.5 283.5 436.5> 364 10<303 409 303 428> 642 10<303.5 408.5>
VStem: 153 10<173 265> 189 10<455 558> 512 10<455 550> 548 10<173 266>
LayerCount: 2
Fore
SplineSet
356 67 m 0
 195 67 153 111 153 173 c 2
 153 265 l 2xf4
 153 316 183 356 280 369 c 1
 216 380 189 408 189 455 c 2
 189 558 l 2
 189 620 239 652 356 652 c 0
 473 652 522 620 522 550 c 2
 522 455 l 2xfc
 522 408 496 380 432 369 c 1
 529 356 558 317 558 266 c 2
 558 173 l 2xf6
 558 111 517 67 356 67 c 0
199 558 m 2xfc
 199 455 l 2
 199 397 250 374 356 374 c 0
 462 374 512 397 512 455 c 2
 512 550 l 2
 512 616 461 642 356 642 c 0
 251 642 199 616 199 558 c 2xfc
163 265 m 2xf6
 163 173 l 2
 163 115 211 77 356 77 c 0
 501 77 548 115 548 173 c 2
 548 266 l 2
 548 324 500 364 356 364 c 0
 212 364 163 323 163 265 c 2xf6
EndSplineSet
Substitution2: "'ss12' Style Set 12 in Latin lookup 25 subtable" eight.v
Substitution2: "'ss01' Style Set 1 in Latin lookup 21 subtable" eight.v
Substitution2: "'vert' Vertical Alternates (obs) in Latin lookup 20 subtable" eight.v
Substitution2: "'sinf' Scientific Inferiors in Latin lookup 4 subtable" eight.sinf
Substitution2: "'sups' Superscript in Latin lookup 3 subtable" eight.sups
Position2: "'ss11' Style Set 11 in Latin lookup 1 per glyph data 53" dx=285 dy=0 dh=569 dv=0
EndChar

StartChar: nine
Encoding: 57 57 192
Width: 693
Flags: MW
HStem: 90 10<213 389 213 389> 337 10<285 373.5 285 373.5> 639 10<286 381>
VStem: 155 10<445 533> 513 10<205 393 393 393 442 533>
LayerCount: 2
Fore
SplineSet
213 90 m 1
 213 100 l 1
 389 100 l 2
 466 100 513 122 513 205 c 2
 513 393 l 1
 489 340 418 337 329 337 c 0
 231 337 155 342 155 445 c 2
 155 533 l 2
 155 634 232 649 332 649 c 0
 440 649 523 636 523 533 c 2
 523 205 l 2
 523 116 474 90 389 90 c 2
 213 90 l 1
329 347 m 0
 418 347 513 345 513 442 c 2
 513 533 l 2
 513 630 430 639 332 639 c 0
 240 639 165 628 165 533 c 2
 165 445 l 2
 165 348 241 347 329 347 c 0
EndSplineSet
Substitution2: "'ss12' Style Set 12 in Latin lookup 25 subtable" nine.v
Substitution2: "'ss01' Style Set 1 in Latin lookup 21 subtable" nine.v
Substitution2: "'vert' Vertical Alternates (obs) in Latin lookup 20 subtable" nine.v
Substitution2: "'sinf' Scientific Inferiors in Latin lookup 4 subtable" nine.sinf
Substitution2: "'sups' Superscript in Latin lookup 3 subtable" nine.sups
Position2: "'ss11' Style Set 11 in Latin lookup 1 per glyph data 60" dx=294 dy=0 dh=587 dv=0
EndChar

StartChar: underscore
Encoding: 95 95 193
Width: 734
Flags: MW
HStem: -5 10<160 574 160 574>
VStem: 160 414<-5 5 -5 5>
LayerCount: 2
Fore
SplineSet
574 5 m 1
 574 -5 l 1
 160 -5 l 1
 160 5 l 1
 574 5 l 1
EndSplineSet
Position2: "'ss11' Style Set 11 in Latin lookup 1 per glyph data 42" dx=273 dy=0 dh=546 dv=0
EndChar

StartChar: hyphen
Encoding: 45 45 194
Width: 420
Flags: MW
HStem: 355 10<130 290 130 290>
VStem: 130 160<355 365 355 365>
LayerCount: 2
Fore
SplineSet
290 365 m 1
 290 355 l 1
 130 355 l 1
 130 365 l 1
 290 365 l 1
EndSplineSet
Substitution2: "'ss10' Style Set 10 in Latin lookup 24 subtable" hyphen.v
Substitution2: "'ss01' Style Set 1 in Latin lookup 21 subtable" hyphen.v
Substitution2: "'vert' Vertical Alternates (obs) in Latin lookup 20 subtable" hyphen.v
Position2: "'ss11' Style Set 11 in Latin lookup 1 per glyph data 111" dx=430 dy=0 dh=860 dv=0
EndChar

StartChar: endash
Encoding: 8211 8211 195
Width: 734
Flags: MW
HStem: 355 10<160 574 160 574>
VStem: 160 414<355 365 355 365>
LayerCount: 2
Fore
SplineSet
574 365 m 1
 574 355 l 1
 160 355 l 1
 160 365 l 1
 574 365 l 1
EndSplineSet
Substitution2: "'ss10' Style Set 10 in Latin lookup 24 subtable" endash.v
Substitution2: "'ss01' Style Set 1 in Latin lookup 21 subtable" endash.v
Substitution2: "'vert' Vertical Alternates (obs) in Latin lookup 20 subtable" endash.v
Position2: "'ss11' Style Set 11 in Latin lookup 1 per glyph data 42" dx=273 dy=0 dh=546 dv=0
EndChar

StartChar: emdash
Encoding: 8212 8212 196
Width: 1134
Flags: MW
HStem: 355 10<160 974 160 974>
VStem: 160 814<355 365 355 365>
LayerCount: 2
Fore
SplineSet
974 365 m 1
 974 355 l 1
 160 355 l 1
 160 365 l 1
 974 365 l 1
EndSplineSet
Substitution2: "'ss10' Style Set 10 in Latin lookup 24 subtable" emdash.v
Substitution2: "'ss01' Style Set 1 in Latin lookup 21 subtable" emdash.v
Substitution2: "'vert' Vertical Alternates (obs) in Latin lookup 20 subtable" emdash.v
Position2: "'ss11' Style Set 11 in Latin lookup 1 per glyph data 12" dx=73 dy=0 dh=146 dv=0
EndChar

StartChar: parenleft
Encoding: 40 40 197
Width: 429
Flags: MW
HStem: 11 10<254.5 294 254.5 294> 698 10<254 294>
VStem: 157 10<124 595>
LayerCount: 2
Fore
SplineSet
294 21 m 1
 294 11 l 1
 207 11 157 36 157 124 c 2
 157 595 l 2
 157 683 206 708 294 708 c 1
 294 698 l 1
 214 698 167 677 167 595 c 2
 167 124 l 2
 167 42 215 21 294 21 c 1
EndSplineSet
Substitution2: "'ss10' Style Set 10 in Latin lookup 24 subtable" parenleft.v
Substitution2: "'ss01' Style Set 1 in Latin lookup 21 subtable" parenleft.v
Substitution2: "'vert' Vertical Alternates (obs) in Latin lookup 20 subtable" parenleft.v
Position2: "'ss11' Style Set 11 in Latin lookup 1 per glyph data 108" dx=426 dy=0 dh=851 dv=0
EndChar

StartChar: parenright
Encoding: 41 41 198
Width: 429
Flags: MW
HStem: 11 10<135 174.5 135 178.5> 698 10<135 175>
VStem: 262 10<124 595>
LayerCount: 2
Fore
SplineSet
272 124 m 2
 272 36 222 11 135 11 c 1
 135 21 l 1
 214 21 262 42 262 124 c 2
 262 595 l 2
 262 677 215 698 135 698 c 1
 135 708 l 1
 223 708 272 683 272 595 c 2
 272 124 l 2
EndSplineSet
Substitution2: "'ss10' Style Set 10 in Latin lookup 24 subtable" parenright.v
Substitution2: "'ss01' Style Set 1 in Latin lookup 21 subtable" parenright.v
Substitution2: "'vert' Vertical Alternates (obs) in Latin lookup 20 subtable" parenright.v
Position2: "'ss11' Style Set 11 in Latin lookup 1 per glyph data 108" dx=426 dy=0 dh=851 dv=0
EndChar

StartChar: bracketleft
Encoding: 91 91 199
Width: 429
Flags: MW
HStem: 11 10<167 294 167 294> 698 10<167 294 167 167>
VStem: 157 10<21 698 21 708>
LayerCount: 2
Fore
SplineSet
157 708 m 1
 294 708 l 1
 294 698 l 1
 167 698 l 1
 167 21 l 1
 294 21 l 1
 294 11 l 1
 157 11 l 1
 157 708 l 1
EndSplineSet
Substitution2: "'ss10' Style Set 10 in Latin lookup 24 subtable" bracketleft.v
Substitution2: "'ss01' Style Set 1 in Latin lookup 21 subtable" bracketleft.v
Substitution2: "'vert' Vertical Alternates (obs) in Latin lookup 20 subtable" bracketleft.v
Position2: "'ss11' Style Set 11 in Latin lookup 1 per glyph data 108" dx=426 dy=0 dh=851 dv=0
EndChar

StartChar: bracketright
Encoding: 93 93 200
Width: 429
Flags: MW
HStem: 11 10<135 262 135 272 135 262> 698 10<135 262 135 272>
VStem: 262 10<21 698 698 698>
LayerCount: 2
Fore
SplineSet
272 708 m 1
 272 11 l 1
 135 11 l 1
 135 21 l 1
 262 21 l 1
 262 698 l 1
 135 698 l 1
 135 708 l 1
 272 708 l 1
EndSplineSet
Substitution2: "'ss10' Style Set 10 in Latin lookup 24 subtable" bracketright.v
Substitution2: "'ss01' Style Set 1 in Latin lookup 21 subtable" bracketright.v
Substitution2: "'vert' Vertical Alternates (obs) in Latin lookup 20 subtable" bracketright.v
Position2: "'ss11' Style Set 11 in Latin lookup 1 per glyph data 108" dx=426 dy=0 dh=851 dv=0
EndChar

StartChar: braceleft
Encoding: 123 123 201
Width: 455
Flags: MW
HStem: 11 10<280.5 320 280.5 320> 275 8 433 8 698 10<280 320>
VStem: 129 10<344 372> 193 10<124 275 275 275 441 595>
LayerCount: 2
Fore
SplineSet
320 11 m 1
 233 11 193 48 193 124 c 2
 193 275 l 1
 153 281 129 302 129 344 c 2
 129 372 l 2
 129 415 153 435 193 441 c 1
 193 595 l 2
 193 680 232 708 320 708 c 1
 320 698 l 1
 240 698 203 674 203 595 c 2
 203 433 l 1
 156 428 139 409 139 372 c 2
 139 344 l 2
 139 307 157 288 203 283 c 1
 203 124 l 2
 203 54 241 21 320 21 c 1
 320 11 l 1
EndSplineSet
Substitution2: "'ss10' Style Set 10 in Latin lookup 24 subtable" braceleft.v
Substitution2: "'ss01' Style Set 1 in Latin lookup 21 subtable" braceleft.v
Substitution2: "'vert' Vertical Alternates (obs) in Latin lookup 20 subtable" braceleft.v
Position2: "'ss11' Style Set 11 in Latin lookup 1 per glyph data 106" dx=413 dy=0 dh=825 dv=0
EndChar

StartChar: braceright
Encoding: 125 125 202
Width: 455
Flags: MW
HStem: 11 10<135 174.5 135 178.5> 275 8 433 8 698 10<135 175>
VStem: 252 10<124 275 441 595> 316 10<344 372>
LayerCount: 2
Fore
SplineSet
262 124 m 2
 262 48 222 11 135 11 c 1
 135 21 l 1
 214 21 252 54 252 124 c 2
 252 283 l 1
 298 288 316 307 316 344 c 2
 316 372 l 2
 316 409 299 428 252 433 c 1
 252 595 l 2
 252 674 215 698 135 698 c 1
 135 708 l 1
 223 708 262 680 262 595 c 2
 262 441 l 1
 302 435 326 415 326 372 c 2
 326 344 l 2
 326 302 302 281 262 275 c 1
 262 124 l 2
EndSplineSet
Substitution2: "'ss10' Style Set 10 in Latin lookup 24 subtable" braceright.v
Substitution2: "'ss01' Style Set 1 in Latin lookup 21 subtable" braceright.v
Substitution2: "'vert' Vertical Alternates (obs) in Latin lookup 20 subtable" braceright.v
Position2: "'ss11' Style Set 11 in Latin lookup 1 per glyph data 106" dx=413 dy=0 dh=825 dv=0
EndChar

StartChar: numbersign
Encoding: 35 35 203
Width: 750
Flags: MW
HStem: 220 10<125 206 125 207 125 216 217 495 506 589> 495 10<161 245 161 246 256 534 161 255 545 625>
VStem: 125 500<220 505 230 505>
LayerCount: 2
Fore
SplineSet
534 495 m 1
 255 495 l 1
 217 230 l 1
 496 230 l 1
 534 495 l 1
187 90 m 1
 206 220 l 1
 125 220 l 1
 125 230 l 1
 207 230 l 1
 245 495 l 1
 161 495 l 1
 161 505 l 1
 246 505 l 1
 264 630 l 1
 274 630 l 1
 256 505 l 1
 535 505 l 1
 553 630 l 1
 563 630 l 1
 545 505 l 1
 625 505 l 1
 625 495 l 1
 544 495 l 1
 506 230 l 1
 589 230 l 1
 589 220 l 1
 505 220 l 1
 486 90 l 1
 476 90 l 1
 495 220 l 1
 216 220 l 1
 197 90 l 1
 187 90 l 1
EndSplineSet
Position2: "'ss11' Style Set 11 in Latin lookup 1 per glyph data 34" dx=265 dy=0 dh=530 dv=0
EndChar

StartChar: percent
Encoding: 37 37 204
Width: 1031
Flags: MW
HStem: 55 10<787 855.5 787 860.5> 350 10<787 855.5> 358 10<187 255.5 187 260.5> 653 10<187 255.5>
VStem: 110 10<437 583> 321 10<437 583> 710 10<134 280> 921 10<134 280>
LayerCount: 2
Fore
SplineSet
331 583 m 2xbf
 331 437 l 2
 331 379 300 358 221 358 c 0
 143 358 110 379 110 437 c 2
 110 583 l 2
 110 641 143 663 221 663 c 0
 300 663 331 641 331 583 c 2xbf
221 368 m 0
 290 368 321 385 321 437 c 2
 321 583 l 2
 321 635 290 653 221 653 c 0
 153 653 120 635 120 583 c 2
 120 437 l 2
 120 385 153 368 221 368 c 0
459 90 m 1
 449 90 l 1
 582 630 l 1
 592 630 l 1
 459 90 l 1
931 280 m 2xdf
 931 134 l 2
 931 76 900 55 821 55 c 0
 743 55 710 76 710 134 c 2
 710 280 l 2
 710 338 743 360 821 360 c 0
 900 360 931 338 931 280 c 2xdf
821 65 m 0
 890 65 921 82 921 134 c 2
 921 280 l 2
 921 332 890 350 821 350 c 0
 753 350 720 332 720 280 c 2
 720 134 l 2
 720 82 753 65 821 65 c 0
EndSplineSet
Substitution2: "'ss12' Style Set 12 in Latin lookup 25 subtable" percent.v
Substitution2: "'ss01' Style Set 1 in Latin lookup 21 subtable" percent.v
Substitution2: "'vert' Vertical Alternates (obs) in Latin lookup 20 subtable" percent.v
Position2: "'ss11' Style Set 11 in Latin lookup 1 per glyph data 15" dx=125 dy=0 dh=249 dv=0
EndChar

StartChar: perthousand
Encoding: 8240 8240 205
Width: 1417
Flags: MW
HStem: 55 10<785 853.5 785 858.5 1182 1250.5> 350 10<785 853.5 1182 1250.5> 358 10<187 255.5 187 260.5> 653 10<187 255.5>
VStem: 110 10<437 583> 321 10<437 583> 708 10<134 280> 919 10<134 280> 1105 10<134 280> 1316 10<134 280>
LayerCount: 2
Fore
SplineSet
331 583 m 2xdfc0
 331 437 l 2
 331 379 300 358 221 358 c 0
 143 358 110 379 110 437 c 2x3c
 110 583 l 2
 110 641 143 663 221 663 c 0
 300 663 331 641 331 583 c 2xdfc0
221 368 m 0
 290 368 321 385 321 437 c 2
 321 583 l 2
 321 635 290 653 221 653 c 0
 153 653 120 635 120 583 c 2
 120 437 l 2
 120 385 153 368 221 368 c 0
459 90 m 1
 449 90 l 1
 582 630 l 1
 592 630 l 1
 459 90 l 1
1326 280 m 2xc3c0
 1326 134 l 2
 1326 76 1295 55 1216 55 c 0
 1138 55 1105 76 1105 134 c 2
 1105 280 l 2
 1105 338 1138 360 1216 360 c 0
 1295 360 1326 338 1326 280 c 2xc3c0
929 280 m 2
 929 134 l 2
 929 76 898 55 819 55 c 0
 741 55 708 76 708 134 c 2
 708 280 l 2
 708 338 741 360 819 360 c 0
 898 360 929 338 929 280 c 2
1216 65 m 0
 1285 65 1316 82 1316 134 c 2
 1316 280 l 2
 1316 332 1285 350 1216 350 c 0
 1148 350 1115 332 1115 280 c 2
 1115 134 l 2
 1115 82 1148 65 1216 65 c 0
819 65 m 0
 888 65 919 82 919 134 c 2
 919 280 l 2
 919 332 888 350 819 350 c 0
 751 350 718 332 718 280 c 2
 718 134 l 2
 718 82 751 65 819 65 c 0
EndSplineSet
Substitution2: "'ss12' Style Set 12 in Latin lookup 25 subtable" perthousand.v
Substitution2: "'ss01' Style Set 1 in Latin lookup 21 subtable" perthousand.v
Substitution2: "'vert' Vertical Alternates (obs) in Latin lookup 20 subtable" perthousand.v
Position2: "'ss11' Style Set 11 in Latin lookup 1 per glyph data 0" dx=-69 dy=0 dh=-137 dv=0
EndChar

StartChar: quotesingle
Encoding: 39 39 206
Width: 356
Flags: MW
HStem: 435 195<173 183 173 183>
VStem: 173 10<435 630 435 630>
LayerCount: 2
Fore
SplineSet
173 630 m 1
 183 630 l 1
 183 435 l 1
 173 435 l 1
 173 630 l 1
EndSplineSet
Substitution2: "'ss12' Style Set 12 in Latin lookup 25 subtable" quotesingle.v
Substitution2: "'ss01' Style Set 1 in Latin lookup 21 subtable" quotesingle.v
Substitution2: "'vert' Vertical Alternates (obs) in Latin lookup 20 subtable" quotesingle.v
Position2: "'ss11' Style Set 11 in Latin lookup 1 per glyph data 115" dx=462 dy=0 dh=924 dv=0
EndChar

StartChar: quotedbl
Encoding: 34 34 207
Width: 646
Flags: MW
HStem: 435 195<163 173 163 173 473 483>
VStem: 163 10<435 630 435 630> 473 10<435 630 435 630>
LayerCount: 2
Fore
SplineSet
473 630 m 1
 483 630 l 1
 483 435 l 1
 473 435 l 1
 473 630 l 1
163 630 m 1
 173 630 l 1
 173 435 l 1
 163 435 l 1
 163 630 l 1
EndSplineSet
Substitution2: "'ss12' Style Set 12 in Latin lookup 25 subtable" quotedbl.v
Substitution2: "'ss01' Style Set 1 in Latin lookup 21 subtable" quotedbl.v
Substitution2: "'vert' Vertical Alternates (obs) in Latin lookup 20 subtable" quotedbl.v
Position2: "'ss11' Style Set 11 in Latin lookup 1 per glyph data 73" dx=317 dy=0 dh=634 dv=0
EndChar

StartChar: quoteleft
Encoding: 8216 8216 208
Width: 384
Flags: MW
HStem: 450 10<135 259 135 259> 650 10<189 259 213 259>
VStem: 125 10<460 569 460 569 460 599.5>
LayerCount: 2
Fore
SplineSet
125 450 m 1
 125 569 l 2
 125 630 159 660 213 660 c 2
 259 660 l 1
 259 650 l 1
 213 650 l 2
 165 650 135 623 135 569 c 2
 135 460 l 1
 259 460 l 1
 259 450 l 1
 125 450 l 1
EndSplineSet
Substitution2: "'ss12' Style Set 12 in Latin lookup 25 subtable" quoteleft.v
Substitution2: "'ss01' Style Set 1 in Latin lookup 21 subtable" quoteleft.v
Substitution2: "'vert' Vertical Alternates (obs) in Latin lookup 20 subtable" quoteleft.v
Substitution2: "'ss07' Style Set 7 in Latin lookup 15 subtable" quoteleft.salt
Position2: "'ss11' Style Set 11 in Latin lookup 1 per glyph data 112" dx=448 dy=0 dh=896 dv=0
EndChar

